<?xml version="1.0" encoding="UTF-8" standalone="no"?>
<!DOCTYPE svg PUBLIC "-//W3C//DTD SVG 1.1//EN"
 "http://www.w3.org/Graphics/SVG/1.1/DTD/svg11.dtd">
<!-- Generated by graphviz version 14.1.0 (20251207.0913)
 -->
<!-- Title: classes_ds_vis Pages: 1 -->
<svg width="5352pt" height="412pt"
 viewBox="0.00 0.00 5352.00 412.00" xmlns="http://www.w3.org/2000/svg" xmlns:xlink="http://www.w3.org/1999/xlink">
<g id="graph0" class="graph" transform="scale(1 1) rotate(0) translate(4 408)">
<title>classes_ds_vis</title>
<polygon fill="white" stroke="none" points="-4,4 -4,-408 5347.75,-408 5347.75,4 -4,4"/>
<!-- ds_vis.core.ops.ops.AnimationOp -->
<g id="node1" class="node">
<title>ds_vis.core.ops.ops.AnimationOp</title>
<polygon fill="none" stroke="black" points="0,-43.62 0,-153.88 189.25,-153.88 189.25,-43.62 0,-43.62"/>
<text xml:space="preserve" text-anchor="start" x="48.12" y="-136.57" font-family="Times,serif" font-size="14.00">AnimationOp</text>
<polyline fill="none" stroke="black" points="0,-128.62 189.25,-128.62"/>
<text xml:space="preserve" text-anchor="start" x="8" y="-111.33" font-family="Times,serif" font-size="14.00">data : Mapping[str, Any]</text>
<text xml:space="preserve" text-anchor="start" x="8" y="-94.08" font-family="Times,serif" font-size="14.00">op</text>
<text xml:space="preserve" text-anchor="start" x="8" y="-76.83" font-family="Times,serif" font-size="14.00">target : Optional[str]</text>
<polyline fill="none" stroke="black" points="0,-68.88 189.25,-68.88"/>
<text xml:space="preserve" text-anchor="start" x="92.38" y="-51.58" font-family="Times,serif" font-size="14.00"> </text>
</g>
<!-- ds_vis.core.ops.ops.OpCode -->
<g id="node20" class="node">
<title>ds_vis.core.ops.ops.OpCode</title>
<polygon fill="none" stroke="black" points="58.5,-289.5 58.5,-365.25 130.75,-365.25 130.75,-289.5 58.5,-289.5"/>
<text xml:space="preserve" text-anchor="start" x="66.5" y="-347.95" font-family="Times,serif" font-size="14.00">OpCode</text>
<polyline fill="none" stroke="black" points="58.5,-340 130.75,-340"/>
<text xml:space="preserve" text-anchor="start" x="75.12" y="-322.7" font-family="Times,serif" font-size="14.00">name</text>
<polyline fill="none" stroke="black" points="58.5,-314.75 130.75,-314.75"/>
<text xml:space="preserve" text-anchor="start" x="92.38" y="-297.45" font-family="Times,serif" font-size="14.00"> </text>
</g>
<!-- ds_vis.core.ops.ops.AnimationOp&#45;&gt;ds_vis.core.ops.ops.OpCode -->
<g id="edge7" class="edge">
<title>ds_vis.core.ops.ops.AnimationOp&#45;&gt;ds_vis.core.ops.ops.OpCode</title>
<path fill="none" stroke="black" d="M94.62,-154.32C94.62,-192.18 94.62,-242.14 94.62,-278.47"/>
<polygon fill="black" stroke="black" points="94.63,-288.05 90.13,-278.05 94.63,-284.27 94.63,-278.05 94.63,-278.05 94.63,-278.05 94.63,-284.27 99.13,-278.05 94.63,-288.05"/>
<text xml:space="preserve" text-anchor="middle" x="103.25" y="-219.45" font-family="Times,serif" font-size="14.00" fill="green">op</text>
</g>
<!-- ds_vis.core.ops.timeline.AnimationStep -->
<g id="node2" class="node">
<title>ds_vis.core.ops.timeline.AnimationStep</title>
<polygon fill="none" stroke="black" points="207.25,-43.62 207.25,-153.88 392,-153.88 392,-43.62 207.25,-43.62"/>
<text xml:space="preserve" text-anchor="start" x="246.75" y="-136.57" font-family="Times,serif" font-size="14.00">AnimationStep</text>
<polyline fill="none" stroke="black" points="207.25,-128.62 392,-128.62"/>
<text xml:space="preserve" text-anchor="start" x="215.25" y="-111.33" font-family="Times,serif" font-size="14.00">duration_ms : int</text>
<text xml:space="preserve" text-anchor="start" x="215.25" y="-94.08" font-family="Times,serif" font-size="14.00">label : Optional[str]</text>
<text xml:space="preserve" text-anchor="start" x="215.25" y="-76.83" font-family="Times,serif" font-size="14.00">ops : List[AnimationOp]</text>
<polyline fill="none" stroke="black" points="207.25,-68.88 392,-68.88"/>
<text xml:space="preserve" text-anchor="start" x="297.38" y="-51.58" font-family="Times,serif" font-size="14.00"> </text>
</g>
<!-- ds_vis.core.models.base.BaseModel -->
<g id="node3" class="node">
<title>ds_vis.core.models.base.BaseModel</title>
<polygon fill="none" stroke="black" points="409.75,-251.25 409.75,-403.5 867.5,-403.5 867.5,-251.25 409.75,-251.25"/>
<text xml:space="preserve" text-anchor="start" x="599.25" y="-386.2" font-family="Times,serif" font-size="14.00">BaseModel</text>
<polyline fill="none" stroke="black" points="409.75,-378.25 867.5,-378.25"/>
<text xml:space="preserve" text-anchor="start" x="516" y="-360.95" font-family="Times,serif" font-size="14.00">id_allocator : Optional[IdAllocator]</text>
<text xml:space="preserve" text-anchor="start" x="516" y="-343.7" font-family="Times,serif" font-size="14.00">kind : str</text>
<text xml:space="preserve" text-anchor="start" x="516" y="-326.45" font-family="Times,serif" font-size="14.00">node_count : int</text>
<text xml:space="preserve" text-anchor="start" x="516" y="-309.2" font-family="Times,serif" font-size="14.00">structure_id : str</text>
<polyline fill="none" stroke="black" points="409.75,-301.25 867.5,-301.25"/>
<text xml:space="preserve" text-anchor="start" x="417.75" y="-284.95" font-family="Times,serif" font-size="14.00">allocate_node_id(prefix: str): str</text>
<text xml:space="preserve" text-anchor="start" x="417.75" y="-270.95" font-family="Times,serif" font-style="italic" font-size="14.00">apply_operation</text>
<text xml:space="preserve" text-anchor="start" x="531.75" y="-270.95" font-family="Times,serif" font-size="14.00">(op: str, payload: Mapping[str, Any]): Timeline</text>
<text xml:space="preserve" text-anchor="start" x="417.75" y="-256.95" font-family="Times,serif" font-size="14.00">edge_id(edge_kind: str, src: str, dst: str): str</text>
</g>
<!-- ds_vis.core.models.bst.BstModel -->
<g id="node4" class="node">
<title>ds_vis.core.models.bst.BstModel</title>
<polygon fill="none" stroke="black" points="885.88,-43.62 885.88,-153.88 1083.38,-153.88 1083.38,-43.62 885.88,-43.62"/>
<text xml:space="preserve" text-anchor="start" x="950.5" y="-136.57" font-family="Times,serif" font-size="14.00">BstModel</text>
<polyline fill="none" stroke="black" points="885.88,-128.62 1083.38,-128.62"/>
<text xml:space="preserve" text-anchor="start" x="896.88" y="-111.33" font-family="Times,serif" font-size="14.00">root : Optional[BstNode]</text>
<polyline fill="none" stroke="black" points="885.88,-103.38 1083.38,-103.38"/>
<text xml:space="preserve" text-anchor="start" x="893.88" y="-86.08" font-family="Times,serif" font-size="14.00">delete(key: int): Timeline</text>
<text xml:space="preserve" text-anchor="start" x="893.88" y="-68.83" font-family="Times,serif" font-size="14.00">insert(key: int): Timeline</text>
<text xml:space="preserve" text-anchor="start" x="893.88" y="-51.58" font-family="Times,serif" font-size="14.00">search(key: int): Timeline</text>
</g>
<!-- ds_vis.core.models.bst.BstNode -->
<g id="node5" class="node">
<title>ds_vis.core.models.bst.BstNode</title>
<polygon fill="none" stroke="black" points="1101.12,-43.62 1101.12,-153.88 1306.12,-153.88 1306.12,-43.62 1101.12,-43.62"/>
<text xml:space="preserve" text-anchor="start" x="1172.88" y="-136.57" font-family="Times,serif" font-size="14.00">BstNode</text>
<polyline fill="none" stroke="black" points="1101.12,-128.62 1306.12,-128.62"/>
<text xml:space="preserve" text-anchor="start" x="1109.12" y="-111.33" font-family="Times,serif" font-size="14.00">key : int</text>
<text xml:space="preserve" text-anchor="start" x="1109.12" y="-94.08" font-family="Times,serif" font-size="14.00">left : Optional[&#39;BstNode&#39;]</text>
<text xml:space="preserve" text-anchor="start" x="1109.12" y="-76.83" font-family="Times,serif" font-size="14.00">right : Optional[&#39;BstNode&#39;]</text>
<polyline fill="none" stroke="black" points="1101.12,-68.88 1306.12,-68.88"/>
<text xml:space="preserve" text-anchor="start" x="1201.38" y="-51.58" font-family="Times,serif" font-size="14.00"> </text>
</g>
<!-- ds_vis.core.scene.command.Command -->
<g id="node6" class="node">
<title>ds_vis.core.scene.command.Command</title>
<polygon fill="none" stroke="black" points="1324,-43.62 1324,-153.88 1537.25,-153.88 1537.25,-43.62 1324,-43.62"/>
<text xml:space="preserve" text-anchor="start" x="1394.62" y="-136.57" font-family="Times,serif" font-size="14.00">Command</text>
<polyline fill="none" stroke="black" points="1324,-128.62 1537.25,-128.62"/>
<text xml:space="preserve" text-anchor="start" x="1332" y="-111.33" font-family="Times,serif" font-size="14.00">payload : Mapping[str, Any]</text>
<text xml:space="preserve" text-anchor="start" x="1332" y="-94.08" font-family="Times,serif" font-size="14.00">structure_id : str</text>
<text xml:space="preserve" text-anchor="start" x="1332" y="-76.83" font-family="Times,serif" font-size="14.00">type</text>
<polyline fill="none" stroke="black" points="1324,-68.88 1537.25,-68.88"/>
<text xml:space="preserve" text-anchor="start" x="1428.38" y="-51.58" font-family="Times,serif" font-size="14.00"> </text>
</g>
<!-- ds_vis.core.scene.command.CommandType -->
<g id="node9" class="node">
<title>ds_vis.core.scene.command.CommandType</title>
<polygon fill="none" stroke="black" points="1369.38,-289.5 1369.38,-365.25 1491.88,-365.25 1491.88,-289.5 1369.38,-289.5"/>
<text xml:space="preserve" text-anchor="start" x="1377.38" y="-347.95" font-family="Times,serif" font-size="14.00">CommandType</text>
<polyline fill="none" stroke="black" points="1369.38,-340 1491.88,-340"/>
<text xml:space="preserve" text-anchor="start" x="1411.12" y="-322.7" font-family="Times,serif" font-size="14.00">name</text>
<polyline fill="none" stroke="black" points="1369.38,-314.75 1491.88,-314.75"/>
<text xml:space="preserve" text-anchor="start" x="1428.38" y="-297.45" font-family="Times,serif" font-size="14.00"> </text>
</g>
<!-- ds_vis.core.scene.command.Command&#45;&gt;ds_vis.core.scene.command.CommandType -->
<g id="edge8" class="edge">
<title>ds_vis.core.scene.command.Command&#45;&gt;ds_vis.core.scene.command.CommandType</title>
<path fill="none" stroke="black" d="M1430.62,-154.32C1430.62,-192.18 1430.62,-242.14 1430.62,-278.47"/>
<polygon fill="black" stroke="black" points="1430.63,-288.05 1426.13,-278.05 1430.63,-284.27 1430.63,-278.05 1430.63,-278.05 1430.63,-278.05 1430.63,-284.27 1435.13,-278.05 1430.63,-288.05"/>
<text xml:space="preserve" text-anchor="middle" x="1446.38" y="-219.45" font-family="Times,serif" font-size="14.00" fill="green">type</text>
</g>
<!-- ds_vis.core.exceptions.CommandError -->
<g id="node7" class="node">
<title>ds_vis.core.exceptions.CommandError</title>
<polygon fill="none" stroke="black" points="1555.12,-73.5 1555.12,-124 1682.12,-124 1682.12,-73.5 1555.12,-73.5"/>
<text xml:space="preserve" text-anchor="start" x="1563.12" y="-106.7" font-family="Times,serif" font-size="14.00" fill="red">CommandError</text>
<polyline fill="none" stroke="black" points="1555.12,-98.75 1682.12,-98.75"/>
<polyline fill="none" stroke="black" points="1555.12,-98.75 1682.12,-98.75"/>
<text xml:space="preserve" text-anchor="start" x="1616.38" y="-81.45" font-family="Times,serif" font-size="14.00" fill="red"> </text>
</g>
<!-- ds_vis.core.exceptions.DsVisError -->
<g id="node11" class="node">
<title>ds_vis.core.exceptions.DsVisError</title>
<polygon fill="none" stroke="black" points="1763.88,-302.12 1763.88,-352.62 1859.38,-352.62 1859.38,-302.12 1763.88,-302.12"/>
<text xml:space="preserve" text-anchor="start" x="1771.88" y="-335.32" font-family="Times,serif" font-size="14.00" fill="red">DsVisError</text>
<polyline fill="none" stroke="black" points="1763.88,-327.38 1859.38,-327.38"/>
<polyline fill="none" stroke="black" points="1763.88,-327.38 1859.38,-327.38"/>
<text xml:space="preserve" text-anchor="start" x="1809.38" y="-310.07" font-family="Times,serif" font-size="14.00" fill="red"> </text>
</g>
<!-- ds_vis.core.exceptions.CommandError&#45;&gt;ds_vis.core.exceptions.DsVisError -->
<g id="edge1" class="edge">
<title>ds_vis.core.exceptions.CommandError&#45;&gt;ds_vis.core.exceptions.DsVisError</title>
<path fill="none" stroke="black" d="M1635.6,-124.46C1649.72,-144.6 1670.66,-173.53 1690.62,-197.5 1719.03,-231.61 1753.97,-268.32 1778.99,-293.8"/>
<polygon fill="none" stroke="black" points="1776.49,-296.25 1786,-300.91 1781.47,-291.34 1776.49,-296.25"/>
</g>
<!-- ds_vis.core.scene.command_schema.CommandSchema -->
<g id="node8" class="node">
<title>ds_vis.core.scene.command_schema.CommandSchema</title>
<polygon fill="none" stroke="black" points="2055.25,-35 2055.25,-162.5 2378,-162.5 2378,-35 2055.25,-35"/>
<text xml:space="preserve" text-anchor="start" x="2152.5" y="-145.2" font-family="Times,serif" font-size="14.00">CommandSchema</text>
<polyline fill="none" stroke="black" points="2055.25,-137.25 2378,-137.25"/>
<text xml:space="preserve" text-anchor="start" x="2074.88" y="-119.95" font-family="Times,serif" font-size="14.00">allow_extra : bool</text>
<text xml:space="preserve" text-anchor="start" x="2074.88" y="-102.7" font-family="Times,serif" font-size="14.00">optional : Dict[str, Tuple[Type[Any], ...]]</text>
<text xml:space="preserve" text-anchor="start" x="2074.88" y="-85.45" font-family="Times,serif" font-size="14.00">required : Dict[str, Type[Any]]</text>
<text xml:space="preserve" text-anchor="start" x="2074.88" y="-68.2" font-family="Times,serif" font-size="14.00">validators : Tuple[Validator, ...]</text>
<polyline fill="none" stroke="black" points="2055.25,-60.25 2378,-60.25"/>
<text xml:space="preserve" text-anchor="start" x="2063.25" y="-42.95" font-family="Times,serif" font-size="14.00">validate(payload: Mapping[str, Any]): None</text>
</g>
<!-- ds_vis.core.models.gitgraph.CommitNode -->
<g id="node10" class="node">
<title>ds_vis.core.models.gitgraph.CommitNode</title>
<polygon fill="none" stroke="black" points="2395.88,-35 2395.88,-162.5 2581.38,-162.5 2581.38,-35 2395.88,-35"/>
<text xml:space="preserve" text-anchor="start" x="2441.75" y="-145.2" font-family="Times,serif" font-size="14.00">CommitNode</text>
<polyline fill="none" stroke="black" points="2395.88,-137.25 2581.38,-137.25"/>
<text xml:space="preserve" text-anchor="start" x="2403.88" y="-119.95" font-family="Times,serif" font-size="14.00">branch_labels : List[str]</text>
<text xml:space="preserve" text-anchor="start" x="2403.88" y="-102.7" font-family="Times,serif" font-size="14.00">id : str</text>
<text xml:space="preserve" text-anchor="start" x="2403.88" y="-85.45" font-family="Times,serif" font-size="14.00">message : str</text>
<text xml:space="preserve" text-anchor="start" x="2403.88" y="-68.2" font-family="Times,serif" font-size="14.00">parents : List[str]</text>
<polyline fill="none" stroke="black" points="2395.88,-60.25 2581.38,-60.25"/>
<text xml:space="preserve" text-anchor="start" x="2486.38" y="-42.95" font-family="Times,serif" font-size="14.00"> </text>
</g>
<!-- ds_vis.renderers.pyside6.renderer.EdgeVisual -->
<g id="node12" class="node">
<title>ds_vis.renderers.pyside6.renderer.EdgeVisual</title>
<polygon fill="none" stroke="black" points="2599.88,-35 2599.88,-162.5 2923.38,-162.5 2923.38,-35 2599.88,-35"/>
<text xml:space="preserve" text-anchor="start" x="2721.5" y="-145.2" font-family="Times,serif" font-size="14.00">EdgeVisual</text>
<polyline fill="none" stroke="black" points="2599.88,-137.25 2923.38,-137.25"/>
<text xml:space="preserve" text-anchor="start" x="2607.88" y="-119.95" font-family="Times,serif" font-size="14.00">dst_id : str</text>
<text xml:space="preserve" text-anchor="start" x="2607.88" y="-102.7" font-family="Times,serif" font-size="14.00">label : Optional[QGraphicsSimpleTextItem]</text>
<text xml:space="preserve" text-anchor="start" x="2607.88" y="-85.45" font-family="Times,serif" font-size="14.00">line</text>
<text xml:space="preserve" text-anchor="start" x="2607.88" y="-68.2" font-family="Times,serif" font-size="14.00">src_id : str</text>
<polyline fill="none" stroke="black" points="2599.88,-60.25 2923.38,-60.25"/>
<text xml:space="preserve" text-anchor="start" x="2759.38" y="-42.95" font-family="Times,serif" font-size="14.00"> </text>
</g>
<!-- ds_vis.core.models.gitgraph.GitGraphModel -->
<g id="node13" class="node">
<title>ds_vis.core.models.gitgraph.GitGraphModel</title>
<polygon fill="none" stroke="black" points="2941.88,-0.5 2941.88,-197 3193.38,-197 3193.38,-0.5 2941.88,-0.5"/>
<text xml:space="preserve" text-anchor="start" x="3012.5" y="-179.7" font-family="Times,serif" font-size="14.00">GitGraphModel</text>
<polyline fill="none" stroke="black" points="2941.88,-171.75 3193.38,-171.75"/>
<text xml:space="preserve" text-anchor="start" x="2949.88" y="-154.45" font-family="Times,serif" font-size="14.00">branches : Dict[str, str]</text>
<text xml:space="preserve" text-anchor="start" x="2949.88" y="-137.2" font-family="Times,serif" font-size="14.00">commits : Dict[str, CommitNode]</text>
<text xml:space="preserve" text-anchor="start" x="2949.88" y="-119.95" font-family="Times,serif" font-size="14.00">head : Optional[str]</text>
<text xml:space="preserve" text-anchor="start" x="2949.88" y="-102.7" font-family="Times,serif" font-size="14.00">head_ref : Optional[str]</text>
<polyline fill="none" stroke="black" points="2941.88,-94.75 3193.38,-94.75"/>
<text xml:space="preserve" text-anchor="start" x="2954.75" y="-77.45" font-family="Times,serif" font-size="14.00">branch(name: str): Timeline</text>
<text xml:space="preserve" text-anchor="start" x="2954.75" y="-60.2" font-family="Times,serif" font-size="14.00">checkout(target: str): Timeline</text>
<text xml:space="preserve" text-anchor="start" x="2954.75" y="-42.95" font-family="Times,serif" font-size="14.00">commit(message: str): Timeline</text>
<text xml:space="preserve" text-anchor="start" x="2954.75" y="-25.7" font-family="Times,serif" font-size="14.00">init_repo(): Timeline</text>
<text xml:space="preserve" text-anchor="start" x="2954.75" y="-8.45" font-family="Times,serif" font-size="14.00">merge(branch: str): Timeline</text>
</g>
<!-- ds_vis.core.layout.LayoutEngine -->
<g id="node14" class="node">
<title>ds_vis.core.layout.LayoutEngine</title>
<polygon fill="none" stroke="black" points="3211.62,-73.5 3211.62,-124 3527.62,-124 3527.62,-73.5 3211.62,-73.5"/>
<text xml:space="preserve" text-anchor="start" x="3320.12" y="-106.7" font-family="Times,serif" font-size="14.00">LayoutEngine</text>
<polyline fill="none" stroke="black" points="3211.62,-98.75 3527.62,-98.75"/>
<polyline fill="none" stroke="black" points="3211.62,-98.75 3527.62,-98.75"/>
<text xml:space="preserve" text-anchor="start" x="3219.62" y="-81.45" font-family="Times,serif" font-size="14.00">apply_layout(timeline: Timeline): Timeline</text>
</g>
<!-- ds_vis.core.exceptions.LayoutError -->
<g id="node15" class="node">
<title>ds_vis.core.exceptions.LayoutError</title>
<polygon fill="none" stroke="black" points="1699.75,-73.5 1699.75,-124 1803.5,-124 1803.5,-73.5 1699.75,-73.5"/>
<text xml:space="preserve" text-anchor="start" x="1707.75" y="-106.7" font-family="Times,serif" font-size="14.00" fill="red">LayoutError</text>
<polyline fill="none" stroke="black" points="1699.75,-98.75 1803.5,-98.75"/>
<polyline fill="none" stroke="black" points="1699.75,-98.75 1803.5,-98.75"/>
<text xml:space="preserve" text-anchor="start" x="1749.38" y="-81.45" font-family="Times,serif" font-size="14.00" fill="red"> </text>
</g>
<!-- ds_vis.core.exceptions.LayoutError&#45;&gt;ds_vis.core.exceptions.DsVisError -->
<g id="edge2" class="edge">
<title>ds_vis.core.exceptions.LayoutError&#45;&gt;ds_vis.core.exceptions.DsVisError</title>
<path fill="none" stroke="black" d="M1758.16,-124.43C1768.8,-164.62 1789.91,-244.35 1802.18,-290.7"/>
<polygon fill="none" stroke="black" points="1798.77,-291.49 1804.71,-300.26 1805.53,-289.7 1798.77,-291.49"/>
</g>
<!-- ds_vis.core.models.list_model.ListModel -->
<g id="node16" class="node">
<title>ds_vis.core.models.list_model.ListModel</title>
<polygon fill="none" stroke="black" points="409.75,-0.5 409.75,-197 867.5,-197 867.5,-0.5 409.75,-0.5"/>
<text xml:space="preserve" text-anchor="start" x="603" y="-179.7" font-family="Times,serif" font-size="14.00">ListModel</text>
<polyline fill="none" stroke="black" points="409.75,-171.75 867.5,-171.75"/>
<text xml:space="preserve" text-anchor="start" x="576.75" y="-154.45" font-family="Times,serif" font-size="14.00">kind : str</text>
<text xml:space="preserve" text-anchor="start" x="576.75" y="-137.2" font-family="Times,serif" font-size="14.00">node_count : int</text>
<text xml:space="preserve" text-anchor="start" x="576.75" y="-119.95" font-family="Times,serif" font-size="14.00">values : List[Any]</text>
<polyline fill="none" stroke="black" points="409.75,-112 867.5,-112"/>
<text xml:space="preserve" text-anchor="start" x="417.75" y="-94.7" font-family="Times,serif" font-size="14.00">apply_operation(op: str, payload: Mapping[str, Any]): Timeline</text>
<text xml:space="preserve" text-anchor="start" x="417.75" y="-77.45" font-family="Times,serif" font-size="14.00">create(values: Optional[Iterable[Any]]): Timeline</text>
<text xml:space="preserve" text-anchor="start" x="417.75" y="-60.2" font-family="Times,serif" font-size="14.00">delete_all(): Timeline</text>
<text xml:space="preserve" text-anchor="start" x="417.75" y="-42.95" font-family="Times,serif" font-size="14.00">delete_index(index: int): Timeline</text>
<text xml:space="preserve" text-anchor="start" x="417.75" y="-25.7" font-family="Times,serif" font-size="14.00">insert(index: int, value: Any): Timeline</text>
<text xml:space="preserve" text-anchor="start" x="417.75" y="-8.45" font-family="Times,serif" font-size="14.00">recreate(values: Optional[Iterable[Any]]): Timeline</text>
</g>
<!-- ds_vis.core.models.list_model.ListModel&#45;&gt;ds_vis.core.models.base.BaseModel -->
<g id="edge5" class="edge">
<title>ds_vis.core.models.list_model.ListModel&#45;&gt;ds_vis.core.models.base.BaseModel</title>
<path fill="none" stroke="black" d="M638.62,-197.17C638.62,-211.23 638.62,-225.62 638.62,-239.46"/>
<polygon fill="none" stroke="black" points="635.13,-239.42 638.63,-249.42 642.13,-239.42 635.13,-239.42"/>
</g>
<!-- ds_vis.ui.main_window.MainWindow -->
<g id="node17" class="node">
<title>ds_vis.ui.main_window.MainWindow</title>
<polygon fill="none" stroke="black" points="3546.12,-73.5 3546.12,-124 3655.12,-124 3655.12,-73.5 3546.12,-73.5"/>
<text xml:space="preserve" text-anchor="start" x="3554.12" y="-106.7" font-family="Times,serif" font-size="14.00">MainWindow</text>
<polyline fill="none" stroke="black" points="3546.12,-98.75 3655.12,-98.75"/>
<polyline fill="none" stroke="black" points="3546.12,-98.75 3655.12,-98.75"/>
<text xml:space="preserve" text-anchor="start" x="3598.38" y="-81.45" font-family="Times,serif" font-size="14.00"> </text>
</g>
<!-- ds_vis.core.exceptions.ModelError -->
<g id="node18" class="node">
<title>ds_vis.core.exceptions.ModelError</title>
<polygon fill="none" stroke="black" points="1822,-73.5 1822,-124 1921.25,-124 1921.25,-73.5 1822,-73.5"/>
<text xml:space="preserve" text-anchor="start" x="1830" y="-106.7" font-family="Times,serif" font-size="14.00" fill="red">ModelError</text>
<polyline fill="none" stroke="black" points="1822,-98.75 1921.25,-98.75"/>
<polyline fill="none" stroke="black" points="1822,-98.75 1921.25,-98.75"/>
<text xml:space="preserve" text-anchor="start" x="1869.38" y="-81.45" font-family="Times,serif" font-size="14.00" fill="red"> </text>
</g>
<!-- ds_vis.core.exceptions.ModelError&#45;&gt;ds_vis.core.exceptions.DsVisError -->
<g id="edge3" class="edge">
<title>ds_vis.core.exceptions.ModelError&#45;&gt;ds_vis.core.exceptions.DsVisError</title>
<path fill="none" stroke="black" d="M1865.09,-124.43C1854.45,-164.62 1833.34,-244.35 1821.07,-290.7"/>
<polygon fill="none" stroke="black" points="1817.72,-289.7 1818.54,-300.26 1824.48,-291.49 1817.72,-289.7"/>
</g>
<!-- ds_vis.renderers.pyside6.renderer.NodeVisual -->
<g id="node19" class="node">
<title>ds_vis.renderers.pyside6.renderer.NodeVisual</title>
<polygon fill="none" stroke="black" points="3672.88,-52.25 3672.88,-145.25 3996.38,-145.25 3996.38,-52.25 3672.88,-52.25"/>
<text xml:space="preserve" text-anchor="start" x="3794.12" y="-127.95" font-family="Times,serif" font-size="14.00">NodeVisual</text>
<polyline fill="none" stroke="black" points="3672.88,-120 3996.38,-120"/>
<text xml:space="preserve" text-anchor="start" x="3680.88" y="-102.7" font-family="Times,serif" font-size="14.00">ellipse</text>
<text xml:space="preserve" text-anchor="start" x="3680.88" y="-85.45" font-family="Times,serif" font-size="14.00">label : Optional[QGraphicsSimpleTextItem]</text>
<polyline fill="none" stroke="black" points="3672.88,-77.5 3996.38,-77.5"/>
<text xml:space="preserve" text-anchor="start" x="3832.38" y="-60.2" font-family="Times,serif" font-size="14.00"> </text>
</g>
<!-- ds_vis.renderers.pyside6.renderer.PySide6Renderer -->
<g id="node21" class="node">
<title>ds_vis.renderers.pyside6.renderer.PySide6Renderer</title>
<polygon fill="none" stroke="black" points="4014,-64.88 4014,-132.62 4329.25,-132.62 4329.25,-64.88 4014,-64.88"/>
<text xml:space="preserve" text-anchor="start" x="4109" y="-115.33" font-family="Times,serif" font-size="14.00">PySide6Renderer</text>
<polyline fill="none" stroke="black" points="4014,-107.38 4329.25,-107.38"/>
<polyline fill="none" stroke="black" points="4014,-107.38 4329.25,-107.38"/>
<text xml:space="preserve" text-anchor="start" x="4022" y="-90.08" font-family="Times,serif" font-size="14.00">apply_step(step: AnimationStep): None</text>
<text xml:space="preserve" text-anchor="start" x="4022" y="-72.83" font-family="Times,serif" font-size="14.00">render_timeline(timeline: Timeline): None</text>
</g>
<!-- ds_vis.renderers.base.Renderer -->
<g id="node22" class="node">
<title>ds_vis.renderers.base.Renderer</title>
<polygon fill="none" stroke="black" points="4014,-296.75 4014,-358 4329.25,-358 4329.25,-296.75 4014,-296.75"/>
<text xml:space="preserve" text-anchor="start" x="4138.25" y="-340.7" font-family="Times,serif" font-size="14.00">Renderer</text>
<polyline fill="none" stroke="black" points="4014,-332.75 4329.25,-332.75"/>
<polyline fill="none" stroke="black" points="4014,-332.75 4329.25,-332.75"/>
<text xml:space="preserve" text-anchor="start" x="4022" y="-316.45" font-family="Times,serif" font-style="italic" font-size="14.00">apply_step</text>
<text xml:space="preserve" text-anchor="start" x="4098.5" y="-316.45" font-family="Times,serif" font-size="14.00">(step: AnimationStep): None</text>
<text xml:space="preserve" text-anchor="start" x="4022" y="-302.45" font-family="Times,serif" font-style="italic" font-size="14.00">render_timeline</text>
<text xml:space="preserve" text-anchor="start" x="4135.25" y="-302.45" font-family="Times,serif" font-size="14.00">(timeline: Timeline): None</text>
</g>
<!-- ds_vis.renderers.pyside6.renderer.PySide6Renderer&#45;&gt;ds_vis.renderers.base.Renderer -->
<g id="edge6" class="edge">
<title>ds_vis.renderers.pyside6.renderer.PySide6Renderer&#45;&gt;ds_vis.renderers.base.Renderer</title>
<path fill="none" stroke="black" d="M4171.62,-132.7C4171.62,-172.96 4171.62,-241.1 4171.62,-284.89"/>
<polygon fill="none" stroke="black" points="4168.13,-284.77 4171.63,-294.77 4175.13,-284.77 4168.13,-284.77"/>
</g>
<!-- ds_vis.core.exceptions.SceneError -->
<g id="node23" class="node">
<title>ds_vis.core.exceptions.SceneError</title>
<polygon fill="none" stroke="black" points="1939.75,-73.5 1939.75,-124 2037.5,-124 2037.5,-73.5 1939.75,-73.5"/>
<text xml:space="preserve" text-anchor="start" x="1947.75" y="-106.7" font-family="Times,serif" font-size="14.00" fill="red">SceneError</text>
<polyline fill="none" stroke="black" points="1939.75,-98.75 2037.5,-98.75"/>
<polyline fill="none" stroke="black" points="1939.75,-98.75 2037.5,-98.75"/>
<text xml:space="preserve" text-anchor="start" x="1986.38" y="-81.45" font-family="Times,serif" font-size="14.00" fill="red"> </text>
</g>
<!-- ds_vis.core.exceptions.SceneError&#45;&gt;ds_vis.core.exceptions.DsVisError -->
<g id="edge4" class="edge">
<title>ds_vis.core.exceptions.SceneError&#45;&gt;ds_vis.core.exceptions.DsVisError</title>
<path fill="none" stroke="black" d="M1975.91,-124.35C1964.96,-144.68 1948.2,-173.93 1930.62,-197.5 1904.46,-232.6 1870.16,-268.92 1845.11,-294.02"/>
<polygon fill="none" stroke="black" points="1842.69,-291.48 1838.07,-301.01 1847.63,-296.45 1842.69,-291.48"/>
</g>
<!-- ds_vis.core.scene.scene_graph.SceneGraph -->
<g id="node24" class="node">
<title>ds_vis.core.scene.scene_graph.SceneGraph</title>
<polygon fill="none" stroke="black" points="4347.75,-73.5 4347.75,-124 4709.5,-124 4709.5,-73.5 4347.75,-73.5"/>
<text xml:space="preserve" text-anchor="start" x="4485.12" y="-106.7" font-family="Times,serif" font-size="14.00">SceneGraph</text>
<polyline fill="none" stroke="black" points="4347.75,-98.75 4709.5,-98.75"/>
<polyline fill="none" stroke="black" points="4347.75,-98.75 4709.5,-98.75"/>
<text xml:space="preserve" text-anchor="start" x="4355.75" y="-81.45" font-family="Times,serif" font-size="14.00">apply_command(command: Command): Timeline</text>
</g>
<!-- ds_vis.core.layout.simple.SimpleLayoutEngine -->
<g id="node25" class="node">
<title>ds_vis.core.layout.simple.SimpleLayoutEngine</title>
<polygon fill="none" stroke="black" points="4727.62,-35 4727.62,-162.5 5043.62,-162.5 5043.62,-35 4727.62,-35"/>
<text xml:space="preserve" text-anchor="start" x="4811.38" y="-145.2" font-family="Times,serif" font-size="14.00">SimpleLayoutEngine</text>
<polyline fill="none" stroke="black" points="4727.62,-137.25 5043.62,-137.25"/>
<text xml:space="preserve" text-anchor="start" x="4818.88" y="-119.95" font-family="Times,serif" font-size="14.00">row_spacing : float</text>
<text xml:space="preserve" text-anchor="start" x="4818.88" y="-102.7" font-family="Times,serif" font-size="14.00">spacing : float</text>
<text xml:space="preserve" text-anchor="start" x="4818.88" y="-85.45" font-family="Times,serif" font-size="14.00">start_x : float</text>
<text xml:space="preserve" text-anchor="start" x="4818.88" y="-68.2" font-family="Times,serif" font-size="14.00">start_y : float</text>
<polyline fill="none" stroke="black" points="4727.62,-60.25 5043.62,-60.25"/>
<text xml:space="preserve" text-anchor="start" x="4735.62" y="-42.95" font-family="Times,serif" font-size="14.00">apply_layout(timeline: Timeline): Timeline</text>
</g>
<!-- ds_vis.core.ops.timeline.Timeline -->
<g id="node26" class="node">
<title>ds_vis.core.ops.timeline.Timeline</title>
<polygon fill="none" stroke="black" points="5061.5,-60.88 5061.5,-136.62 5343.75,-136.62 5343.75,-60.88 5061.5,-60.88"/>
<text xml:space="preserve" text-anchor="start" x="5171.88" y="-119.33" font-family="Times,serif" font-size="14.00">Timeline</text>
<polyline fill="none" stroke="black" points="5061.5,-111.38 5343.75,-111.38"/>
<text xml:space="preserve" text-anchor="start" x="5105.12" y="-94.08" font-family="Times,serif" font-size="14.00">steps : List[AnimationStep]</text>
<polyline fill="none" stroke="black" points="5061.5,-86.12 5343.75,-86.12"/>
<text xml:space="preserve" text-anchor="start" x="5069.5" y="-68.83" font-family="Times,serif" font-size="14.00">add_step(step: AnimationStep): None</text>
</g>
</g>
</svg>
