<?xml version="1.0" encoding="UTF-8" standalone="no"?>
<!DOCTYPE svg PUBLIC "-//W3C//DTD SVG 1.1//EN"
 "http://www.w3.org/Graphics/SVG/1.1/DTD/svg11.dtd">
<!-- Generated by graphviz version 14.1.0 (20251207.0913)
 -->
<!-- Title: classes_ds_vis Pages: 1 -->
<svg width="1093pt" height="1387pt"
 viewBox="0.00 0.00 1093.00 1387.00" xmlns="http://www.w3.org/2000/svg" xmlns:xlink="http://www.w3.org/1999/xlink">
<g id="graph0" class="graph" transform="scale(1 1) rotate(0) translate(4 1382.88)">
<title>classes_ds_vis</title>
<polygon fill="white" stroke="none" points="-4,4 -4,-1382.88 1089,-1382.88 1089,4 -4,4"/>
<!-- ds_vis.core.ops.ops.AnimationOp -->
<g id="node1" class="node">
<title>ds_vis.core.ops.ops.AnimationOp</title>
<polygon fill="none" stroke="black" points="150.38,-0.5 150.38,-60.25 469.12,-60.25 469.12,-0.5 150.38,-0.5"/>
<text xml:space="preserve" text-anchor="start" x="158.38" y="-25.7" font-family="Times,serif" font-size="14.00">AnimationOp</text>
<polyline fill="none" stroke="black" points="259.38,-0.5 259.38,-60.25"/>
<text xml:space="preserve" text-anchor="start" x="267.38" y="-42.95" font-family="Times,serif" font-size="14.00">data : Mapping[str, Any]</text>
<text xml:space="preserve" text-anchor="start" x="267.38" y="-25.7" font-family="Times,serif" font-size="14.00">op</text>
<text xml:space="preserve" text-anchor="start" x="267.38" y="-8.45" font-family="Times,serif" font-size="14.00">target : Optional[str]</text>
<polyline fill="none" stroke="black" points="448.62,-0.5 448.62,-60.25"/>
<text xml:space="preserve" text-anchor="start" x="456.62" y="-25.7" font-family="Times,serif" font-size="14.00"> </text>
</g>
<!-- ds_vis.core.ops.ops.OpCode -->
<g id="node18" class="node">
<title>ds_vis.core.ops.ops.OpCode</title>
<polygon fill="none" stroke="black" points="812.12,-12.38 812.12,-48.38 959.88,-48.38 959.88,-12.38 812.12,-12.38"/>
<text xml:space="preserve" text-anchor="start" x="820.12" y="-26.07" font-family="Times,serif" font-size="14.00">OpCode</text>
<polyline fill="none" stroke="black" points="884.38,-13.12 884.38,-48.38"/>
<text xml:space="preserve" text-anchor="start" x="892.38" y="-26.07" font-family="Times,serif" font-size="14.00">name</text>
<polyline fill="none" stroke="black" points="939.38,-13.12 939.38,-48.38"/>
<text xml:space="preserve" text-anchor="start" x="947.38" y="-26.07" font-family="Times,serif" font-size="14.00"> </text>
</g>
<!-- ds_vis.core.ops.ops.AnimationOp&#45;&gt;ds_vis.core.ops.ops.OpCode -->
<g id="edge6" class="edge">
<title>ds_vis.core.ops.ops.AnimationOp&#45;&gt;ds_vis.core.ops.ops.OpCode</title>
<path fill="none" stroke="black" d="M469.57,-30.38C576.74,-30.38 713.93,-30.38 800.68,-30.38"/>
<polygon fill="black" stroke="black" points="810.57,-30.38 800.57,-34.88 806.79,-30.38 800.57,-30.38 800.57,-30.38 800.57,-30.38 806.79,-30.38 800.57,-25.88 810.57,-30.38"/>
<text xml:space="preserve" text-anchor="middle" x="653.25" y="-34.33" font-family="Times,serif" font-size="14.00" fill="green">op</text>
</g>
<!-- ds_vis.core.ops.timeline.AnimationStep -->
<g id="node2" class="node">
<title>ds_vis.core.ops.timeline.AnimationStep</title>
<polygon fill="none" stroke="black" points="146.25,-79.5 146.25,-139.25 473.25,-139.25 473.25,-79.5 146.25,-79.5"/>
<text xml:space="preserve" text-anchor="start" x="154.25" y="-104.7" font-family="Times,serif" font-size="14.00">AnimationStep</text>
<polyline fill="none" stroke="black" points="268,-79.5 268,-139.25"/>
<text xml:space="preserve" text-anchor="start" x="276" y="-121.95" font-family="Times,serif" font-size="14.00">duration_ms : int</text>
<text xml:space="preserve" text-anchor="start" x="276" y="-104.7" font-family="Times,serif" font-size="14.00">label : Optional[str]</text>
<text xml:space="preserve" text-anchor="start" x="276" y="-87.45" font-family="Times,serif" font-size="14.00">ops : List[AnimationOp]</text>
<polyline fill="none" stroke="black" points="452.75,-79.5 452.75,-139.25"/>
<text xml:space="preserve" text-anchor="start" x="460.75" y="-104.7" font-family="Times,serif" font-size="14.00"> </text>
</g>
<!-- ds_vis.core.models.bst.BstModel -->
<g id="node3" class="node">
<title>ds_vis.core.models.bst.BstModel</title>
<polygon fill="none" stroke="black" points="73.12,-158.5 73.12,-218.25 546.38,-218.25 546.38,-158.5 73.12,-158.5"/>
<text xml:space="preserve" text-anchor="start" x="81.12" y="-183.7" font-family="Times,serif" font-size="14.00">BstModel</text>
<polyline fill="none" stroke="black" points="157.38,-158.5 157.38,-218.25"/>
<text xml:space="preserve" text-anchor="start" x="165.38" y="-183.7" font-family="Times,serif" font-size="14.00">root : Optional[BstNode]</text>
<polyline fill="none" stroke="black" points="348.88,-158.5 348.88,-218.25"/>
<text xml:space="preserve" text-anchor="start" x="356.88" y="-200.95" font-family="Times,serif" font-size="14.00">delete(key: int): Timeline</text>
<text xml:space="preserve" text-anchor="start" x="356.88" y="-183.7" font-family="Times,serif" font-size="14.00">insert(key: int): Timeline</text>
<text xml:space="preserve" text-anchor="start" x="356.88" y="-166.45" font-family="Times,serif" font-size="14.00">search(key: int): Timeline</text>
</g>
<!-- ds_vis.core.models.bst.BstNode -->
<g id="node4" class="node">
<title>ds_vis.core.models.bst.BstNode</title>
<polygon fill="none" stroke="black" points="158.25,-237.5 158.25,-297.25 461.25,-297.25 461.25,-237.5 158.25,-237.5"/>
<text xml:space="preserve" text-anchor="start" x="166.25" y="-262.7" font-family="Times,serif" font-size="14.00">BstNode</text>
<polyline fill="none" stroke="black" points="235.75,-237.5 235.75,-297.25"/>
<text xml:space="preserve" text-anchor="start" x="243.75" y="-279.95" font-family="Times,serif" font-size="14.00">key : int</text>
<text xml:space="preserve" text-anchor="start" x="243.75" y="-262.7" font-family="Times,serif" font-size="14.00">left : Optional[&#39;BstNode&#39;]</text>
<text xml:space="preserve" text-anchor="start" x="243.75" y="-245.45" font-family="Times,serif" font-size="14.00">right : Optional[&#39;BstNode&#39;]</text>
<polyline fill="none" stroke="black" points="440.75,-237.5 440.75,-297.25"/>
<text xml:space="preserve" text-anchor="start" x="448.75" y="-262.7" font-family="Times,serif" font-size="14.00"> </text>
</g>
<!-- ds_vis.core.scene.command.Command -->
<g id="node5" class="node">
<title>ds_vis.core.scene.command.Command</title>
<polygon fill="none" stroke="black" points="148.88,-316.5 148.88,-376.25 470.62,-376.25 470.62,-316.5 148.88,-316.5"/>
<text xml:space="preserve" text-anchor="start" x="156.88" y="-341.7" font-family="Times,serif" font-size="14.00">Command</text>
<polyline fill="none" stroke="black" points="236.88,-316.5 236.88,-376.25"/>
<text xml:space="preserve" text-anchor="start" x="244.88" y="-358.95" font-family="Times,serif" font-size="14.00">payload : Mapping[str, Any]</text>
<text xml:space="preserve" text-anchor="start" x="244.88" y="-341.7" font-family="Times,serif" font-size="14.00">structure_id : str</text>
<text xml:space="preserve" text-anchor="start" x="244.88" y="-324.45" font-family="Times,serif" font-size="14.00">type</text>
<polyline fill="none" stroke="black" points="450.12,-316.5 450.12,-376.25"/>
<text xml:space="preserve" text-anchor="start" x="458.12" y="-341.7" font-family="Times,serif" font-size="14.00"> </text>
</g>
<!-- ds_vis.core.scene.command.CommandType -->
<g id="node7" class="node">
<title>ds_vis.core.scene.command.CommandType</title>
<polygon fill="none" stroke="black" points="787,-328.38 787,-364.38 985,-364.38 985,-328.38 787,-328.38"/>
<text xml:space="preserve" text-anchor="start" x="795" y="-342.07" font-family="Times,serif" font-size="14.00">CommandType</text>
<polyline fill="none" stroke="black" points="909.5,-329.12 909.5,-364.38"/>
<text xml:space="preserve" text-anchor="start" x="917.5" y="-342.07" font-family="Times,serif" font-size="14.00">name</text>
<polyline fill="none" stroke="black" points="964.5,-329.12 964.5,-364.38"/>
<text xml:space="preserve" text-anchor="start" x="972.5" y="-342.07" font-family="Times,serif" font-size="14.00"> </text>
</g>
<!-- ds_vis.core.scene.command.Command&#45;&gt;ds_vis.core.scene.command.CommandType -->
<g id="edge7" class="edge">
<title>ds_vis.core.scene.command.Command&#45;&gt;ds_vis.core.scene.command.CommandType</title>
<path fill="none" stroke="black" d="M471.09,-346.38C568.21,-346.38 689.55,-346.38 775.68,-346.38"/>
<polygon fill="black" stroke="black" points="785.58,-346.38 775.58,-350.88 781.79,-346.38 775.58,-346.38 775.58,-346.38 775.58,-346.38 781.79,-346.38 775.58,-341.88 785.58,-346.38"/>
<text xml:space="preserve" text-anchor="middle" x="653.25" y="-350.32" font-family="Times,serif" font-size="14.00" fill="green">type</text>
</g>
<!-- ds_vis.core.exceptions.CommandError -->
<g id="node6" class="node">
<title>ds_vis.core.exceptions.CommandError</title>
<polygon fill="none" stroke="black" points="236,-560.38 236,-596.38 383.5,-596.38 383.5,-560.38 236,-560.38"/>
<text xml:space="preserve" text-anchor="start" x="244" y="-574.08" font-family="Times,serif" font-size="14.00" fill="red">CommandError</text>
<polyline fill="none" stroke="black" points="363,-561.12 363,-596.38"/>
<polyline fill="none" stroke="black" points="363,-561.12 363,-596.38"/>
<text xml:space="preserve" text-anchor="start" x="371" y="-574.08" font-family="Times,serif" font-size="14.00" fill="red"> </text>
</g>
<!-- ds_vis.core.exceptions.DsVisError -->
<g id="node9" class="node">
<title>ds_vis.core.exceptions.DsVisError</title>
<polygon fill="none" stroke="black" points="828,-478.38 828,-514.38 944,-514.38 944,-478.38 828,-478.38"/>
<text xml:space="preserve" text-anchor="start" x="836" y="-492.07" font-family="Times,serif" font-size="14.00" fill="red">DsVisError</text>
<polyline fill="none" stroke="black" points="923.5,-479.12 923.5,-514.38"/>
<polyline fill="none" stroke="black" points="923.5,-479.12 923.5,-514.38"/>
<text xml:space="preserve" text-anchor="start" x="931.5" y="-492.07" font-family="Times,serif" font-size="14.00" fill="red"> </text>
</g>
<!-- ds_vis.core.exceptions.CommandError&#45;&gt;ds_vis.core.exceptions.DsVisError -->
<g id="edge1" class="edge">
<title>ds_vis.core.exceptions.CommandError&#45;&gt;ds_vis.core.exceptions.DsVisError</title>
<path fill="none" stroke="black" d="M383.69,-574.04C446.43,-569.76 539.22,-562.14 619.5,-550.38 686.96,-540.49 763.13,-524.49 816.54,-512.46"/>
<polygon fill="none" stroke="black" points="817.12,-515.92 826.1,-510.3 815.57,-509.09 817.12,-515.92"/>
</g>
<!-- ds_vis.core.models.gitgraph.CommitNode -->
<g id="node8" class="node">
<title>ds_vis.core.models.gitgraph.CommitNode</title>
<polygon fill="none" stroke="black" points="151.88,-615.88 151.88,-692.88 467.62,-692.88 467.62,-615.88 151.88,-615.88"/>
<text xml:space="preserve" text-anchor="start" x="159.88" y="-649.7" font-family="Times,serif" font-size="14.00">CommitNode</text>
<polyline fill="none" stroke="black" points="261.62,-615.88 261.62,-692.88"/>
<text xml:space="preserve" text-anchor="start" x="269.62" y="-675.58" font-family="Times,serif" font-size="14.00">branch_labels : List[str]</text>
<text xml:space="preserve" text-anchor="start" x="269.62" y="-658.33" font-family="Times,serif" font-size="14.00">id : str</text>
<text xml:space="preserve" text-anchor="start" x="269.62" y="-641.08" font-family="Times,serif" font-size="14.00">message : str</text>
<text xml:space="preserve" text-anchor="start" x="269.62" y="-623.83" font-family="Times,serif" font-size="14.00">parents : List[str]</text>
<polyline fill="none" stroke="black" points="447.12,-615.88 447.12,-692.88"/>
<text xml:space="preserve" text-anchor="start" x="455.12" y="-649.7" font-family="Times,serif" font-size="14.00"> </text>
</g>
<!-- ds_vis.renderers.pyside6.renderer.EdgeVisual -->
<g id="node10" class="node">
<title>ds_vis.renderers.pyside6.renderer.EdgeVisual</title>
<polygon fill="none" stroke="black" points="89.62,-711.88 89.62,-788.88 529.88,-788.88 529.88,-711.88 89.62,-711.88"/>
<text xml:space="preserve" text-anchor="start" x="97.62" y="-745.7" font-family="Times,serif" font-size="14.00">EdgeVisual</text>
<polyline fill="none" stroke="black" points="185.88,-711.88 185.88,-788.88"/>
<text xml:space="preserve" text-anchor="start" x="193.88" y="-771.58" font-family="Times,serif" font-size="14.00">dst_id : str</text>
<text xml:space="preserve" text-anchor="start" x="193.88" y="-754.33" font-family="Times,serif" font-size="14.00">label : Optional[QGraphicsSimpleTextItem]</text>
<text xml:space="preserve" text-anchor="start" x="193.88" y="-737.08" font-family="Times,serif" font-size="14.00">line</text>
<text xml:space="preserve" text-anchor="start" x="193.88" y="-719.83" font-family="Times,serif" font-size="14.00">src_id : str</text>
<polyline fill="none" stroke="black" points="509.38,-711.88 509.38,-788.88"/>
<text xml:space="preserve" text-anchor="start" x="517.38" y="-745.7" font-family="Times,serif" font-size="14.00"> </text>
</g>
<!-- ds_vis.core.models.gitgraph.GitGraphModel -->
<g id="node11" class="node">
<title>ds_vis.core.models.gitgraph.GitGraphModel</title>
<polygon fill="none" stroke="black" points="0,-808.25 0,-902.5 619.5,-902.5 619.5,-808.25 0,-808.25"/>
<text xml:space="preserve" text-anchor="start" x="8" y="-850.7" font-family="Times,serif" font-size="14.00">GitGraphModel</text>
<polyline fill="none" stroke="black" points="126.25,-808.25 126.25,-902.5"/>
<text xml:space="preserve" text-anchor="start" x="134.25" y="-876.58" font-family="Times,serif" font-size="14.00">branches : Dict[str, str]</text>
<text xml:space="preserve" text-anchor="start" x="134.25" y="-859.33" font-family="Times,serif" font-size="14.00">commits : Dict[str, CommitNode]</text>
<text xml:space="preserve" text-anchor="start" x="134.25" y="-842.08" font-family="Times,serif" font-size="14.00">head : Optional[str]</text>
<text xml:space="preserve" text-anchor="start" x="134.25" y="-824.83" font-family="Times,serif" font-size="14.00">head_ref : Optional[str]</text>
<polyline fill="none" stroke="black" points="377.75,-808.25 377.75,-902.5"/>
<text xml:space="preserve" text-anchor="start" x="385.75" y="-885.2" font-family="Times,serif" font-size="14.00">branch(name: str): Timeline</text>
<text xml:space="preserve" text-anchor="start" x="385.75" y="-867.95" font-family="Times,serif" font-size="14.00">checkout(target: str): Timeline</text>
<text xml:space="preserve" text-anchor="start" x="385.75" y="-850.7" font-family="Times,serif" font-size="14.00">commit(message: str): Timeline</text>
<text xml:space="preserve" text-anchor="start" x="385.75" y="-833.45" font-family="Times,serif" font-size="14.00">init_repo(): Timeline</text>
<text xml:space="preserve" text-anchor="start" x="385.75" y="-816.2" font-family="Times,serif" font-size="14.00">merge(branch: str): Timeline</text>
</g>
<!-- ds_vis.core.layout.LayoutEngine -->
<g id="node12" class="node">
<title>ds_vis.core.layout.LayoutEngine</title>
<polygon fill="none" stroke="black" points="94.25,-921.38 94.25,-957.38 525.25,-957.38 525.25,-921.38 94.25,-921.38"/>
<text xml:space="preserve" text-anchor="start" x="102.25" y="-935.08" font-family="Times,serif" font-size="14.00">LayoutEngine</text>
<polyline fill="none" stroke="black" points="209.25,-922.12 209.25,-957.38"/>
<polyline fill="none" stroke="black" points="209.25,-922.12 209.25,-957.38"/>
<text xml:space="preserve" text-anchor="start" x="217.25" y="-935.08" font-family="Times,serif" font-size="14.00">apply_layout(timeline: Timeline): Timeline</text>
</g>
<!-- ds_vis.core.exceptions.LayoutError -->
<g id="node13" class="node">
<title>ds_vis.core.exceptions.LayoutError</title>
<polygon fill="none" stroke="black" points="247.62,-505.38 247.62,-541.38 371.88,-541.38 371.88,-505.38 247.62,-505.38"/>
<text xml:space="preserve" text-anchor="start" x="255.62" y="-519.08" font-family="Times,serif" font-size="14.00" fill="red">LayoutError</text>
<polyline fill="none" stroke="black" points="351.38,-506.12 351.38,-541.38"/>
<polyline fill="none" stroke="black" points="351.38,-506.12 351.38,-541.38"/>
<text xml:space="preserve" text-anchor="start" x="359.38" y="-519.08" font-family="Times,serif" font-size="14.00" fill="red"> </text>
</g>
<!-- ds_vis.core.exceptions.LayoutError&#45;&gt;ds_vis.core.exceptions.DsVisError -->
<g id="edge2" class="edge">
<title>ds_vis.core.exceptions.LayoutError&#45;&gt;ds_vis.core.exceptions.DsVisError</title>
<path fill="none" stroke="black" d="M372.2,-520.49C480.32,-515.4 703.76,-504.9 816.6,-499.59"/>
<polygon fill="none" stroke="black" points="816.49,-503.1 826.32,-499.13 816.17,-496.11 816.49,-503.1"/>
</g>
<!-- ds_vis.core.models.list_model.ListModel -->
<g id="node14" class="node">
<title>ds_vis.core.models.list_model.ListModel</title>
<polygon fill="none" stroke="black" points="15.38,-976.12 15.38,-1018.62 604.12,-1018.62 604.12,-976.12 15.38,-976.12"/>
<text xml:space="preserve" text-anchor="start" x="23.38" y="-992.7" font-family="Times,serif" font-size="14.00">ListModel</text>
<polyline fill="none" stroke="black" points="102.62,-976.12 102.62,-1018.62"/>
<text xml:space="preserve" text-anchor="start" x="110.62" y="-1001.33" font-family="Times,serif" font-size="14.00">structure_id : str</text>
<text xml:space="preserve" text-anchor="start" x="110.62" y="-984.08" font-family="Times,serif" font-size="14.00">values : List[Any]</text>
<polyline fill="none" stroke="black" points="242.38,-976.12 242.38,-1018.62"/>
<text xml:space="preserve" text-anchor="start" x="250.38" y="-992.7" font-family="Times,serif" font-size="14.00">create(values: Optional[Iterable[Any]]): Timeline</text>
</g>
<!-- ds_vis.ui.main_window.MainWindow -->
<g id="node15" class="node">
<title>ds_vis.ui.main_window.MainWindow</title>
<polygon fill="none" stroke="black" points="245,-1037.38 245,-1073.38 374.5,-1073.38 374.5,-1037.38 245,-1037.38"/>
<text xml:space="preserve" text-anchor="start" x="253" y="-1051.08" font-family="Times,serif" font-size="14.00">MainWindow</text>
<polyline fill="none" stroke="black" points="354,-1038.12 354,-1073.38"/>
<polyline fill="none" stroke="black" points="354,-1038.12 354,-1073.38"/>
<text xml:space="preserve" text-anchor="start" x="362" y="-1051.08" font-family="Times,serif" font-size="14.00"> </text>
</g>
<!-- ds_vis.core.exceptions.ModelError -->
<g id="node16" class="node">
<title>ds_vis.core.exceptions.ModelError</title>
<polygon fill="none" stroke="black" points="249.88,-450.38 249.88,-486.38 369.62,-486.38 369.62,-450.38 249.88,-450.38"/>
<text xml:space="preserve" text-anchor="start" x="257.88" y="-464.07" font-family="Times,serif" font-size="14.00" fill="red">ModelError</text>
<polyline fill="none" stroke="black" points="349.12,-451.12 349.12,-486.38"/>
<polyline fill="none" stroke="black" points="349.12,-451.12 349.12,-486.38"/>
<text xml:space="preserve" text-anchor="start" x="357.12" y="-464.07" font-family="Times,serif" font-size="14.00" fill="red"> </text>
</g>
<!-- ds_vis.core.exceptions.ModelError&#45;&gt;ds_vis.core.exceptions.DsVisError -->
<g id="edge3" class="edge">
<title>ds_vis.core.exceptions.ModelError&#45;&gt;ds_vis.core.exceptions.DsVisError</title>
<path fill="none" stroke="black" d="M370.04,-471.27C477.26,-476.49 702.77,-487.49 816.43,-493.03"/>
<polygon fill="none" stroke="black" points="816.07,-496.52 826.22,-493.51 816.41,-489.53 816.07,-496.52"/>
</g>
<!-- ds_vis.renderers.pyside6.renderer.NodeVisual -->
<g id="node17" class="node">
<title>ds_vis.renderers.pyside6.renderer.NodeVisual</title>
<polygon fill="none" stroke="black" points="89.25,-1092.12 89.25,-1134.62 530.25,-1134.62 530.25,-1092.12 89.25,-1092.12"/>
<text xml:space="preserve" text-anchor="start" x="97.25" y="-1108.7" font-family="Times,serif" font-size="14.00">NodeVisual</text>
<polyline fill="none" stroke="black" points="186.25,-1092.12 186.25,-1134.62"/>
<text xml:space="preserve" text-anchor="start" x="194.25" y="-1117.33" font-family="Times,serif" font-size="14.00">ellipse</text>
<text xml:space="preserve" text-anchor="start" x="194.25" y="-1100.08" font-family="Times,serif" font-size="14.00">label : Optional[QGraphicsSimpleTextItem]</text>
<polyline fill="none" stroke="black" points="509.75,-1092.12 509.75,-1134.62"/>
<text xml:space="preserve" text-anchor="start" x="517.75" y="-1108.7" font-family="Times,serif" font-size="14.00"> </text>
</g>
<!-- ds_vis.renderers.pyside6.renderer.PySide6Renderer -->
<g id="node19" class="node">
<title>ds_vis.renderers.pyside6.renderer.PySide6Renderer</title>
<polygon fill="none" stroke="black" points="81.5,-1153.38 81.5,-1189.38 538,-1189.38 538,-1153.38 81.5,-1153.38"/>
<text xml:space="preserve" text-anchor="start" x="89.5" y="-1167.08" font-family="Times,serif" font-size="14.00">PySide6Renderer</text>
<polyline fill="none" stroke="black" points="222.75,-1154.12 222.75,-1189.38"/>
<polyline fill="none" stroke="black" points="222.75,-1154.12 222.75,-1189.38"/>
<text xml:space="preserve" text-anchor="start" x="230.75" y="-1167.08" font-family="Times,serif" font-size="14.00">render_timeline(timeline: Timeline): None</text>
</g>
<!-- ds_vis.renderers.base.Renderer -->
<g id="node20" class="node">
<title>ds_vis.renderers.base.Renderer</title>
<polygon fill="none" stroke="black" points="687,-1153.38 687,-1189.38 1085,-1189.38 1085,-1153.38 687,-1153.38"/>
<text xml:space="preserve" text-anchor="start" x="695" y="-1167.08" font-family="Times,serif" font-size="14.00">Renderer</text>
<polyline fill="none" stroke="black" points="769.75,-1154.12 769.75,-1189.38"/>
<polyline fill="none" stroke="black" points="769.75,-1154.12 769.75,-1189.38"/>
<text xml:space="preserve" text-anchor="start" x="777.75" y="-1168.08" font-family="Times,serif" font-style="italic" font-size="14.00">render_timeline</text>
<text xml:space="preserve" text-anchor="start" x="891" y="-1168.08" font-family="Times,serif" font-size="14.00">(timeline: Timeline): None</text>
</g>
<!-- ds_vis.renderers.pyside6.renderer.PySide6Renderer&#45;&gt;ds_vis.renderers.base.Renderer -->
<g id="edge5" class="edge">
<title>ds_vis.renderers.pyside6.renderer.PySide6Renderer&#45;&gt;ds_vis.renderers.base.Renderer</title>
<path fill="none" stroke="black" d="M538.12,-1171.38C583.47,-1171.38 630.9,-1171.38 675.61,-1171.38"/>
<polygon fill="none" stroke="black" points="675.4,-1174.88 685.4,-1171.38 675.4,-1167.88 675.4,-1174.88"/>
</g>
<!-- ds_vis.core.exceptions.SceneError -->
<g id="node21" class="node">
<title>ds_vis.core.exceptions.SceneError</title>
<polygon fill="none" stroke="black" points="250.62,-395.38 250.62,-431.38 368.88,-431.38 368.88,-395.38 250.62,-395.38"/>
<text xml:space="preserve" text-anchor="start" x="258.62" y="-409.07" font-family="Times,serif" font-size="14.00" fill="red">SceneError</text>
<polyline fill="none" stroke="black" points="348.38,-396.12 348.38,-431.38"/>
<polyline fill="none" stroke="black" points="348.38,-396.12 348.38,-431.38"/>
<text xml:space="preserve" text-anchor="start" x="356.38" y="-409.07" font-family="Times,serif" font-size="14.00" fill="red"> </text>
</g>
<!-- ds_vis.core.exceptions.SceneError&#45;&gt;ds_vis.core.exceptions.DsVisError -->
<g id="edge4" class="edge">
<title>ds_vis.core.exceptions.SceneError&#45;&gt;ds_vis.core.exceptions.DsVisError</title>
<path fill="none" stroke="black" d="M369.32,-416.39C431.61,-420.08 532.88,-427.5 619.5,-440.38 687.04,-450.41 763.2,-467.04 816.58,-479.57"/>
<polygon fill="none" stroke="black" points="815.6,-482.93 826.14,-481.83 817.22,-476.12 815.6,-482.93"/>
</g>
<!-- ds_vis.core.scene.scene_graph.SceneGraph -->
<g id="node22" class="node">
<title>ds_vis.core.scene.scene_graph.SceneGraph</title>
<polygon fill="none" stroke="black" points="77.38,-1208.38 77.38,-1244.38 542.12,-1244.38 542.12,-1208.38 77.38,-1208.38"/>
<text xml:space="preserve" text-anchor="start" x="85.38" y="-1222.08" font-family="Times,serif" font-size="14.00">SceneGraph</text>
<polyline fill="none" stroke="black" points="180.38,-1209.12 180.38,-1244.38"/>
<polyline fill="none" stroke="black" points="180.38,-1209.12 180.38,-1244.38"/>
<text xml:space="preserve" text-anchor="start" x="188.38" y="-1222.08" font-family="Times,serif" font-size="14.00">apply_command(command: Command): Timeline</text>
</g>
<!-- ds_vis.core.layout.simple.SimpleLayoutEngine -->
<g id="node23" class="node">
<title>ds_vis.core.layout.simple.SimpleLayoutEngine</title>
<polygon fill="none" stroke="black" points="11.62,-1263.5 11.62,-1323.25 607.88,-1323.25 607.88,-1263.5 11.62,-1263.5"/>
<text xml:space="preserve" text-anchor="start" x="19.62" y="-1288.7" font-family="Times,serif" font-size="14.00">SimpleLayoutEngine</text>
<polyline fill="none" stroke="black" points="176.12,-1263.5 176.12,-1323.25"/>
<text xml:space="preserve" text-anchor="start" x="184.12" y="-1305.95" font-family="Times,serif" font-size="14.00">spacing : float</text>
<text xml:space="preserve" text-anchor="start" x="184.12" y="-1288.7" font-family="Times,serif" font-size="14.00">start_x : float</text>
<text xml:space="preserve" text-anchor="start" x="184.12" y="-1271.45" font-family="Times,serif" font-size="14.00">start_y : float</text>
<polyline fill="none" stroke="black" points="291.88,-1263.5 291.88,-1323.25"/>
<text xml:space="preserve" text-anchor="start" x="299.88" y="-1288.7" font-family="Times,serif" font-size="14.00">apply_layout(timeline: Timeline): Timeline</text>
</g>
<!-- ds_vis.core.ops.timeline.Timeline -->
<g id="node24" class="node">
<title>ds_vis.core.ops.timeline.Timeline</title>
<polygon fill="none" stroke="black" points="24.38,-1342.38 24.38,-1378.38 595.12,-1378.38 595.12,-1342.38 24.38,-1342.38"/>
<text xml:space="preserve" text-anchor="start" x="32.38" y="-1356.08" font-family="Times,serif" font-size="14.00">Timeline</text>
<polyline fill="none" stroke="black" points="101.88,-1343.12 101.88,-1378.38"/>
<text xml:space="preserve" text-anchor="start" x="109.88" y="-1356.08" font-family="Times,serif" font-size="14.00">steps : List[AnimationStep]</text>
<polyline fill="none" stroke="black" points="312.88,-1343.12 312.88,-1378.38"/>
<text xml:space="preserve" text-anchor="start" x="320.88" y="-1356.08" font-family="Times,serif" font-size="14.00">add_step(step: AnimationStep): None</text>
</g>
</g>
</svg>
