<?xml version="1.0" encoding="UTF-8" standalone="no"?>
<!DOCTYPE svg PUBLIC "-//W3C//DTD SVG 1.1//EN"
 "http://www.w3.org/Graphics/SVG/1.1/DTD/svg11.dtd">
<!-- Generated by graphviz version 14.1.0 (20251207.0913)
 -->
<!-- Title: classes_ds_vis Pages: 1 -->
<svg width="1656pt" height="1578pt"
 viewBox="0.00 0.00 1656.00 1578.00" xmlns="http://www.w3.org/2000/svg" xmlns:xlink="http://www.w3.org/1999/xlink">
<g id="graph0" class="graph" transform="scale(1 1) rotate(0) translate(4 1573.88)">
<title>classes_ds_vis</title>
<polygon fill="white" stroke="none" points="-4,4 -4,-1573.88 1651.75,-1573.88 1651.75,4 -4,4"/>
<!-- ds_vis.core.ops.ops.AnimationOp -->
<g id="node1" class="node">
<title>ds_vis.core.ops.ops.AnimationOp</title>
<polygon fill="none" stroke="black" points="223.88,-0.5 223.88,-60.25 542.62,-60.25 542.62,-0.5 223.88,-0.5"/>
<text xml:space="preserve" text-anchor="start" x="231.88" y="-25.7" font-family="Times,serif" font-size="14.00">AnimationOp</text>
<polyline fill="none" stroke="black" points="332.88,-0.5 332.88,-60.25"/>
<text xml:space="preserve" text-anchor="start" x="340.88" y="-42.95" font-family="Times,serif" font-size="14.00">data : Mapping[str, Any]</text>
<text xml:space="preserve" text-anchor="start" x="340.88" y="-25.7" font-family="Times,serif" font-size="14.00">op</text>
<text xml:space="preserve" text-anchor="start" x="340.88" y="-8.45" font-family="Times,serif" font-size="14.00">target : Optional[str]</text>
<polyline fill="none" stroke="black" points="522.12,-0.5 522.12,-60.25"/>
<text xml:space="preserve" text-anchor="start" x="530.12" y="-25.7" font-family="Times,serif" font-size="14.00"> </text>
</g>
<!-- ds_vis.core.ops.ops.OpCode -->
<g id="node20" class="node">
<title>ds_vis.core.ops.ops.OpCode</title>
<polygon fill="none" stroke="black" points="1167,-12.38 1167,-48.38 1314.75,-48.38 1314.75,-12.38 1167,-12.38"/>
<text xml:space="preserve" text-anchor="start" x="1175" y="-26.07" font-family="Times,serif" font-size="14.00">OpCode</text>
<polyline fill="none" stroke="black" points="1239.25,-13.12 1239.25,-48.38"/>
<text xml:space="preserve" text-anchor="start" x="1247.25" y="-26.07" font-family="Times,serif" font-size="14.00">name</text>
<polyline fill="none" stroke="black" points="1294.25,-13.12 1294.25,-48.38"/>
<text xml:space="preserve" text-anchor="start" x="1302.25" y="-26.07" font-family="Times,serif" font-size="14.00"> </text>
</g>
<!-- ds_vis.core.ops.ops.AnimationOp&#45;&gt;ds_vis.core.ops.ops.OpCode -->
<g id="edge7" class="edge">
<title>ds_vis.core.ops.ops.AnimationOp&#45;&gt;ds_vis.core.ops.ops.OpCode</title>
<path fill="none" stroke="black" d="M542.68,-30.38C723.83,-30.38 1013.6,-30.38 1155.72,-30.38"/>
<polygon fill="black" stroke="black" points="1165.31,-30.38 1155.31,-34.88 1161.53,-30.38 1155.31,-30.38 1155.31,-30.38 1155.31,-30.38 1161.53,-30.38 1155.31,-25.88 1165.31,-30.38"/>
<text xml:space="preserve" text-anchor="middle" x="800.25" y="-34.33" font-family="Times,serif" font-size="14.00" fill="green">op</text>
</g>
<!-- ds_vis.core.ops.timeline.AnimationStep -->
<g id="node2" class="node">
<title>ds_vis.core.ops.timeline.AnimationStep</title>
<polygon fill="none" stroke="black" points="219.75,-79.5 219.75,-139.25 546.75,-139.25 546.75,-79.5 219.75,-79.5"/>
<text xml:space="preserve" text-anchor="start" x="227.75" y="-104.7" font-family="Times,serif" font-size="14.00">AnimationStep</text>
<polyline fill="none" stroke="black" points="341.5,-79.5 341.5,-139.25"/>
<text xml:space="preserve" text-anchor="start" x="349.5" y="-121.95" font-family="Times,serif" font-size="14.00">duration_ms : int</text>
<text xml:space="preserve" text-anchor="start" x="349.5" y="-104.7" font-family="Times,serif" font-size="14.00">label : Optional[str]</text>
<text xml:space="preserve" text-anchor="start" x="349.5" y="-87.45" font-family="Times,serif" font-size="14.00">ops : List[AnimationOp]</text>
<polyline fill="none" stroke="black" points="526.25,-79.5 526.25,-139.25"/>
<text xml:space="preserve" text-anchor="start" x="534.25" y="-104.7" font-family="Times,serif" font-size="14.00"> </text>
</g>
<!-- ds_vis.core.models.base.BaseModel -->
<g id="node3" class="node">
<title>ds_vis.core.models.base.BaseModel</title>
<polygon fill="none" stroke="black" points="834,-175.88 834,-252.88 1647.75,-252.88 1647.75,-175.88 834,-175.88"/>
<text xml:space="preserve" text-anchor="start" x="842" y="-209.7" font-family="Times,serif" font-size="14.00">BaseModel</text>
<polyline fill="none" stroke="black" points="928.75,-175.88 928.75,-252.88"/>
<text xml:space="preserve" text-anchor="start" x="936.75" y="-235.57" font-family="Times,serif" font-size="14.00">id_allocator : Optional[IdAllocator]</text>
<text xml:space="preserve" text-anchor="start" x="936.75" y="-218.32" font-family="Times,serif" font-size="14.00">kind : str</text>
<text xml:space="preserve" text-anchor="start" x="936.75" y="-201.07" font-family="Times,serif" font-size="14.00">node_count : int</text>
<text xml:space="preserve" text-anchor="start" x="936.75" y="-183.82" font-family="Times,serif" font-size="14.00">structure_id : str</text>
<polyline fill="none" stroke="black" points="1190,-175.88 1190,-252.88"/>
<text xml:space="preserve" text-anchor="start" x="1198" y="-223.07" font-family="Times,serif" font-size="14.00">allocate_node_id(prefix: str): str</text>
<text xml:space="preserve" text-anchor="start" x="1198" y="-209.07" font-family="Times,serif" font-style="italic" font-size="14.00">apply_operation</text>
<text xml:space="preserve" text-anchor="start" x="1312" y="-209.07" font-family="Times,serif" font-size="14.00">(op: str, payload: Mapping[str, Any]): Timeline</text>
<text xml:space="preserve" text-anchor="start" x="1198" y="-195.07" font-family="Times,serif" font-size="14.00">edge_id(edge_kind: str, src: str, dst: str): str</text>
</g>
<!-- ds_vis.core.models.bst.BstModel -->
<g id="node4" class="node">
<title>ds_vis.core.models.bst.BstModel</title>
<polygon fill="none" stroke="black" points="146.62,-289.5 146.62,-349.25 619.88,-349.25 619.88,-289.5 146.62,-289.5"/>
<text xml:space="preserve" text-anchor="start" x="154.62" y="-314.7" font-family="Times,serif" font-size="14.00">BstModel</text>
<polyline fill="none" stroke="black" points="230.88,-289.5 230.88,-349.25"/>
<text xml:space="preserve" text-anchor="start" x="238.88" y="-314.7" font-family="Times,serif" font-size="14.00">root : Optional[BstNode]</text>
<polyline fill="none" stroke="black" points="422.38,-289.5 422.38,-349.25"/>
<text xml:space="preserve" text-anchor="start" x="430.38" y="-331.95" font-family="Times,serif" font-size="14.00">delete(key: int): Timeline</text>
<text xml:space="preserve" text-anchor="start" x="430.38" y="-314.7" font-family="Times,serif" font-size="14.00">insert(key: int): Timeline</text>
<text xml:space="preserve" text-anchor="start" x="430.38" y="-297.45" font-family="Times,serif" font-size="14.00">search(key: int): Timeline</text>
</g>
<!-- ds_vis.core.models.bst.BstNode -->
<g id="node5" class="node">
<title>ds_vis.core.models.bst.BstNode</title>
<polygon fill="none" stroke="black" points="231.75,-368.5 231.75,-428.25 534.75,-428.25 534.75,-368.5 231.75,-368.5"/>
<text xml:space="preserve" text-anchor="start" x="239.75" y="-393.7" font-family="Times,serif" font-size="14.00">BstNode</text>
<polyline fill="none" stroke="black" points="309.25,-368.5 309.25,-428.25"/>
<text xml:space="preserve" text-anchor="start" x="317.25" y="-410.95" font-family="Times,serif" font-size="14.00">key : int</text>
<text xml:space="preserve" text-anchor="start" x="317.25" y="-393.7" font-family="Times,serif" font-size="14.00">left : Optional[&#39;BstNode&#39;]</text>
<text xml:space="preserve" text-anchor="start" x="317.25" y="-376.45" font-family="Times,serif" font-size="14.00">right : Optional[&#39;BstNode&#39;]</text>
<polyline fill="none" stroke="black" points="514.25,-368.5 514.25,-428.25"/>
<text xml:space="preserve" text-anchor="start" x="522.25" y="-393.7" font-family="Times,serif" font-size="14.00"> </text>
</g>
<!-- ds_vis.core.scene.command.Command -->
<g id="node6" class="node">
<title>ds_vis.core.scene.command.Command</title>
<polygon fill="none" stroke="black" points="222.38,-447.5 222.38,-507.25 544.12,-507.25 544.12,-447.5 222.38,-447.5"/>
<text xml:space="preserve" text-anchor="start" x="230.38" y="-472.7" font-family="Times,serif" font-size="14.00">Command</text>
<polyline fill="none" stroke="black" points="310.38,-447.5 310.38,-507.25"/>
<text xml:space="preserve" text-anchor="start" x="318.38" y="-489.95" font-family="Times,serif" font-size="14.00">payload : Mapping[str, Any]</text>
<text xml:space="preserve" text-anchor="start" x="318.38" y="-472.7" font-family="Times,serif" font-size="14.00">structure_id : str</text>
<text xml:space="preserve" text-anchor="start" x="318.38" y="-455.45" font-family="Times,serif" font-size="14.00">type</text>
<polyline fill="none" stroke="black" points="523.62,-447.5 523.62,-507.25"/>
<text xml:space="preserve" text-anchor="start" x="531.62" y="-472.7" font-family="Times,serif" font-size="14.00"> </text>
</g>
<!-- ds_vis.core.scene.command.CommandType -->
<g id="node9" class="node">
<title>ds_vis.core.scene.command.CommandType</title>
<polygon fill="none" stroke="black" points="1141.88,-459.38 1141.88,-495.38 1339.88,-495.38 1339.88,-459.38 1141.88,-459.38"/>
<text xml:space="preserve" text-anchor="start" x="1149.88" y="-473.07" font-family="Times,serif" font-size="14.00">CommandType</text>
<polyline fill="none" stroke="black" points="1264.38,-460.12 1264.38,-495.38"/>
<text xml:space="preserve" text-anchor="start" x="1272.38" y="-473.07" font-family="Times,serif" font-size="14.00">name</text>
<polyline fill="none" stroke="black" points="1319.38,-460.12 1319.38,-495.38"/>
<text xml:space="preserve" text-anchor="start" x="1327.38" y="-473.07" font-family="Times,serif" font-size="14.00"> </text>
</g>
<!-- ds_vis.core.scene.command.Command&#45;&gt;ds_vis.core.scene.command.CommandType -->
<g id="edge8" class="edge">
<title>ds_vis.core.scene.command.Command&#45;&gt;ds_vis.core.scene.command.CommandType</title>
<path fill="none" stroke="black" d="M544.43,-477.38C715.53,-477.38 982.06,-477.38 1130.56,-477.38"/>
<polygon fill="black" stroke="black" points="1140.26,-477.38 1130.26,-481.88 1136.48,-477.38 1130.26,-477.38 1130.26,-477.38 1130.26,-477.38 1136.48,-477.38 1130.26,-472.88 1140.26,-477.38"/>
<text xml:space="preserve" text-anchor="middle" x="800.25" y="-481.32" font-family="Times,serif" font-size="14.00" fill="green">type</text>
</g>
<!-- ds_vis.core.exceptions.CommandError -->
<g id="node7" class="node">
<title>ds_vis.core.exceptions.CommandError</title>
<polygon fill="none" stroke="black" points="309.5,-691.38 309.5,-727.38 457,-727.38 457,-691.38 309.5,-691.38"/>
<text xml:space="preserve" text-anchor="start" x="317.5" y="-705.08" font-family="Times,serif" font-size="14.00" fill="red">CommandError</text>
<polyline fill="none" stroke="black" points="436.5,-692.12 436.5,-727.38"/>
<polyline fill="none" stroke="black" points="436.5,-692.12 436.5,-727.38"/>
<text xml:space="preserve" text-anchor="start" x="444.5" y="-705.08" font-family="Times,serif" font-size="14.00" fill="red"> </text>
</g>
<!-- ds_vis.core.exceptions.DsVisError -->
<g id="node11" class="node">
<title>ds_vis.core.exceptions.DsVisError</title>
<polygon fill="none" stroke="black" points="1182.88,-609.38 1182.88,-645.38 1298.88,-645.38 1298.88,-609.38 1182.88,-609.38"/>
<text xml:space="preserve" text-anchor="start" x="1190.88" y="-623.08" font-family="Times,serif" font-size="14.00" fill="red">DsVisError</text>
<polyline fill="none" stroke="black" points="1278.38,-610.12 1278.38,-645.38"/>
<polyline fill="none" stroke="black" points="1278.38,-610.12 1278.38,-645.38"/>
<text xml:space="preserve" text-anchor="start" x="1286.38" y="-623.08" font-family="Times,serif" font-size="14.00" fill="red"> </text>
</g>
<!-- ds_vis.core.exceptions.CommandError&#45;&gt;ds_vis.core.exceptions.DsVisError -->
<g id="edge1" class="edge">
<title>ds_vis.core.exceptions.CommandError&#45;&gt;ds_vis.core.exceptions.DsVisError</title>
<path fill="none" stroke="black" d="M457.25,-704.91C534.22,-699.99 659.01,-691.44 766.5,-681.38 910.64,-667.88 1078.94,-647.6 1171,-636.12"/>
<polygon fill="none" stroke="black" points="1171.4,-639.59 1180.88,-634.88 1170.53,-632.65 1171.4,-639.59"/>
</g>
<!-- ds_vis.core.scene.command_schema.CommandSchema -->
<g id="node8" class="node">
<title>ds_vis.core.scene.command_schema.CommandSchema</title>
<polygon fill="none" stroke="black" points="0,-746.88 0,-823.88 766.5,-823.88 766.5,-746.88 0,-746.88"/>
<text xml:space="preserve" text-anchor="start" x="8" y="-780.7" font-family="Times,serif" font-size="14.00">CommandSchema</text>
<polyline fill="none" stroke="black" points="144.25,-746.88 144.25,-823.88"/>
<text xml:space="preserve" text-anchor="start" x="152.25" y="-806.58" font-family="Times,serif" font-size="14.00">allow_extra : bool</text>
<text xml:space="preserve" text-anchor="start" x="152.25" y="-789.33" font-family="Times,serif" font-size="14.00">optional : Dict[str, Tuple[Type[Any], ...]]</text>
<text xml:space="preserve" text-anchor="start" x="152.25" y="-772.08" font-family="Times,serif" font-size="14.00">required : Dict[str, Type[Any]]</text>
<text xml:space="preserve" text-anchor="start" x="152.25" y="-754.83" font-family="Times,serif" font-size="14.00">validators : Tuple[Validator, ...]</text>
<polyline fill="none" stroke="black" points="443.75,-746.88 443.75,-823.88"/>
<text xml:space="preserve" text-anchor="start" x="451.75" y="-780.7" font-family="Times,serif" font-size="14.00">validate(payload: Mapping[str, Any]): None</text>
</g>
<!-- ds_vis.core.models.gitgraph.CommitNode -->
<g id="node10" class="node">
<title>ds_vis.core.models.gitgraph.CommitNode</title>
<polygon fill="none" stroke="black" points="225.38,-842.88 225.38,-919.88 541.12,-919.88 541.12,-842.88 225.38,-842.88"/>
<text xml:space="preserve" text-anchor="start" x="233.38" y="-876.7" font-family="Times,serif" font-size="14.00">CommitNode</text>
<polyline fill="none" stroke="black" points="335.12,-842.88 335.12,-919.88"/>
<text xml:space="preserve" text-anchor="start" x="343.12" y="-902.58" font-family="Times,serif" font-size="14.00">branch_labels : List[str]</text>
<text xml:space="preserve" text-anchor="start" x="343.12" y="-885.33" font-family="Times,serif" font-size="14.00">id : str</text>
<text xml:space="preserve" text-anchor="start" x="343.12" y="-868.08" font-family="Times,serif" font-size="14.00">message : str</text>
<text xml:space="preserve" text-anchor="start" x="343.12" y="-850.83" font-family="Times,serif" font-size="14.00">parents : List[str]</text>
<polyline fill="none" stroke="black" points="520.62,-842.88 520.62,-919.88"/>
<text xml:space="preserve" text-anchor="start" x="528.62" y="-876.7" font-family="Times,serif" font-size="14.00"> </text>
</g>
<!-- ds_vis.renderers.pyside6.renderer.EdgeVisual -->
<g id="node12" class="node">
<title>ds_vis.renderers.pyside6.renderer.EdgeVisual</title>
<polygon fill="none" stroke="black" points="163.12,-938.88 163.12,-1015.88 603.38,-1015.88 603.38,-938.88 163.12,-938.88"/>
<text xml:space="preserve" text-anchor="start" x="171.12" y="-972.7" font-family="Times,serif" font-size="14.00">EdgeVisual</text>
<polyline fill="none" stroke="black" points="259.38,-938.88 259.38,-1015.88"/>
<text xml:space="preserve" text-anchor="start" x="267.38" y="-998.58" font-family="Times,serif" font-size="14.00">dst_id : str</text>
<text xml:space="preserve" text-anchor="start" x="267.38" y="-981.33" font-family="Times,serif" font-size="14.00">label : Optional[QGraphicsSimpleTextItem]</text>
<text xml:space="preserve" text-anchor="start" x="267.38" y="-964.08" font-family="Times,serif" font-size="14.00">line</text>
<text xml:space="preserve" text-anchor="start" x="267.38" y="-946.83" font-family="Times,serif" font-size="14.00">src_id : str</text>
<polyline fill="none" stroke="black" points="582.88,-938.88 582.88,-1015.88"/>
<text xml:space="preserve" text-anchor="start" x="590.88" y="-972.7" font-family="Times,serif" font-size="14.00"> </text>
</g>
<!-- ds_vis.core.models.gitgraph.GitGraphModel -->
<g id="node13" class="node">
<title>ds_vis.core.models.gitgraph.GitGraphModel</title>
<polygon fill="none" stroke="black" points="73.5,-1035.25 73.5,-1129.5 693,-1129.5 693,-1035.25 73.5,-1035.25"/>
<text xml:space="preserve" text-anchor="start" x="81.5" y="-1077.7" font-family="Times,serif" font-size="14.00">GitGraphModel</text>
<polyline fill="none" stroke="black" points="199.75,-1035.25 199.75,-1129.5"/>
<text xml:space="preserve" text-anchor="start" x="207.75" y="-1103.58" font-family="Times,serif" font-size="14.00">branches : Dict[str, str]</text>
<text xml:space="preserve" text-anchor="start" x="207.75" y="-1086.33" font-family="Times,serif" font-size="14.00">commits : Dict[str, CommitNode]</text>
<text xml:space="preserve" text-anchor="start" x="207.75" y="-1069.08" font-family="Times,serif" font-size="14.00">head : Optional[str]</text>
<text xml:space="preserve" text-anchor="start" x="207.75" y="-1051.83" font-family="Times,serif" font-size="14.00">head_ref : Optional[str]</text>
<polyline fill="none" stroke="black" points="451.25,-1035.25 451.25,-1129.5"/>
<text xml:space="preserve" text-anchor="start" x="459.25" y="-1112.2" font-family="Times,serif" font-size="14.00">branch(name: str): Timeline</text>
<text xml:space="preserve" text-anchor="start" x="459.25" y="-1094.95" font-family="Times,serif" font-size="14.00">checkout(target: str): Timeline</text>
<text xml:space="preserve" text-anchor="start" x="459.25" y="-1077.7" font-family="Times,serif" font-size="14.00">commit(message: str): Timeline</text>
<text xml:space="preserve" text-anchor="start" x="459.25" y="-1060.45" font-family="Times,serif" font-size="14.00">init_repo(): Timeline</text>
<text xml:space="preserve" text-anchor="start" x="459.25" y="-1043.2" font-family="Times,serif" font-size="14.00">merge(branch: str): Timeline</text>
</g>
<!-- ds_vis.core.layout.LayoutEngine -->
<g id="node14" class="node">
<title>ds_vis.core.layout.LayoutEngine</title>
<polygon fill="none" stroke="black" points="167.75,-1148.38 167.75,-1184.38 598.75,-1184.38 598.75,-1148.38 167.75,-1148.38"/>
<text xml:space="preserve" text-anchor="start" x="175.75" y="-1162.08" font-family="Times,serif" font-size="14.00">LayoutEngine</text>
<polyline fill="none" stroke="black" points="282.75,-1149.12 282.75,-1184.38"/>
<polyline fill="none" stroke="black" points="282.75,-1149.12 282.75,-1184.38"/>
<text xml:space="preserve" text-anchor="start" x="290.75" y="-1162.08" font-family="Times,serif" font-size="14.00">apply_layout(timeline: Timeline): Timeline</text>
</g>
<!-- ds_vis.core.exceptions.LayoutError -->
<g id="node15" class="node">
<title>ds_vis.core.exceptions.LayoutError</title>
<polygon fill="none" stroke="black" points="321.12,-636.38 321.12,-672.38 445.38,-672.38 445.38,-636.38 321.12,-636.38"/>
<text xml:space="preserve" text-anchor="start" x="329.12" y="-650.08" font-family="Times,serif" font-size="14.00" fill="red">LayoutError</text>
<polyline fill="none" stroke="black" points="424.88,-637.12 424.88,-672.38"/>
<polyline fill="none" stroke="black" points="424.88,-637.12 424.88,-672.38"/>
<text xml:space="preserve" text-anchor="start" x="432.88" y="-650.08" font-family="Times,serif" font-size="14.00" fill="red"> </text>
</g>
<!-- ds_vis.core.exceptions.LayoutError&#45;&gt;ds_vis.core.exceptions.DsVisError -->
<g id="edge2" class="edge">
<title>ds_vis.core.exceptions.LayoutError&#45;&gt;ds_vis.core.exceptions.DsVisError</title>
<path fill="none" stroke="black" d="M445.78,-652.43C601.17,-647.53 1008.55,-634.67 1171.28,-629.54"/>
<polygon fill="none" stroke="black" points="1171.17,-633.04 1181.06,-629.23 1170.95,-626.05 1171.17,-633.04"/>
</g>
<!-- ds_vis.core.models.list_model.ListModel -->
<g id="node16" class="node">
<title>ds_vis.core.models.list_model.ListModel</title>
<polygon fill="none" stroke="black" points="40.88,-158.62 40.88,-270.12 725.62,-270.12 725.62,-158.62 40.88,-158.62"/>
<text xml:space="preserve" text-anchor="start" x="48.88" y="-209.7" font-family="Times,serif" font-size="14.00">ListModel</text>
<polyline fill="none" stroke="black" points="128.12,-158.62 128.12,-270.12"/>
<text xml:space="preserve" text-anchor="start" x="136.12" y="-226.95" font-family="Times,serif" font-size="14.00">kind : str</text>
<text xml:space="preserve" text-anchor="start" x="136.12" y="-209.7" font-family="Times,serif" font-size="14.00">node_count : int</text>
<text xml:space="preserve" text-anchor="start" x="136.12" y="-192.45" font-family="Times,serif" font-size="14.00">values : List[Any]</text>
<polyline fill="none" stroke="black" points="267.88,-158.62 267.88,-270.12"/>
<text xml:space="preserve" text-anchor="start" x="275.88" y="-252.82" font-family="Times,serif" font-size="14.00">apply_operation(op: str, payload: Mapping[str, Any]): Timeline</text>
<text xml:space="preserve" text-anchor="start" x="275.88" y="-235.57" font-family="Times,serif" font-size="14.00">create(values: Optional[Iterable[Any]]): Timeline</text>
<text xml:space="preserve" text-anchor="start" x="275.88" y="-218.32" font-family="Times,serif" font-size="14.00">delete_all(): Timeline</text>
<text xml:space="preserve" text-anchor="start" x="275.88" y="-201.07" font-family="Times,serif" font-size="14.00">delete_index(index: int): Timeline</text>
<text xml:space="preserve" text-anchor="start" x="275.88" y="-183.82" font-family="Times,serif" font-size="14.00">insert(index: int, value: Any): Timeline</text>
<text xml:space="preserve" text-anchor="start" x="275.88" y="-166.57" font-family="Times,serif" font-size="14.00">recreate(values: Optional[Iterable[Any]]): Timeline</text>
</g>
<!-- ds_vis.core.models.list_model.ListModel&#45;&gt;ds_vis.core.models.base.BaseModel -->
<g id="edge5" class="edge">
<title>ds_vis.core.models.list_model.ListModel&#45;&gt;ds_vis.core.models.base.BaseModel</title>
<path fill="none" stroke="black" d="M726.1,-214.38C757.75,-214.38 790.05,-214.38 822.27,-214.38"/>
<polygon fill="none" stroke="black" points="822.15,-217.88 832.15,-214.38 822.15,-210.88 822.15,-217.88"/>
</g>
<!-- ds_vis.ui.main_window.MainWindow -->
<g id="node17" class="node">
<title>ds_vis.ui.main_window.MainWindow</title>
<polygon fill="none" stroke="black" points="318.5,-1203.38 318.5,-1239.38 448,-1239.38 448,-1203.38 318.5,-1203.38"/>
<text xml:space="preserve" text-anchor="start" x="326.5" y="-1217.08" font-family="Times,serif" font-size="14.00">MainWindow</text>
<polyline fill="none" stroke="black" points="427.5,-1204.12 427.5,-1239.38"/>
<polyline fill="none" stroke="black" points="427.5,-1204.12 427.5,-1239.38"/>
<text xml:space="preserve" text-anchor="start" x="435.5" y="-1217.08" font-family="Times,serif" font-size="14.00"> </text>
</g>
<!-- ds_vis.core.exceptions.ModelError -->
<g id="node18" class="node">
<title>ds_vis.core.exceptions.ModelError</title>
<polygon fill="none" stroke="black" points="323.38,-581.38 323.38,-617.38 443.12,-617.38 443.12,-581.38 323.38,-581.38"/>
<text xml:space="preserve" text-anchor="start" x="331.38" y="-595.08" font-family="Times,serif" font-size="14.00" fill="red">ModelError</text>
<polyline fill="none" stroke="black" points="422.62,-582.12 422.62,-617.38"/>
<polyline fill="none" stroke="black" points="422.62,-582.12 422.62,-617.38"/>
<text xml:space="preserve" text-anchor="start" x="430.62" y="-595.08" font-family="Times,serif" font-size="14.00" fill="red"> </text>
</g>
<!-- ds_vis.core.exceptions.ModelError&#45;&gt;ds_vis.core.exceptions.DsVisError -->
<g id="edge3" class="edge">
<title>ds_vis.core.exceptions.ModelError&#45;&gt;ds_vis.core.exceptions.DsVisError</title>
<path fill="none" stroke="black" d="M443.4,-601.31C596.89,-606.33 1007.33,-619.77 1171.05,-625.12"/>
<polygon fill="none" stroke="black" points="1170.79,-628.62 1180.9,-625.44 1171.02,-621.62 1170.79,-628.62"/>
</g>
<!-- ds_vis.renderers.pyside6.renderer.NodeVisual -->
<g id="node19" class="node">
<title>ds_vis.renderers.pyside6.renderer.NodeVisual</title>
<polygon fill="none" stroke="black" points="162.75,-1258.12 162.75,-1300.62 603.75,-1300.62 603.75,-1258.12 162.75,-1258.12"/>
<text xml:space="preserve" text-anchor="start" x="170.75" y="-1274.7" font-family="Times,serif" font-size="14.00">NodeVisual</text>
<polyline fill="none" stroke="black" points="259.75,-1258.12 259.75,-1300.62"/>
<text xml:space="preserve" text-anchor="start" x="267.75" y="-1283.33" font-family="Times,serif" font-size="14.00">ellipse</text>
<text xml:space="preserve" text-anchor="start" x="267.75" y="-1266.08" font-family="Times,serif" font-size="14.00">label : Optional[QGraphicsSimpleTextItem]</text>
<polyline fill="none" stroke="black" points="583.25,-1258.12 583.25,-1300.62"/>
<text xml:space="preserve" text-anchor="start" x="591.25" y="-1274.7" font-family="Times,serif" font-size="14.00"> </text>
</g>
<!-- ds_vis.renderers.pyside6.renderer.PySide6Renderer -->
<g id="node21" class="node">
<title>ds_vis.renderers.pyside6.renderer.PySide6Renderer</title>
<polygon fill="none" stroke="black" points="155,-1320.12 155,-1362.62 611.5,-1362.62 611.5,-1320.12 155,-1320.12"/>
<text xml:space="preserve" text-anchor="start" x="163" y="-1336.7" font-family="Times,serif" font-size="14.00">PySide6Renderer</text>
<polyline fill="none" stroke="black" points="296.25,-1320.12 296.25,-1362.62"/>
<polyline fill="none" stroke="black" points="296.25,-1320.12 296.25,-1362.62"/>
<text xml:space="preserve" text-anchor="start" x="304.25" y="-1345.33" font-family="Times,serif" font-size="14.00">apply_step(step: AnimationStep): None</text>
<text xml:space="preserve" text-anchor="start" x="304.25" y="-1328.08" font-family="Times,serif" font-size="14.00">render_timeline(timeline: Timeline): None</text>
</g>
<!-- ds_vis.renderers.base.Renderer -->
<g id="node22" class="node">
<title>ds_vis.renderers.base.Renderer</title>
<polygon fill="none" stroke="black" points="1041.88,-1323.38 1041.88,-1359.38 1439.88,-1359.38 1439.88,-1323.38 1041.88,-1323.38"/>
<text xml:space="preserve" text-anchor="start" x="1049.88" y="-1336.7" font-family="Times,serif" font-size="14.00">Renderer</text>
<polyline fill="none" stroke="black" points="1124.62,-1323.38 1124.62,-1359.38"/>
<polyline fill="none" stroke="black" points="1124.62,-1323.38 1124.62,-1359.38"/>
<text xml:space="preserve" text-anchor="start" x="1132.62" y="-1343.08" font-family="Times,serif" font-style="italic" font-size="14.00">apply_step</text>
<text xml:space="preserve" text-anchor="start" x="1209.12" y="-1343.08" font-family="Times,serif" font-size="14.00">(step: AnimationStep): None</text>
<text xml:space="preserve" text-anchor="start" x="1132.62" y="-1329.08" font-family="Times,serif" font-style="italic" font-size="14.00">render_timeline</text>
<text xml:space="preserve" text-anchor="start" x="1245.88" y="-1329.08" font-family="Times,serif" font-size="14.00">(timeline: Timeline): None</text>
</g>
<!-- ds_vis.renderers.pyside6.renderer.PySide6Renderer&#45;&gt;ds_vis.renderers.base.Renderer -->
<g id="edge6" class="edge">
<title>ds_vis.renderers.pyside6.renderer.PySide6Renderer&#45;&gt;ds_vis.renderers.base.Renderer</title>
<path fill="none" stroke="black" d="M611.86,-1341.38C741.73,-1341.38 903.38,-1341.38 1030.16,-1341.38"/>
<polygon fill="none" stroke="black" points="1030.03,-1344.88 1040.03,-1341.38 1030.03,-1337.88 1030.03,-1344.88"/>
</g>
<!-- ds_vis.core.exceptions.SceneError -->
<g id="node23" class="node">
<title>ds_vis.core.exceptions.SceneError</title>
<polygon fill="none" stroke="black" points="324.12,-526.38 324.12,-562.38 442.38,-562.38 442.38,-526.38 324.12,-526.38"/>
<text xml:space="preserve" text-anchor="start" x="332.12" y="-540.08" font-family="Times,serif" font-size="14.00" fill="red">SceneError</text>
<polyline fill="none" stroke="black" points="421.88,-527.12 421.88,-562.38"/>
<polyline fill="none" stroke="black" points="421.88,-527.12 421.88,-562.38"/>
<text xml:space="preserve" text-anchor="start" x="429.88" y="-540.08" font-family="Times,serif" font-size="14.00" fill="red"> </text>
</g>
<!-- ds_vis.core.exceptions.SceneError&#45;&gt;ds_vis.core.exceptions.DsVisError -->
<g id="edge4" class="edge">
<title>ds_vis.core.exceptions.SceneError&#45;&gt;ds_vis.core.exceptions.DsVisError</title>
<path fill="none" stroke="black" d="M442.6,-547.64C517.63,-552.03 651.92,-560.56 766.5,-571.38 910.69,-584.99 1078.98,-606.16 1171.02,-618.2"/>
<polygon fill="none" stroke="black" points="1170.53,-621.66 1180.9,-619.49 1171.44,-614.72 1170.53,-621.66"/>
</g>
<!-- ds_vis.core.scene.scene_graph.SceneGraph -->
<g id="node24" class="node">
<title>ds_vis.core.scene.scene_graph.SceneGraph</title>
<polygon fill="none" stroke="black" points="150.88,-1381.38 150.88,-1417.38 615.62,-1417.38 615.62,-1381.38 150.88,-1381.38"/>
<text xml:space="preserve" text-anchor="start" x="158.88" y="-1395.08" font-family="Times,serif" font-size="14.00">SceneGraph</text>
<polyline fill="none" stroke="black" points="253.88,-1382.12 253.88,-1417.38"/>
<polyline fill="none" stroke="black" points="253.88,-1382.12 253.88,-1417.38"/>
<text xml:space="preserve" text-anchor="start" x="261.88" y="-1395.08" font-family="Times,serif" font-size="14.00">apply_command(command: Command): Timeline</text>
</g>
<!-- ds_vis.core.layout.simple.SimpleLayoutEngine -->
<g id="node25" class="node">
<title>ds_vis.core.layout.simple.SimpleLayoutEngine</title>
<polygon fill="none" stroke="black" points="68.25,-1436.88 68.25,-1513.88 698.25,-1513.88 698.25,-1436.88 68.25,-1436.88"/>
<text xml:space="preserve" text-anchor="start" x="76.25" y="-1470.7" font-family="Times,serif" font-size="14.00">SimpleLayoutEngine</text>
<polyline fill="none" stroke="black" points="232.75,-1436.88 232.75,-1513.88"/>
<text xml:space="preserve" text-anchor="start" x="240.75" y="-1496.58" font-family="Times,serif" font-size="14.00">row_spacing : float</text>
<text xml:space="preserve" text-anchor="start" x="240.75" y="-1479.33" font-family="Times,serif" font-size="14.00">spacing : float</text>
<text xml:space="preserve" text-anchor="start" x="240.75" y="-1462.08" font-family="Times,serif" font-size="14.00">start_x : float</text>
<text xml:space="preserve" text-anchor="start" x="240.75" y="-1444.83" font-family="Times,serif" font-size="14.00">start_y : float</text>
<polyline fill="none" stroke="black" points="382.25,-1436.88 382.25,-1513.88"/>
<text xml:space="preserve" text-anchor="start" x="390.25" y="-1470.7" font-family="Times,serif" font-size="14.00">apply_layout(timeline: Timeline): Timeline</text>
</g>
<!-- ds_vis.core.ops.timeline.Timeline -->
<g id="node26" class="node">
<title>ds_vis.core.ops.timeline.Timeline</title>
<polygon fill="none" stroke="black" points="97.88,-1533.38 97.88,-1569.38 668.62,-1569.38 668.62,-1533.38 97.88,-1533.38"/>
<text xml:space="preserve" text-anchor="start" x="105.88" y="-1547.08" font-family="Times,serif" font-size="14.00">Timeline</text>
<polyline fill="none" stroke="black" points="175.38,-1534.12 175.38,-1569.38"/>
<text xml:space="preserve" text-anchor="start" x="183.38" y="-1547.08" font-family="Times,serif" font-size="14.00">steps : List[AnimationStep]</text>
<polyline fill="none" stroke="black" points="386.38,-1534.12 386.38,-1569.38"/>
<text xml:space="preserve" text-anchor="start" x="394.38" y="-1547.08" font-family="Times,serif" font-size="14.00">add_step(step: AnimationStep): None</text>
</g>
</g>
</svg>
