<?xml version="1.0" encoding="UTF-8" standalone="no"?>
<!DOCTYPE svg PUBLIC "-//W3C//DTD SVG 1.1//EN"
 "http://www.w3.org/Graphics/SVG/1.1/DTD/svg11.dtd">
<!-- Generated by graphviz version 14.1.0 (20251207.0913)
 -->
<!-- Title: packages_ds_vis Pages: 1 -->
<svg width="2016pt" height="620pt"
 viewBox="0.00 0.00 2016.00 620.00" xmlns="http://www.w3.org/2000/svg" xmlns:xlink="http://www.w3.org/1999/xlink">
<g id="graph0" class="graph" transform="scale(1 1) rotate(0) translate(4 616)">
<title>packages_ds_vis</title>
<polygon fill="white" stroke="none" points="-4,4 -4,-616 2012.38,-616 2012.38,4 -4,4"/>
<!-- ds_vis -->
<g id="node1" class="node">
<title>ds_vis</title>
<polygon fill="none" stroke="black" points="1235.38,-36 1175.88,-36 1175.88,0 1235.38,0 1235.38,-36"/>
<text xml:space="preserve" text-anchor="start" x="1183.88" y="-13.32" font-family="Times,serif" font-size="14.00">ds_vis</text>
</g>
<!-- ds_vis.core -->
<g id="node2" class="node">
<title>ds_vis.core</title>
<polygon fill="none" stroke="black" points="926,-324 831.25,-324 831.25,-288 926,-288 926,-324"/>
<text xml:space="preserve" text-anchor="start" x="839.25" y="-301.32" font-family="Times,serif" font-size="14.00">ds_vis.core</text>
</g>
<!-- ds_vis.core.exceptions -->
<g id="node3" class="node">
<title>ds_vis.core.exceptions</title>
<polygon fill="none" stroke="black" points="925.5,-396 749.75,-396 749.75,-360 925.5,-360 925.5,-396"/>
<text xml:space="preserve" text-anchor="start" x="757.75" y="-373.32" font-family="Times,serif" font-size="14.00">ds_vis.core.exceptions</text>
</g>
<!-- ds_vis.core&#45;&gt;ds_vis.core.exceptions -->
<g id="edge1" class="edge">
<title>ds_vis.core&#45;&gt;ds_vis.core.exceptions</title>
<path fill="none" stroke="black" d="M868.49,-324.3C863.87,-332.19 858.3,-341.7 853.17,-350.45"/>
<polygon fill="black" stroke="black" points="848.26,-358.84 849.43,-347.94 850.17,-355.58 853.31,-350.22 853.31,-350.22 853.31,-350.22 850.17,-355.58 857.2,-352.49 848.26,-358.84"/>
</g>
<!-- ds_vis.core.layout -->
<g id="node4" class="node">
<title>ds_vis.core.layout</title>
<polygon fill="none" stroke="black" points="453.38,-324 309.88,-324 309.88,-288 453.38,-288 453.38,-324"/>
<text xml:space="preserve" text-anchor="start" x="317.88" y="-301.32" font-family="Times,serif" font-size="14.00">ds_vis.core.layout</text>
</g>
<!-- ds_vis.core.ops -->
<g id="node11" class="node">
<title>ds_vis.core.ops</title>
<polygon fill="none" stroke="black" points="722.62,-468 598.62,-468 598.62,-432 722.62,-432 722.62,-468"/>
<text xml:space="preserve" text-anchor="start" x="606.62" y="-445.32" font-family="Times,serif" font-size="14.00">ds_vis.core.ops</text>
</g>
<!-- ds_vis.core.layout&#45;&gt;ds_vis.core.ops -->
<g id="edge2" class="edge">
<title>ds_vis.core.layout&#45;&gt;ds_vis.core.ops</title>
<path fill="none" stroke="black" d="M409.09,-324.4C424.13,-334.3 442.86,-347.23 458.62,-360 476.71,-374.64 476.62,-384.13 496.62,-396 524.47,-412.52 558.08,-424.55 587.6,-432.92"/>
<polygon fill="black" stroke="black" points="597.1,-435.52 586.27,-437.22 593.45,-434.52 587.46,-432.88 587.46,-432.88 587.46,-432.88 593.45,-434.52 588.64,-428.54 597.1,-435.52"/>
</g>
<!-- ds_vis.core.layout.simple -->
<g id="node5" class="node">
<title>ds_vis.core.layout.simple</title>
<polygon fill="none" stroke="black" points="851.25,-252 656,-252 656,-216 851.25,-216 851.25,-252"/>
<text xml:space="preserve" text-anchor="start" x="664" y="-229.32" font-family="Times,serif" font-size="14.00">ds_vis.core.layout.simple</text>
</g>
<!-- ds_vis.core.layout.simple&#45;&gt;ds_vis.core.ops -->
<g id="edge3" class="edge">
<title>ds_vis.core.layout.simple&#45;&gt;ds_vis.core.ops</title>
<path fill="none" stroke="black" d="M850.07,-252.4C887.29,-261.24 923.58,-273.26 934.62,-288 963.4,-326.42 965.17,-358.98 934.62,-396 909.62,-426.3 806.34,-439.48 733.99,-445.07"/>
<polygon fill="black" stroke="black" points="724.32,-445.79 733.96,-440.56 728.09,-445.51 734.29,-445.05 734.29,-445.05 734.29,-445.05 728.09,-445.51 734.62,-449.54 724.32,-445.79"/>
</g>
<!-- ds_vis.core.models -->
<g id="node6" class="node">
<title>ds_vis.core.models</title>
<polygon fill="none" stroke="black" points="599.75,-252 449.5,-252 449.5,-216 599.75,-216 599.75,-252"/>
<text xml:space="preserve" text-anchor="start" x="457.5" y="-229.32" font-family="Times,serif" font-size="14.00">ds_vis.core.models</text>
</g>
<!-- ds_vis.core.models.base -->
<g id="node7" class="node">
<title>ds_vis.core.models.base</title>
<polygon fill="none" stroke="black" points="693.5,-396 505.75,-396 505.75,-360 693.5,-360 693.5,-396"/>
<text xml:space="preserve" text-anchor="start" x="513.75" y="-373.32" font-family="Times,serif" font-size="14.00">ds_vis.core.models.base</text>
</g>
<!-- ds_vis.core.models&#45;&gt;ds_vis.core.models.base -->
<g id="edge4" class="edge">
<title>ds_vis.core.models&#45;&gt;ds_vis.core.models.base</title>
<path fill="none" stroke="black" d="M512.33,-252.5C500.78,-271.29 487.14,-301.48 500.62,-324 508.36,-336.92 520.45,-346.87 533.55,-354.46"/>
<polygon fill="black" stroke="black" points="542.14,-359.02 531.2,-358.31 538.8,-357.25 533.3,-354.33 533.3,-354.33 533.3,-354.33 538.8,-357.25 535.41,-350.36 542.14,-359.02"/>
</g>
<!-- ds_vis.core.models.list_model -->
<g id="node10" class="node">
<title>ds_vis.core.models.list_model</title>
<polygon fill="none" stroke="black" points="737.38,-324 509.88,-324 509.88,-288 737.38,-288 737.38,-324"/>
<text xml:space="preserve" text-anchor="start" x="517.88" y="-301.32" font-family="Times,serif" font-size="14.00">ds_vis.core.models.list_model</text>
</g>
<!-- ds_vis.core.models&#45;&gt;ds_vis.core.models.list_model -->
<g id="edge5" class="edge">
<title>ds_vis.core.models&#45;&gt;ds_vis.core.models.list_model</title>
<path fill="none" stroke="black" d="M549.35,-252.48C561.73,-261.24 576.89,-271.96 590.28,-281.42"/>
<polygon fill="black" stroke="black" points="598.22,-287.04 587.46,-284.94 595.13,-284.85 590.05,-281.26 590.05,-281.26 590.05,-281.26 595.13,-284.85 592.65,-277.59 598.22,-287.04"/>
</g>
<!-- ds_vis.core.models.base&#45;&gt;ds_vis.core.ops -->
<g id="edge6" class="edge">
<title>ds_vis.core.models.base&#45;&gt;ds_vis.core.ops</title>
<path fill="none" stroke="black" d="M614.7,-396.3C621.87,-404.53 630.58,-414.52 638.47,-423.58"/>
<polygon fill="black" stroke="black" points="644.92,-430.98 634.96,-426.39 642.43,-428.13 638.35,-423.44 638.35,-423.44 638.35,-423.44 642.43,-428.13 641.74,-420.48 644.92,-430.98"/>
</g>
<!-- ds_vis.core.models.bst -->
<g id="node8" class="node">
<title>ds_vis.core.models.bst</title>
<polygon fill="none" stroke="black" points="177.25,-396 0,-396 0,-360 177.25,-360 177.25,-396"/>
<text xml:space="preserve" text-anchor="start" x="8" y="-373.32" font-family="Times,serif" font-size="14.00">ds_vis.core.models.bst</text>
</g>
<!-- ds_vis.core.models.bst&#45;&gt;ds_vis.core.ops -->
<g id="edge7" class="edge">
<title>ds_vis.core.models.bst&#45;&gt;ds_vis.core.ops</title>
<path fill="none" stroke="black" d="M177.63,-393.98C182.36,-394.69 187.05,-395.36 191.62,-396 331.23,-415.4 494.97,-432.65 587.38,-441.89"/>
<polygon fill="black" stroke="black" points="597.08,-442.86 586.68,-446.34 593.31,-442.48 587.13,-441.87 587.13,-441.87 587.13,-441.87 593.31,-442.48 587.57,-437.39 597.08,-442.86"/>
</g>
<!-- ds_vis.core.models.gitgraph -->
<g id="node9" class="node">
<title>ds_vis.core.models.gitgraph</title>
<polygon fill="none" stroke="black" points="449.75,-396 233.5,-396 233.5,-360 449.75,-360 449.75,-396"/>
<text xml:space="preserve" text-anchor="start" x="241.5" y="-373.32" font-family="Times,serif" font-size="14.00">ds_vis.core.models.gitgraph</text>
</g>
<!-- ds_vis.core.models.gitgraph&#45;&gt;ds_vis.core.ops -->
<g id="edge8" class="edge">
<title>ds_vis.core.models.gitgraph&#45;&gt;ds_vis.core.ops</title>
<path fill="none" stroke="black" d="M421.3,-396.48C472.28,-407.67 537.91,-422.07 587.55,-432.96"/>
<polygon fill="black" stroke="black" points="597.01,-435.04 586.28,-437.29 593.32,-434.23 587.24,-432.9 587.24,-432.9 587.24,-432.9 593.32,-434.23 588.21,-428.5 597.01,-435.04"/>
</g>
<!-- ds_vis.core.models.list_model&#45;&gt;ds_vis.core.exceptions -->
<g id="edge9" class="edge">
<title>ds_vis.core.models.list_model&#45;&gt;ds_vis.core.exceptions</title>
<path fill="none" stroke="black" d="M677.07,-324.48C706.42,-334.08 743.01,-346.05 773.84,-356.14"/>
<polygon fill="black" stroke="black" points="783.33,-359.24 772.43,-360.41 779.73,-358.06 773.82,-356.13 773.82,-356.13 773.82,-356.13 779.73,-358.06 775.22,-351.85 783.33,-359.24"/>
</g>
<!-- ds_vis.core.models.list_model&#45;&gt;ds_vis.core.models.base -->
<g id="edge10" class="edge">
<title>ds_vis.core.models.list_model&#45;&gt;ds_vis.core.models.base</title>
<path fill="none" stroke="black" d="M617.69,-324.3C615.11,-331.85 612.01,-340.88 609.12,-349.32"/>
<polygon fill="black" stroke="black" points="605.88,-358.74 604.87,-347.82 607.11,-355.17 609.13,-349.28 609.13,-349.28 609.13,-349.28 607.11,-355.17 613.38,-350.74 605.88,-358.74"/>
</g>
<!-- ds_vis.core.models.list_model&#45;&gt;ds_vis.core.ops -->
<g id="edge11" class="edge">
<title>ds_vis.core.models.list_model&#45;&gt;ds_vis.core.ops</title>
<path fill="none" stroke="black" d="M664.72,-324.35C679.43,-332.81 694.39,-344.55 702.62,-360 713.82,-380.99 700.42,-405.47 685.86,-423.44"/>
<polygon fill="black" stroke="black" points="679.52,-430.77 682.66,-420.26 681.99,-427.91 686.06,-423.21 686.06,-423.21 686.06,-423.21 681.99,-427.91 689.46,-426.15 679.52,-430.77"/>
</g>
<!-- ds_vis.core.ops.ops -->
<g id="node12" class="node">
<title>ds_vis.core.ops.ops</title>
<polygon fill="none" stroke="black" points="737.25,-612 584,-612 584,-576 737.25,-576 737.25,-612"/>
<text xml:space="preserve" text-anchor="start" x="592" y="-589.33" font-family="Times,serif" font-size="14.00">ds_vis.core.ops.ops</text>
</g>
<!-- ds_vis.core.ops&#45;&gt;ds_vis.core.ops.ops -->
<g id="edge12" class="edge">
<title>ds_vis.core.ops&#45;&gt;ds_vis.core.ops.ops</title>
<path fill="none" stroke="black" d="M642.02,-468.24C633.09,-477.8 623.33,-490.47 618.62,-504 613.36,-519.11 613.36,-524.89 618.62,-540 622.08,-549.93 628.27,-559.41 634.84,-567.52"/>
<polygon fill="black" stroke="black" points="641.22,-574.84 631.26,-570.26 638.73,-571.99 634.65,-567.3 634.65,-567.3 634.65,-567.3 638.73,-571.99 638.04,-564.34 641.22,-574.84"/>
</g>
<!-- ds_vis.core.ops.timeline -->
<g id="node13" class="node">
<title>ds_vis.core.ops.timeline</title>
<polygon fill="none" stroke="black" points="815.12,-540 628.12,-540 628.12,-504 815.12,-504 815.12,-540"/>
<text xml:space="preserve" text-anchor="start" x="636.12" y="-517.33" font-family="Times,serif" font-size="14.00">ds_vis.core.ops.timeline</text>
</g>
<!-- ds_vis.core.ops&#45;&gt;ds_vis.core.ops.timeline -->
<g id="edge13" class="edge">
<title>ds_vis.core.ops&#45;&gt;ds_vis.core.ops.timeline</title>
<path fill="none" stroke="black" d="M675.7,-468.3C682.87,-476.53 691.58,-486.52 699.47,-495.58"/>
<polygon fill="black" stroke="black" points="705.92,-502.98 695.96,-498.39 703.43,-500.13 699.35,-495.44 699.35,-495.44 699.35,-495.44 703.43,-500.13 702.74,-492.48 705.92,-502.98"/>
</g>
<!-- ds_vis.core.ops.timeline&#45;&gt;ds_vis.core.ops.ops -->
<g id="edge14" class="edge">
<title>ds_vis.core.ops.timeline&#45;&gt;ds_vis.core.ops.ops</title>
<path fill="none" stroke="black" d="M706.55,-540.3C699.38,-548.53 690.67,-558.52 682.78,-567.58"/>
<polygon fill="black" stroke="black" points="676.33,-574.98 679.51,-564.48 678.82,-572.13 682.9,-567.44 682.9,-567.44 682.9,-567.44 678.82,-572.13 686.29,-570.39 676.33,-574.98"/>
</g>
<!-- ds_vis.core.scene -->
<g id="node14" class="node">
<title>ds_vis.core.scene</title>
<polygon fill="none" stroke="black" points="1219.5,-108 1079.75,-108 1079.75,-72 1219.5,-72 1219.5,-108"/>
<text xml:space="preserve" text-anchor="start" x="1087.75" y="-85.33" font-family="Times,serif" font-size="14.00">ds_vis.core.scene</text>
</g>
<!-- ds_vis.core.scene.command -->
<g id="node15" class="node">
<title>ds_vis.core.scene.command</title>
<polygon fill="none" stroke="black" points="1195.25,-324 982,-324 982,-288 1195.25,-288 1195.25,-324"/>
<text xml:space="preserve" text-anchor="start" x="990" y="-301.32" font-family="Times,serif" font-size="14.00">ds_vis.core.scene.command</text>
</g>
<!-- ds_vis.core.scene&#45;&gt;ds_vis.core.scene.command -->
<g id="edge15" class="edge">
<title>ds_vis.core.scene&#45;&gt;ds_vis.core.scene.command</title>
<path fill="none" stroke="black" d="M1158,-108.2C1171.73,-139.04 1195.08,-204.93 1169.62,-252 1163,-264.25 1152.18,-274.12 1140.58,-281.87"/>
<polygon fill="black" stroke="black" points="1132.2,-287 1138.38,-277.94 1135.43,-285.02 1140.73,-281.77 1140.73,-281.77 1140.73,-281.77 1135.43,-285.02 1143.08,-285.61 1132.2,-287"/>
</g>
<!-- ds_vis.core.scene.scene_graph -->
<g id="node17" class="node">
<title>ds_vis.core.scene.scene_graph</title>
<polygon fill="none" stroke="black" points="807.38,-180 573.88,-180 573.88,-144 807.38,-144 807.38,-180"/>
<text xml:space="preserve" text-anchor="start" x="581.88" y="-157.32" font-family="Times,serif" font-size="14.00">ds_vis.core.scene.scene_graph</text>
</g>
<!-- ds_vis.core.scene&#45;&gt;ds_vis.core.scene.scene_graph -->
<g id="edge16" class="edge">
<title>ds_vis.core.scene&#45;&gt;ds_vis.core.scene.scene_graph</title>
<path fill="none" stroke="black" d="M1079.41,-101.71C1009.52,-112.37 900.74,-128.96 816,-141.88"/>
<polygon fill="black" stroke="black" points="806.2,-143.37 815.41,-137.42 809.94,-142.8 816.09,-141.87 816.09,-141.87 816.09,-141.87 809.94,-142.8 816.77,-146.31 806.2,-143.37"/>
</g>
<!-- ds_vis.core.scene.command_schema -->
<g id="node16" class="node">
<title>ds_vis.core.scene.command_schema</title>
<polygon fill="none" stroke="black" points="1143.62,-252 869.62,-252 869.62,-216 1143.62,-216 1143.62,-252"/>
<text xml:space="preserve" text-anchor="start" x="877.62" y="-229.32" font-family="Times,serif" font-size="14.00">ds_vis.core.scene.command_schema</text>
</g>
<!-- ds_vis.core.scene.command_schema&#45;&gt;ds_vis.core.exceptions -->
<g id="edge17" class="edge">
<title>ds_vis.core.scene.command_schema&#45;&gt;ds_vis.core.exceptions</title>
<path fill="none" stroke="black" d="M907.59,-252.44C870.11,-261.23 833.77,-273.19 822.62,-288 809.41,-305.56 815.18,-330.59 823.09,-349.64"/>
<polygon fill="black" stroke="black" points="827.23,-358.68 818.98,-351.46 825.66,-355.24 823.07,-349.59 823.07,-349.59 823.07,-349.59 825.66,-355.24 827.16,-347.72 827.23,-358.68"/>
</g>
<!-- ds_vis.core.scene.command_schema&#45;&gt;ds_vis.core.scene.command -->
<g id="edge18" class="edge">
<title>ds_vis.core.scene.command_schema&#45;&gt;ds_vis.core.scene.command</title>
<path fill="none" stroke="black" d="M1026.89,-252.3C1036.85,-260.8 1049.02,-271.19 1059.91,-280.49"/>
<polygon fill="black" stroke="black" points="1067.38,-286.86 1056.85,-283.79 1064.5,-284.41 1059.77,-280.37 1059.77,-280.37 1059.77,-280.37 1064.5,-284.41 1062.69,-276.95 1067.38,-286.86"/>
</g>
<!-- ds_vis.core.scene.scene_graph&#45;&gt;ds_vis.core.exceptions -->
<g id="edge19" class="edge">
<title>ds_vis.core.scene.scene_graph&#45;&gt;ds_vis.core.exceptions</title>
<path fill="none" stroke="black" d="M671.36,-180.26C653,-198.85 630.37,-228.87 646.62,-252 673.79,-290.65 706.6,-262.91 746.62,-288 773.9,-305.1 799.61,-331.56 816.69,-351.19"/>
<polygon fill="black" stroke="black" points="823.12,-358.74 813.21,-354.04 820.67,-355.86 816.64,-351.13 816.64,-351.13 816.64,-351.13 820.67,-355.86 820.06,-348.21 823.12,-358.74"/>
</g>
<!-- ds_vis.core.scene.scene_graph&#45;&gt;ds_vis.core.layout -->
<g id="edge20" class="edge">
<title>ds_vis.core.scene.scene_graph&#45;&gt;ds_vis.core.layout</title>
<path fill="none" stroke="black" d="M573.46,-169.08C528.83,-175.99 479.42,-189.62 440.62,-216 418.53,-231.02 402.62,-257.33 392.93,-277.46"/>
<polygon fill="black" stroke="black" points="388.81,-286.51 388.86,-275.54 390.38,-283.07 392.95,-277.41 392.95,-277.41 392.95,-277.41 390.38,-283.07 397.05,-279.27 388.81,-286.51"/>
</g>
<!-- ds_vis.core.scene.scene_graph&#45;&gt;ds_vis.core.layout.simple -->
<g id="edge21" class="edge">
<title>ds_vis.core.scene.scene_graph&#45;&gt;ds_vis.core.layout.simple</title>
<path fill="none" stroke="black" d="M706.2,-180.3C713.6,-188.53 722.59,-198.52 730.75,-207.58"/>
<polygon fill="black" stroke="black" points="737.42,-214.99 727.38,-210.57 734.89,-212.18 730.73,-207.56 730.73,-207.56 730.73,-207.56 734.89,-212.18 734.07,-204.55 737.42,-214.99"/>
</g>
<!-- ds_vis.core.scene.scene_graph&#45;&gt;ds_vis.core.models -->
<g id="edge22" class="edge">
<title>ds_vis.core.scene.scene_graph&#45;&gt;ds_vis.core.models</title>
<path fill="none" stroke="black" d="M649.16,-180.48C627,-189.83 599.5,-201.43 575.99,-211.34"/>
<polygon fill="black" stroke="black" points="566.97,-215.14 574.43,-207.11 570.45,-213.68 576.18,-211.26 576.18,-211.26 576.18,-211.26 570.45,-213.68 577.93,-215.41 566.97,-215.14"/>
</g>
<!-- ds_vis.core.scene.scene_graph&#45;&gt;ds_vis.core.ops -->
<g id="edge23" class="edge">
<title>ds_vis.core.scene.scene_graph&#45;&gt;ds_vis.core.ops</title>
<path fill="none" stroke="black" d="M573.54,-178.53C402.11,-205.82 114.49,-271.67 224.62,-396 248.23,-422.65 469.36,-438.62 587.31,-445.31"/>
<polygon fill="black" stroke="black" points="597.18,-445.86 586.94,-449.8 593.4,-445.65 587.19,-445.3 587.19,-445.3 587.19,-445.3 593.4,-445.65 587.44,-440.81 597.18,-445.86"/>
</g>
<!-- ds_vis.core.scene.scene_graph&#45;&gt;ds_vis.core.scene.command -->
<g id="edge24" class="edge">
<title>ds_vis.core.scene.scene_graph&#45;&gt;ds_vis.core.scene.command</title>
<path fill="none" stroke="black" d="M807.72,-168.45C937,-175.69 1129.99,-190.62 1152.62,-216 1171.05,-236.66 1147.89,-262.56 1124.44,-281.09"/>
<polygon fill="black" stroke="black" points="1116.5,-287.07 1121.78,-277.46 1119.52,-284.8 1124.49,-281.05 1124.49,-281.05 1124.49,-281.05 1119.52,-284.8 1127.2,-284.65 1116.5,-287.07"/>
</g>
<!-- ds_vis.core.scene.scene_graph&#45;&gt;ds_vis.core.scene.command_schema -->
<g id="edge25" class="edge">
<title>ds_vis.core.scene.scene_graph&#45;&gt;ds_vis.core.scene.command_schema</title>
<path fill="none" stroke="black" d="M769.55,-180.48C814.41,-190.42 870.72,-202.9 917.21,-213.19"/>
<polygon fill="black" stroke="black" points="926.7,-215.29 915.96,-217.52 923,-214.48 916.93,-213.13 916.93,-213.13 916.93,-213.13 923,-214.48 917.91,-208.74 926.7,-215.29"/>
</g>
<!-- ds_vis.dsl -->
<g id="node18" class="node">
<title>ds_vis.dsl</title>
<polygon fill="none" stroke="black" points="1535.12,-36 1450.12,-36 1450.12,0 1535.12,0 1535.12,-36"/>
<text xml:space="preserve" text-anchor="start" x="1458.12" y="-13.32" font-family="Times,serif" font-size="14.00">ds_vis.dsl</text>
</g>
<!-- ds_vis.persistence -->
<g id="node19" class="node">
<title>ds_vis.persistence</title>
<polygon fill="none" stroke="black" points="1699.88,-36 1553.38,-36 1553.38,0 1699.88,0 1699.88,-36"/>
<text xml:space="preserve" text-anchor="start" x="1561.38" y="-13.32" font-family="Times,serif" font-size="14.00">ds_vis.persistence</text>
</g>
<!-- ds_vis.renderers -->
<g id="node20" class="node">
<title>ds_vis.renderers</title>
<polygon fill="none" stroke="black" points="1409.88,-252 1275.38,-252 1275.38,-216 1409.88,-216 1409.88,-252"/>
<text xml:space="preserve" text-anchor="start" x="1283.38" y="-229.32" font-family="Times,serif" font-size="14.00">ds_vis.renderers</text>
</g>
<!-- ds_vis.renderers.base -->
<g id="node21" class="node">
<title>ds_vis.renderers.base</title>
<polygon fill="none" stroke="black" points="1309.62,-396 1137.62,-396 1137.62,-360 1309.62,-360 1309.62,-396"/>
<text xml:space="preserve" text-anchor="start" x="1145.62" y="-373.32" font-family="Times,serif" font-size="14.00">ds_vis.renderers.base</text>
</g>
<!-- ds_vis.renderers&#45;&gt;ds_vis.renderers.base -->
<g id="edge26" class="edge">
<title>ds_vis.renderers&#45;&gt;ds_vis.renderers.base</title>
<path fill="none" stroke="black" d="M1289.93,-252.47C1272.5,-260.69 1254.53,-272.24 1242.62,-288 1229.52,-305.35 1225.01,-329.78 1223.65,-348.65"/>
<polygon fill="black" stroke="black" points="1223.21,-358.63 1219.15,-348.44 1223.37,-354.85 1223.65,-348.64 1223.65,-348.64 1223.65,-348.64 1223.37,-354.85 1228.14,-348.84 1223.21,-358.63"/>
</g>
<!-- ds_vis.renderers.pyside6.renderer -->
<g id="node23" class="node">
<title>ds_vis.renderers.pyside6.renderer</title>
<polygon fill="none" stroke="black" points="1513.62,-324 1251.62,-324 1251.62,-288 1513.62,-288 1513.62,-324"/>
<text xml:space="preserve" text-anchor="start" x="1259.62" y="-301.32" font-family="Times,serif" font-size="14.00">ds_vis.renderers.pyside6.renderer</text>
</g>
<!-- ds_vis.renderers&#45;&gt;ds_vis.renderers.pyside6.renderer -->
<g id="edge27" class="edge">
<title>ds_vis.renderers&#45;&gt;ds_vis.renderers.pyside6.renderer</title>
<path fill="none" stroke="black" d="M1352.51,-252.3C1356.97,-260.1 1362.33,-269.49 1367.29,-278.17"/>
<polygon fill="black" stroke="black" points="1372.25,-286.84 1363.38,-280.39 1370.37,-283.55 1367.29,-278.16 1367.29,-278.16 1367.29,-278.16 1370.37,-283.55 1371.19,-275.92 1372.25,-286.84"/>
</g>
<!-- ds_vis.renderers.base&#45;&gt;ds_vis.core.ops -->
<g id="edge28" class="edge">
<title>ds_vis.renderers.base&#45;&gt;ds_vis.core.ops</title>
<path fill="none" stroke="black" d="M1137.2,-389.75C1026.71,-403.48 837.35,-427.03 733.7,-439.91"/>
<polygon fill="black" stroke="black" points="723.93,-441.13 733.3,-435.43 727.68,-440.66 733.85,-439.89 733.85,-439.89 733.85,-439.89 727.68,-440.66 734.41,-444.36 723.93,-441.13"/>
</g>
<!-- ds_vis.renderers.pyside6 -->
<g id="node22" class="node">
<title>ds_vis.renderers.pyside6</title>
<polygon fill="none" stroke="black" points="1912.88,-36 1718.38,-36 1718.38,0 1912.88,0 1912.88,-36"/>
<text xml:space="preserve" text-anchor="start" x="1726.38" y="-13.32" font-family="Times,serif" font-size="14.00">ds_vis.renderers.pyside6</text>
</g>
<!-- ds_vis.renderers.pyside6.renderer&#45;&gt;ds_vis.core.ops -->
<g id="edge29" class="edge">
<title>ds_vis.renderers.pyside6.renderer&#45;&gt;ds_vis.core.ops</title>
<path fill="none" stroke="black" d="M1375.68,-324.26C1366.22,-345.26 1347.13,-379.91 1318.62,-396 1268.68,-424.19 894.62,-440.7 733.78,-446.56"/>
<polygon fill="black" stroke="black" points="724.26,-446.9 734.09,-442.04 728.03,-446.77 734.25,-446.54 734.25,-446.54 734.25,-446.54 728.03,-446.77 734.41,-451.04 724.26,-446.9"/>
</g>
<!-- ds_vis.renderers.pyside6.renderer&#45;&gt;ds_vis.renderers.base -->
<g id="edge30" class="edge">
<title>ds_vis.renderers.pyside6.renderer&#45;&gt;ds_vis.renderers.base</title>
<path fill="none" stroke="black" d="M1342.91,-324.48C1321.77,-333.79 1295.58,-345.32 1273.13,-355.21"/>
<polygon fill="black" stroke="black" points="1264.22,-359.13 1271.56,-350.98 1267.68,-357.6 1273.37,-355.1 1273.37,-355.1 1273.37,-355.1 1267.68,-357.6 1275.19,-359.22 1264.22,-359.13"/>
</g>
<!-- ds_vis.ui -->
<g id="node24" class="node">
<title>ds_vis.ui</title>
<polygon fill="none" stroke="black" points="2008.38,-36 1930.88,-36 1930.88,0 2008.38,0 2008.38,-36"/>
<text xml:space="preserve" text-anchor="start" x="1938.88" y="-13.32" font-family="Times,serif" font-size="14.00">ds_vis.ui</text>
</g>
<!-- ds_vis.ui.main_window -->
<g id="node25" class="node">
<title>ds_vis.ui.main_window</title>
<polygon fill="none" stroke="black" points="1432,-36 1253.25,-36 1253.25,0 1432,0 1432,-36"/>
<text xml:space="preserve" text-anchor="start" x="1261.25" y="-13.32" font-family="Times,serif" font-size="14.00">ds_vis.ui.main_window</text>
</g>
<!-- ds_vis.ui.main_window&#45;&gt;ds_vis.core.ops -->
<g id="edge31" class="edge">
<title>ds_vis.ui.main_window&#45;&gt;ds_vis.core.ops</title>
<path fill="none" stroke="black" d="M1409.17,-36.48C1467.02,-56.18 1541.62,-94.47 1541.62,-161 1541.62,-161 1541.62,-161 1541.62,-307 1541.62,-358.11 1747.8,-300.25 1350.62,-396 1235.25,-423.81 887.03,-440.26 734.05,-446.32"/>
<polygon fill="black" stroke="black" points="724.16,-446.71 733.97,-441.82 727.94,-446.56 734.15,-446.32 734.15,-446.32 734.15,-446.32 727.94,-446.56 734.33,-450.82 724.16,-446.71"/>
</g>
<!-- ds_vis.ui.main_window&#45;&gt;ds_vis.core.scene -->
<g id="edge32" class="edge">
<title>ds_vis.ui.main_window&#45;&gt;ds_vis.core.scene</title>
<path fill="none" stroke="black" d="M1294.42,-36.48C1268.19,-46 1235.53,-57.84 1207.88,-67.87"/>
<polygon fill="black" stroke="black" points="1198.69,-71.2 1206.56,-63.56 1202.25,-69.91 1208.1,-67.79 1208.1,-67.79 1208.1,-67.79 1202.25,-69.91 1209.63,-72.02 1198.69,-71.2"/>
</g>
<!-- ds_vis.ui.main_window&#45;&gt;ds_vis.core.scene.command -->
<g id="edge33" class="edge">
<title>ds_vis.ui.main_window&#45;&gt;ds_vis.core.scene.command</title>
<path fill="none" stroke="black" d="M1334.93,-36.32C1315.64,-78.1 1261.51,-185.84 1188.62,-252 1175.13,-264.25 1158.29,-274.58 1142.29,-282.77"/>
<polygon fill="black" stroke="black" points="1133.58,-287.06 1140.57,-278.61 1136.97,-285.39 1142.55,-282.65 1142.55,-282.65 1142.55,-282.65 1136.97,-285.39 1144.54,-286.69 1133.58,-287.06"/>
</g>
<!-- ds_vis.ui.main_window&#45;&gt;ds_vis.renderers.pyside6.renderer -->
<g id="edge34" class="edge">
<title>ds_vis.ui.main_window&#45;&gt;ds_vis.renderers.pyside6.renderer</title>
<path fill="none" stroke="black" d="M1351.81,-36.28C1369.05,-69.8 1405.67,-146.45 1418.62,-216 1421.55,-231.73 1423.33,-236.71 1418.62,-252 1415.71,-261.48 1410.46,-270.78 1404.86,-278.88"/>
<polygon fill="black" stroke="black" points="1398.96,-286.8 1401.33,-276.09 1401.22,-283.76 1404.93,-278.78 1404.93,-278.78 1404.93,-278.78 1401.22,-283.76 1408.54,-281.46 1398.96,-286.8"/>
</g>
</g>
</svg>
