<?xml version="1.0" encoding="UTF-8" standalone="no"?>
<!DOCTYPE svg PUBLIC "-//W3C//DTD SVG 1.1//EN"
 "http://www.w3.org/Graphics/SVG/1.1/DTD/svg11.dtd">
<!-- Generated by graphviz version 14.1.0 (20251207.0913)
 -->
<!-- Title: packages_ds_vis Pages: 1 -->
<svg width="1730pt" height="548pt"
 viewBox="0.00 0.00 1730.00 548.00" xmlns="http://www.w3.org/2000/svg" xmlns:xlink="http://www.w3.org/1999/xlink">
<g id="graph0" class="graph" transform="scale(1 1) rotate(0) translate(4 544)">
<title>packages_ds_vis</title>
<polygon fill="white" stroke="none" points="-4,4 -4,-544 1725.75,-544 1725.75,4 -4,4"/>
<!-- ds_vis -->
<g id="node1" class="node">
<title>ds_vis</title>
<polygon fill="none" stroke="black" points="948.75,-36 889.25,-36 889.25,0 948.75,0 948.75,-36"/>
<text xml:space="preserve" text-anchor="start" x="897.25" y="-13.32" font-family="Times,serif" font-size="14.00">ds_vis</text>
</g>
<!-- ds_vis.core -->
<g id="node2" class="node">
<title>ds_vis.core</title>
<polygon fill="none" stroke="black" points="677.38,-180 582.62,-180 582.62,-144 677.38,-144 677.38,-180"/>
<text xml:space="preserve" text-anchor="start" x="590.62" y="-157.32" font-family="Times,serif" font-size="14.00">ds_vis.core</text>
</g>
<!-- ds_vis.core.exceptions -->
<g id="node3" class="node">
<title>ds_vis.core.exceptions</title>
<polygon fill="none" stroke="black" points="717.88,-252 542.12,-252 542.12,-216 717.88,-216 717.88,-252"/>
<text xml:space="preserve" text-anchor="start" x="550.12" y="-229.32" font-family="Times,serif" font-size="14.00">ds_vis.core.exceptions</text>
</g>
<!-- ds_vis.core&#45;&gt;ds_vis.core.exceptions -->
<g id="edge1" class="edge">
<title>ds_vis.core&#45;&gt;ds_vis.core.exceptions</title>
<path fill="none" stroke="black" d="M630,-180.3C630,-187.68 630,-196.48 630,-204.75"/>
<polygon fill="black" stroke="black" points="630,-214.68 625.5,-204.68 630,-210.9 630,-204.68 630,-204.68 630,-204.68 630,-210.9 634.5,-204.68 630,-214.68"/>
</g>
<!-- ds_vis.core.layout -->
<g id="node4" class="node">
<title>ds_vis.core.layout</title>
<polygon fill="none" stroke="black" points="1085.75,-324 942.25,-324 942.25,-288 1085.75,-288 1085.75,-324"/>
<text xml:space="preserve" text-anchor="start" x="950.25" y="-301.32" font-family="Times,serif" font-size="14.00">ds_vis.core.layout</text>
</g>
<!-- ds_vis.core.ops -->
<g id="node10" class="node">
<title>ds_vis.core.ops</title>
<polygon fill="none" stroke="black" points="714,-396 590,-396 590,-360 714,-360 714,-396"/>
<text xml:space="preserve" text-anchor="start" x="598" y="-373.32" font-family="Times,serif" font-size="14.00">ds_vis.core.ops</text>
</g>
<!-- ds_vis.core.layout&#45;&gt;ds_vis.core.ops -->
<g id="edge2" class="edge">
<title>ds_vis.core.layout&#45;&gt;ds_vis.core.ops</title>
<path fill="none" stroke="black" d="M942.21,-321.22C937.4,-322.16 932.63,-323.1 928,-324 859.31,-337.39 780.94,-352.41 725.31,-363.03"/>
<polygon fill="black" stroke="black" points="715.7,-364.87 724.68,-358.57 719.41,-364.16 725.52,-362.99 725.52,-362.99 725.52,-362.99 719.41,-364.16 726.36,-367.41 715.7,-364.87"/>
</g>
<!-- ds_vis.core.layout.simple -->
<g id="node5" class="node">
<title>ds_vis.core.layout.simple</title>
<polygon fill="none" stroke="black" points="1175.62,-252 980.38,-252 980.38,-216 1175.62,-216 1175.62,-252"/>
<text xml:space="preserve" text-anchor="start" x="988.38" y="-229.32" font-family="Times,serif" font-size="14.00">ds_vis.core.layout.simple</text>
</g>
<!-- ds_vis.core.layout.simple&#45;&gt;ds_vis.core.ops -->
<g id="edge3" class="edge">
<title>ds_vis.core.layout.simple&#45;&gt;ds_vis.core.ops</title>
<path fill="none" stroke="black" d="M1088.86,-252.31C1099.74,-272.08 1112.54,-304.23 1095,-324 1070.91,-351.14 844.7,-366.95 725.19,-373.47"/>
<polygon fill="black" stroke="black" points="715.54,-373.99 725.28,-368.96 719.32,-373.78 725.53,-373.45 725.53,-373.45 725.53,-373.45 719.32,-373.78 725.77,-377.94 715.54,-373.99"/>
</g>
<!-- ds_vis.core.models -->
<g id="node6" class="node">
<title>ds_vis.core.models</title>
<polygon fill="none" stroke="black" points="886.12,-252 735.88,-252 735.88,-216 886.12,-216 886.12,-252"/>
<text xml:space="preserve" text-anchor="start" x="743.88" y="-229.32" font-family="Times,serif" font-size="14.00">ds_vis.core.models</text>
</g>
<!-- ds_vis.core.models.list_model -->
<g id="node9" class="node">
<title>ds_vis.core.models.list_model</title>
<polygon fill="none" stroke="black" points="885.75,-324 658.25,-324 658.25,-288 885.75,-288 885.75,-324"/>
<text xml:space="preserve" text-anchor="start" x="666.25" y="-301.32" font-family="Times,serif" font-size="14.00">ds_vis.core.models.list_model</text>
</g>
<!-- ds_vis.core.models&#45;&gt;ds_vis.core.models.list_model -->
<g id="edge4" class="edge">
<title>ds_vis.core.models&#45;&gt;ds_vis.core.models.list_model</title>
<path fill="none" stroke="black" d="M801.36,-252.3C797.01,-260.1 791.78,-269.49 786.95,-278.17"/>
<polygon fill="black" stroke="black" points="782.12,-286.83 783.06,-275.91 783.96,-283.53 786.99,-278.1 786.99,-278.1 786.99,-278.1 783.96,-283.53 790.92,-280.29 782.12,-286.83"/>
</g>
<!-- ds_vis.core.models.bst -->
<g id="node7" class="node">
<title>ds_vis.core.models.bst</title>
<polygon fill="none" stroke="black" points="405.62,-324 228.38,-324 228.38,-288 405.62,-288 405.62,-324"/>
<text xml:space="preserve" text-anchor="start" x="236.38" y="-301.32" font-family="Times,serif" font-size="14.00">ds_vis.core.models.bst</text>
</g>
<!-- ds_vis.core.models.bst&#45;&gt;ds_vis.core.ops -->
<g id="edge5" class="edge">
<title>ds_vis.core.models.bst&#45;&gt;ds_vis.core.ops</title>
<path fill="none" stroke="black" d="M400.67,-324.48C455.4,-335.92 526.22,-350.72 578.73,-361.69"/>
<polygon fill="black" stroke="black" points="588.45,-363.72 577.74,-366.08 584.75,-362.95 578.66,-361.68 578.66,-361.68 578.66,-361.68 584.75,-362.95 579.58,-357.27 588.45,-363.72"/>
</g>
<!-- ds_vis.core.models.gitgraph -->
<g id="node8" class="node">
<title>ds_vis.core.models.gitgraph</title>
<polygon fill="none" stroke="black" points="640.12,-324 423.88,-324 423.88,-288 640.12,-288 640.12,-324"/>
<text xml:space="preserve" text-anchor="start" x="431.88" y="-301.32" font-family="Times,serif" font-size="14.00">ds_vis.core.models.gitgraph</text>
</g>
<!-- ds_vis.core.models.gitgraph&#45;&gt;ds_vis.core.ops -->
<g id="edge6" class="edge">
<title>ds_vis.core.models.gitgraph&#45;&gt;ds_vis.core.ops</title>
<path fill="none" stroke="black" d="M561.97,-324.48C577.41,-333.49 596.42,-344.58 612.98,-354.24"/>
<polygon fill="black" stroke="black" points="621.36,-359.13 610.45,-357.97 618.09,-357.22 612.72,-354.09 612.72,-354.09 612.72,-354.09 618.09,-357.22 614.99,-350.2 621.36,-359.13"/>
</g>
<!-- ds_vis.core.models.list_model&#45;&gt;ds_vis.core.ops -->
<g id="edge7" class="edge">
<title>ds_vis.core.models.list_model&#45;&gt;ds_vis.core.ops</title>
<path fill="none" stroke="black" d="M742.03,-324.48C726.59,-333.49 707.58,-344.58 691.02,-354.24"/>
<polygon fill="black" stroke="black" points="682.64,-359.13 689.01,-350.2 685.91,-357.22 691.28,-354.09 691.28,-354.09 691.28,-354.09 685.91,-357.22 693.55,-357.97 682.64,-359.13"/>
</g>
<!-- ds_vis.core.ops.ops -->
<g id="node11" class="node">
<title>ds_vis.core.ops.ops</title>
<polygon fill="none" stroke="black" points="728.62,-540 575.38,-540 575.38,-504 728.62,-504 728.62,-540"/>
<text xml:space="preserve" text-anchor="start" x="583.38" y="-517.33" font-family="Times,serif" font-size="14.00">ds_vis.core.ops.ops</text>
</g>
<!-- ds_vis.core.ops&#45;&gt;ds_vis.core.ops.ops -->
<g id="edge8" class="edge">
<title>ds_vis.core.ops&#45;&gt;ds_vis.core.ops.ops</title>
<path fill="none" stroke="black" d="M633.4,-396.24C624.47,-405.8 614.71,-418.47 610,-432 604.74,-447.11 604.74,-452.89 610,-468 613.46,-477.93 619.64,-487.41 626.22,-495.52"/>
<polygon fill="black" stroke="black" points="632.6,-502.84 622.63,-498.26 630.11,-499.99 626.02,-495.3 626.02,-495.3 626.02,-495.3 630.11,-499.99 629.41,-492.34 632.6,-502.84"/>
</g>
<!-- ds_vis.core.ops.timeline -->
<g id="node12" class="node">
<title>ds_vis.core.ops.timeline</title>
<polygon fill="none" stroke="black" points="806.5,-468 619.5,-468 619.5,-432 806.5,-432 806.5,-468"/>
<text xml:space="preserve" text-anchor="start" x="627.5" y="-445.32" font-family="Times,serif" font-size="14.00">ds_vis.core.ops.timeline</text>
</g>
<!-- ds_vis.core.ops&#45;&gt;ds_vis.core.ops.timeline -->
<g id="edge9" class="edge">
<title>ds_vis.core.ops&#45;&gt;ds_vis.core.ops.timeline</title>
<path fill="none" stroke="black" d="M667.08,-396.3C674.24,-404.53 682.95,-414.52 690.85,-423.58"/>
<polygon fill="black" stroke="black" points="697.29,-430.98 687.33,-426.39 694.81,-428.13 690.72,-423.44 690.72,-423.44 690.72,-423.44 694.81,-428.13 694.12,-420.48 697.29,-430.98"/>
</g>
<!-- ds_vis.core.ops.timeline&#45;&gt;ds_vis.core.ops.ops -->
<g id="edge10" class="edge">
<title>ds_vis.core.ops.timeline&#45;&gt;ds_vis.core.ops.ops</title>
<path fill="none" stroke="black" d="M697.92,-468.3C690.76,-476.53 682.05,-486.52 674.15,-495.58"/>
<polygon fill="black" stroke="black" points="667.71,-502.98 670.88,-492.48 670.19,-500.13 674.28,-495.44 674.28,-495.44 674.28,-495.44 670.19,-500.13 677.67,-498.39 667.71,-502.98"/>
</g>
<!-- ds_vis.core.scene -->
<g id="node13" class="node">
<title>ds_vis.core.scene</title>
<polygon fill="none" stroke="black" points="1125.88,-108 986.12,-108 986.12,-72 1125.88,-72 1125.88,-108"/>
<text xml:space="preserve" text-anchor="start" x="994.12" y="-85.33" font-family="Times,serif" font-size="14.00">ds_vis.core.scene</text>
</g>
<!-- ds_vis.core.scene.command -->
<g id="node14" class="node">
<title>ds_vis.core.scene.command</title>
<polygon fill="none" stroke="black" points="1406.62,-252 1193.38,-252 1193.38,-216 1406.62,-216 1406.62,-252"/>
<text xml:space="preserve" text-anchor="start" x="1201.38" y="-229.32" font-family="Times,serif" font-size="14.00">ds_vis.core.scene.command</text>
</g>
<!-- ds_vis.core.scene&#45;&gt;ds_vis.core.scene.command -->
<g id="edge11" class="edge">
<title>ds_vis.core.scene&#45;&gt;ds_vis.core.scene.command</title>
<path fill="none" stroke="black" d="M1085.92,-108.41C1129.85,-133.98 1211.86,-181.71 1260.63,-210.09"/>
<polygon fill="black" stroke="black" points="1269.17,-215.06 1258.26,-213.91 1265.9,-213.15 1260.52,-210.03 1260.52,-210.03 1260.52,-210.03 1265.9,-213.15 1262.79,-206.14 1269.17,-215.06"/>
</g>
<!-- ds_vis.core.scene.scene_graph -->
<g id="node15" class="node">
<title>ds_vis.core.scene.scene_graph</title>
<polygon fill="none" stroke="black" points="1068.75,-180 835.25,-180 835.25,-144 1068.75,-144 1068.75,-180"/>
<text xml:space="preserve" text-anchor="start" x="843.25" y="-157.32" font-family="Times,serif" font-size="14.00">ds_vis.core.scene.scene_graph</text>
</g>
<!-- ds_vis.core.scene&#45;&gt;ds_vis.core.scene.scene_graph -->
<g id="edge12" class="edge">
<title>ds_vis.core.scene&#45;&gt;ds_vis.core.scene.scene_graph</title>
<path fill="none" stroke="black" d="M1030.02,-108.48C1016.9,-117.32 1000.79,-128.16 986.62,-137.7"/>
<polygon fill="black" stroke="black" points="978.66,-143.06 984.44,-133.74 981.79,-140.95 986.95,-137.48 986.95,-137.48 986.95,-137.48 981.79,-140.95 989.46,-141.21 978.66,-143.06"/>
</g>
<!-- ds_vis.core.scene.scene_graph&#45;&gt;ds_vis.core.exceptions -->
<g id="edge13" class="edge">
<title>ds_vis.core.scene.scene_graph&#45;&gt;ds_vis.core.exceptions</title>
<path fill="none" stroke="black" d="M871.58,-180.48C825.87,-190.42 768.48,-202.9 721.11,-213.19"/>
<polygon fill="black" stroke="black" points="711.43,-215.3 720.24,-208.78 715.12,-214.5 721.2,-213.17 721.2,-213.17 721.2,-213.17 715.12,-214.5 722.15,-217.57 711.43,-215.3"/>
</g>
<!-- ds_vis.core.scene.scene_graph&#45;&gt;ds_vis.core.layout -->
<g id="edge14" class="edge">
<title>ds_vis.core.scene.scene_graph&#45;&gt;ds_vis.core.layout</title>
<path fill="none" stroke="black" d="M953.27,-180.16C955.17,-198.67 959.82,-228.62 971,-252 975.65,-261.73 982.44,-271.25 989.25,-279.47"/>
<polygon fill="black" stroke="black" points="995.75,-286.91 985.78,-282.34 993.26,-284.06 989.17,-279.38 989.17,-279.38 989.17,-279.38 993.26,-284.06 992.56,-276.42 995.75,-286.91"/>
</g>
<!-- ds_vis.core.scene.scene_graph&#45;&gt;ds_vis.core.layout.simple -->
<g id="edge15" class="edge">
<title>ds_vis.core.scene.scene_graph&#45;&gt;ds_vis.core.layout.simple</title>
<path fill="none" stroke="black" d="M983.47,-180.48C999.83,-189.57 1020.01,-200.78 1037.52,-210.51"/>
<polygon fill="black" stroke="black" points="1045.87,-215.15 1034.94,-214.22 1042.56,-213.31 1037.12,-210.29 1037.12,-210.29 1037.12,-210.29 1042.56,-213.31 1039.31,-206.36 1045.87,-215.15"/>
</g>
<!-- ds_vis.core.scene.scene_graph&#45;&gt;ds_vis.core.models -->
<g id="edge16" class="edge">
<title>ds_vis.core.scene.scene_graph&#45;&gt;ds_vis.core.models</title>
<path fill="none" stroke="black" d="M916.78,-180.48C898.31,-189.66 875.47,-200.99 855.76,-210.78"/>
<polygon fill="black" stroke="black" points="846.86,-215.2 853.81,-206.72 850.25,-213.52 855.82,-210.75 855.82,-210.75 855.82,-210.75 850.25,-213.52 857.82,-214.78 846.86,-215.2"/>
</g>
<!-- ds_vis.core.scene.scene_graph&#45;&gt;ds_vis.core.ops -->
<g id="edge17" class="edge">
<title>ds_vis.core.scene.scene_graph&#45;&gt;ds_vis.core.ops</title>
<path fill="none" stroke="black" d="M951.16,-180.32C948.58,-213.49 938.04,-286.05 895,-324 870.1,-345.96 787.44,-360.66 725.39,-368.9"/>
<polygon fill="black" stroke="black" points="715.67,-370.16 725.01,-364.41 719.42,-369.67 725.58,-368.87 725.58,-368.87 725.58,-368.87 719.42,-369.67 726.16,-373.34 715.67,-370.16"/>
</g>
<!-- ds_vis.core.scene.scene_graph&#45;&gt;ds_vis.core.scene.command -->
<g id="edge18" class="edge">
<title>ds_vis.core.scene.scene_graph&#45;&gt;ds_vis.core.scene.command</title>
<path fill="none" stroke="black" d="M1038.92,-180.48C1088.63,-190.48 1151.12,-203.05 1202.5,-213.39"/>
<polygon fill="black" stroke="black" points="1212.09,-215.32 1201.4,-217.76 1208.38,-214.57 1202.29,-213.35 1202.29,-213.35 1202.29,-213.35 1208.38,-214.57 1203.18,-208.93 1212.09,-215.32"/>
</g>
<!-- ds_vis.dsl -->
<g id="node16" class="node">
<title>ds_vis.dsl</title>
<polygon fill="none" stroke="black" points="1248.5,-36 1163.5,-36 1163.5,0 1248.5,0 1248.5,-36"/>
<text xml:space="preserve" text-anchor="start" x="1171.5" y="-13.32" font-family="Times,serif" font-size="14.00">ds_vis.dsl</text>
</g>
<!-- ds_vis.persistence -->
<g id="node17" class="node">
<title>ds_vis.persistence</title>
<polygon fill="none" stroke="black" points="1413.25,-36 1266.75,-36 1266.75,0 1413.25,0 1413.25,-36"/>
<text xml:space="preserve" text-anchor="start" x="1274.75" y="-13.32" font-family="Times,serif" font-size="14.00">ds_vis.persistence</text>
</g>
<!-- ds_vis.renderers -->
<g id="node18" class="node">
<title>ds_vis.renderers</title>
<polygon fill="none" stroke="black" points="211.25,-180 76.75,-180 76.75,-144 211.25,-144 211.25,-180"/>
<text xml:space="preserve" text-anchor="start" x="84.75" y="-157.32" font-family="Times,serif" font-size="14.00">ds_vis.renderers</text>
</g>
<!-- ds_vis.renderers.base -->
<g id="node19" class="node">
<title>ds_vis.renderers.base</title>
<polygon fill="none" stroke="black" points="172,-324 0,-324 0,-288 172,-288 172,-324"/>
<text xml:space="preserve" text-anchor="start" x="8" y="-301.32" font-family="Times,serif" font-size="14.00">ds_vis.renderers.base</text>
</g>
<!-- ds_vis.renderers&#45;&gt;ds_vis.renderers.base -->
<g id="edge19" class="edge">
<title>ds_vis.renderers&#45;&gt;ds_vis.renderers.base</title>
<path fill="none" stroke="black" d="M114.64,-180.4C102.46,-189.35 89.63,-201.45 83,-216 74.33,-235.02 75.65,-258.76 78.83,-276.94"/>
<polygon fill="black" stroke="black" points="80.8,-286.52 74.38,-277.63 80.04,-282.82 78.79,-276.73 78.79,-276.73 78.79,-276.73 80.04,-282.82 83.2,-275.82 80.8,-286.52"/>
</g>
<!-- ds_vis.renderers.pyside6.renderer -->
<g id="node21" class="node">
<title>ds_vis.renderers.pyside6.renderer</title>
<polygon fill="none" stroke="black" points="354,-252 92,-252 92,-216 354,-216 354,-252"/>
<text xml:space="preserve" text-anchor="start" x="100" y="-229.32" font-family="Times,serif" font-size="14.00">ds_vis.renderers.pyside6.renderer</text>
</g>
<!-- ds_vis.renderers&#45;&gt;ds_vis.renderers.pyside6.renderer -->
<g id="edge20" class="edge">
<title>ds_vis.renderers&#45;&gt;ds_vis.renderers.pyside6.renderer</title>
<path fill="none" stroke="black" d="M163.53,-180.3C173.12,-188.8 184.84,-199.19 195.33,-208.49"/>
<polygon fill="black" stroke="black" points="202.51,-214.85 192.04,-211.58 199.68,-212.34 195.03,-208.21 195.03,-208.21 195.03,-208.21 199.68,-212.34 198.01,-204.85 202.51,-214.85"/>
</g>
<!-- ds_vis.renderers.base&#45;&gt;ds_vis.core.ops -->
<g id="edge21" class="edge">
<title>ds_vis.renderers.base&#45;&gt;ds_vis.core.ops</title>
<path fill="none" stroke="black" d="M172.41,-321.99C177,-322.7 181.55,-323.37 186,-324 324.34,-343.61 486.59,-360.74 578.54,-369.91"/>
<polygon fill="black" stroke="black" points="588.46,-370.89 578.07,-374.38 584.7,-370.52 578.51,-369.91 578.51,-369.91 578.51,-369.91 584.7,-370.52 578.96,-365.43 588.46,-370.89"/>
</g>
<!-- ds_vis.renderers.pyside6 -->
<g id="node20" class="node">
<title>ds_vis.renderers.pyside6</title>
<polygon fill="none" stroke="black" points="1626.25,-36 1431.75,-36 1431.75,0 1626.25,0 1626.25,-36"/>
<text xml:space="preserve" text-anchor="start" x="1439.75" y="-13.32" font-family="Times,serif" font-size="14.00">ds_vis.renderers.pyside6</text>
</g>
<!-- ds_vis.renderers.pyside6.renderer&#45;&gt;ds_vis.core.ops -->
<g id="edge22" class="edge">
<title>ds_vis.renderers.pyside6.renderer&#45;&gt;ds_vis.core.ops</title>
<path fill="none" stroke="black" d="M215.8,-252.42C208.88,-272.29 201.78,-304.54 219,-324 242.4,-350.44 461.48,-366.48 578.73,-373.25"/>
<polygon fill="black" stroke="black" points="588.53,-373.8 578.3,-377.73 584.76,-373.59 578.55,-373.24 578.55,-373.24 578.55,-373.24 584.76,-373.59 578.81,-368.74 588.53,-373.8"/>
</g>
<!-- ds_vis.renderers.pyside6.renderer&#45;&gt;ds_vis.renderers.base -->
<g id="edge23" class="edge">
<title>ds_vis.renderers.pyside6.renderer&#45;&gt;ds_vis.renderers.base</title>
<path fill="none" stroke="black" d="M188.78,-252.48C170.91,-261.61 148.85,-272.89 129.75,-282.65"/>
<polygon fill="black" stroke="black" points="120.87,-287.19 127.72,-278.63 124.23,-285.46 129.77,-282.64 129.77,-282.64 129.77,-282.64 124.23,-285.46 131.82,-286.64 120.87,-287.19"/>
</g>
<!-- ds_vis.ui -->
<g id="node22" class="node">
<title>ds_vis.ui</title>
<polygon fill="none" stroke="black" points="1721.75,-36 1644.25,-36 1644.25,0 1721.75,0 1721.75,-36"/>
<text xml:space="preserve" text-anchor="start" x="1652.25" y="-13.32" font-family="Times,serif" font-size="14.00">ds_vis.ui</text>
</g>
<!-- ds_vis.ui.main_window -->
<g id="node23" class="node">
<title>ds_vis.ui.main_window</title>
<polygon fill="none" stroke="black" points="1145.38,-36 966.62,-36 966.62,0 1145.38,0 1145.38,-36"/>
<text xml:space="preserve" text-anchor="start" x="974.62" y="-13.32" font-family="Times,serif" font-size="14.00">ds_vis.ui.main_window</text>
</g>
<!-- ds_vis.ui.main_window&#45;&gt;ds_vis.core.scene -->
<g id="edge24" class="edge">
<title>ds_vis.ui.main_window&#45;&gt;ds_vis.core.scene</title>
<path fill="none" stroke="black" d="M1056,-36.3C1056,-43.68 1056,-52.48 1056,-60.75"/>
<polygon fill="black" stroke="black" points="1056,-70.68 1051.5,-60.68 1056,-66.9 1056,-60.68 1056,-60.68 1056,-60.68 1056,-66.9 1060.5,-60.68 1056,-70.68"/>
</g>
<!-- ds_vis.ui.main_window&#45;&gt;ds_vis.core.scene.command -->
<g id="edge25" class="edge">
<title>ds_vis.ui.main_window&#45;&gt;ds_vis.core.scene.command</title>
<path fill="none" stroke="black" d="M1084.67,-36.44C1100.07,-46.25 1119.1,-59.09 1135,-72 1189.19,-116 1246.13,-174.78 1276.92,-207.77"/>
<polygon fill="black" stroke="black" points="1283.7,-215.08 1273.6,-210.81 1281.12,-212.31 1276.89,-207.75 1276.89,-207.75 1276.89,-207.75 1281.12,-212.31 1280.19,-204.69 1283.7,-215.08"/>
</g>
<!-- ds_vis.ui.main_window&#45;&gt;ds_vis.renderers.pyside6.renderer -->
<g id="edge26" class="edge">
<title>ds_vis.ui.main_window&#45;&gt;ds_vis.renderers.pyside6.renderer</title>
<path fill="none" stroke="black" d="M988.19,-36.42C835.2,-75.72 463.96,-171.1 301.42,-212.85"/>
<polygon fill="black" stroke="black" points="292.2,-215.22 300.76,-208.38 295.86,-214.28 301.88,-212.73 301.88,-212.73 301.88,-212.73 295.86,-214.28 303,-217.09 292.2,-215.22"/>
</g>
</g>
</svg>
