<?xml version="1.0" encoding="UTF-8" standalone="no"?>
<!DOCTYPE svg PUBLIC "-//W3C//DTD SVG 1.1//EN"
 "http://www.w3.org/Graphics/SVG/1.1/DTD/svg11.dtd">
<!-- Generated by graphviz version 14.1.0 (20251207.0913)
 -->
<!-- Title: packages_ds_vis Pages: 1 -->
<svg width="2689pt" height="764pt"
 viewBox="0.00 0.00 2689.00 764.00" xmlns="http://www.w3.org/2000/svg" xmlns:xlink="http://www.w3.org/1999/xlink">
<g id="graph0" class="graph" transform="scale(1 1) rotate(0) translate(4 760)">
<title>packages_ds_vis</title>
<polygon fill="white" stroke="none" points="-4,4 -4,-760 2685.32,-760 2685.32,4 -4,4"/>
<!-- ds_vis -->
<g id="node1" class="node">
<title>ds_vis</title>
<polygon fill="none" stroke="black" points="1970.16,-36 1910.66,-36 1910.66,0 1970.16,0 1970.16,-36"/>
<text xml:space="preserve" text-anchor="start" x="1918.66" y="-13.32" font-family="Times,serif" font-size="14.00">ds_vis</text>
</g>
<!-- ds_vis.core -->
<g id="node2" class="node">
<title>ds_vis.core</title>
<polygon fill="none" stroke="black" points="2085.78,-468 1991.03,-468 1991.03,-432 2085.78,-432 2085.78,-468"/>
<text xml:space="preserve" text-anchor="start" x="1999.03" y="-445.32" font-family="Times,serif" font-size="14.00">ds_vis.core</text>
</g>
<!-- ds_vis.core.exceptions -->
<g id="node3" class="node">
<title>ds_vis.core.exceptions</title>
<polygon fill="none" stroke="black" points="1937.28,-540 1761.53,-540 1761.53,-504 1937.28,-504 1937.28,-540"/>
<text xml:space="preserve" text-anchor="start" x="1769.53" y="-517.33" font-family="Times,serif" font-size="14.00">ds_vis.core.exceptions</text>
</g>
<!-- ds_vis.core&#45;&gt;ds_vis.core.exceptions -->
<g id="edge1" class="edge">
<title>ds_vis.core&#45;&gt;ds_vis.core.exceptions</title>
<path fill="none" stroke="black" d="M1991.2,-468.48C1965.62,-477.96 1933.81,-489.74 1906.81,-499.74"/>
<polygon fill="black" stroke="black" points="1897.48,-503.2 1905.29,-495.5 1901.02,-501.88 1906.86,-499.72 1906.86,-499.72 1906.86,-499.72 1901.02,-501.88 1908.42,-503.94 1897.48,-503.2"/>
</g>
<!-- ds_vis.core.layout -->
<g id="node4" class="node">
<title>ds_vis.core.layout</title>
<polygon fill="none" stroke="black" points="326.16,-396 182.66,-396 182.66,-360 326.16,-360 326.16,-396"/>
<text xml:space="preserve" text-anchor="start" x="190.66" y="-373.32" font-family="Times,serif" font-size="14.00">ds_vis.core.layout</text>
</g>
<!-- ds_vis.core.ops -->
<g id="node17" class="node">
<title>ds_vis.core.ops</title>
<polygon fill="none" stroke="black" points="1100.41,-612 976.41,-612 976.41,-576 1100.41,-576 1100.41,-612"/>
<text xml:space="preserve" text-anchor="start" x="984.41" y="-589.33" font-family="Times,serif" font-size="14.00">ds_vis.core.ops</text>
</g>
<!-- ds_vis.core.layout&#45;&gt;ds_vis.core.ops -->
<g id="edge2" class="edge">
<title>ds_vis.core.layout&#45;&gt;ds_vis.core.ops</title>
<path fill="none" stroke="black" d="M194.4,-396.5C111.65,-423.42 -21.02,-478.39 37.41,-540 69.26,-573.58 739.72,-587.96 965.18,-591.85"/>
<polygon fill="black" stroke="black" points="974.99,-592.02 964.92,-596.35 971.21,-591.95 964.99,-591.85 964.99,-591.85 964.99,-591.85 971.21,-591.95 965.07,-587.35 974.99,-592.02"/>
</g>
<!-- ds_vis.core.layout.git -->
<g id="node5" class="node">
<title>ds_vis.core.layout.git</title>
<polygon fill="none" stroke="black" points="450.16,-324 282.66,-324 282.66,-288 450.16,-288 450.16,-324"/>
<text xml:space="preserve" text-anchor="start" x="290.66" y="-301.32" font-family="Times,serif" font-size="14.00">ds_vis.core.layout.git</text>
</g>
<!-- ds_vis.core.layout.git&#45;&gt;ds_vis.core.layout -->
<g id="edge3" class="edge">
<title>ds_vis.core.layout.git&#45;&gt;ds_vis.core.layout</title>
<path fill="none" stroke="black" d="M338.43,-324.48C324.16,-333.4 306.61,-344.37 291.25,-353.97"/>
<polygon fill="black" stroke="black" points="283.06,-359.09 289.15,-349.98 286.26,-357.09 291.54,-353.79 291.54,-353.79 291.54,-353.79 286.26,-357.09 293.92,-357.61 283.06,-359.09"/>
</g>
<!-- ds_vis.core.layout.git&#45;&gt;ds_vis.core.ops -->
<g id="edge4" class="edge">
<title>ds_vis.core.layout.git&#45;&gt;ds_vis.core.ops</title>
<path fill="none" stroke="black" d="M366.85,-324.4C369.12,-371.02 382.76,-498.02 463.41,-540 548.93,-584.51 830.53,-592.06 965.29,-593.06"/>
<polygon fill="black" stroke="black" points="975.08,-593.12 965.05,-597.55 971.3,-593.09 965.08,-593.05 965.08,-593.05 965.08,-593.05 971.3,-593.09 965.11,-588.55 975.08,-593.12"/>
</g>
<!-- ds_vis.core.layout.simple -->
<g id="node6" class="node">
<title>ds_vis.core.layout.simple</title>
<polygon fill="none" stroke="black" points="226.03,-324 30.78,-324 30.78,-288 226.03,-288 226.03,-324"/>
<text xml:space="preserve" text-anchor="start" x="38.78" y="-301.32" font-family="Times,serif" font-size="14.00">ds_vis.core.layout.simple</text>
</g>
<!-- ds_vis.core.layout.simple&#45;&gt;ds_vis.core.layout -->
<g id="edge5" class="edge">
<title>ds_vis.core.layout.simple&#45;&gt;ds_vis.core.layout</title>
<path fill="none" stroke="black" d="M159.88,-324.48C176.24,-333.57 196.42,-344.78 213.93,-354.51"/>
<polygon fill="black" stroke="black" points="222.27,-359.15 211.34,-358.22 218.97,-357.31 213.53,-354.29 213.53,-354.29 213.53,-354.29 218.97,-357.31 215.72,-350.36 222.27,-359.15"/>
</g>
<!-- ds_vis.core.layout.simple&#45;&gt;ds_vis.core.ops -->
<g id="edge6" class="edge">
<title>ds_vis.core.layout.simple&#45;&gt;ds_vis.core.ops</title>
<path fill="none" stroke="black" d="M108.3,-324.37C62.1,-366.27 -43.01,-474.25 19.41,-540 51.9,-574.23 736.72,-588.2 965.05,-591.92"/>
<polygon fill="black" stroke="black" points="975,-592.08 964.93,-596.42 971.22,-592.02 965,-591.92 965,-591.92 965,-591.92 971.22,-592.02 965.08,-587.42 975,-592.08"/>
</g>
<!-- ds_vis.core.layout.tree -->
<g id="node7" class="node">
<title>ds_vis.core.layout.tree</title>
<polygon fill="none" stroke="black" points="645.03,-324 467.78,-324 467.78,-288 645.03,-288 645.03,-324"/>
<text xml:space="preserve" text-anchor="start" x="475.78" y="-301.32" font-family="Times,serif" font-size="14.00">ds_vis.core.layout.tree</text>
</g>
<!-- ds_vis.core.layout.tree&#45;&gt;ds_vis.core.layout -->
<g id="edge7" class="edge">
<title>ds_vis.core.layout.tree&#45;&gt;ds_vis.core.layout</title>
<path fill="none" stroke="black" d="M480.98,-324.48C437.32,-334.6 382.3,-347.35 337.42,-357.76"/>
<polygon fill="black" stroke="black" points="327.72,-360.01 336.45,-353.36 331.41,-359.15 337.46,-357.75 337.46,-357.75 337.46,-357.75 331.41,-359.15 338.48,-362.13 327.72,-360.01"/>
</g>
<!-- ds_vis.core.layout.tree&#45;&gt;ds_vis.core.ops -->
<g id="edge8" class="edge">
<title>ds_vis.core.layout.tree&#45;&gt;ds_vis.core.ops</title>
<path fill="none" stroke="black" d="M521.35,-324.45C467.47,-353.56 374.78,-414.14 417.41,-468 484.61,-552.92 815.95,-581.16 965.25,-589.67"/>
<polygon fill="black" stroke="black" points="974.89,-590.21 964.65,-594.14 971.11,-590 964.9,-589.65 964.9,-589.65 964.9,-589.65 971.11,-590 965.15,-585.16 974.89,-590.21"/>
</g>
<!-- ds_vis.core.models -->
<g id="node8" class="node">
<title>ds_vis.core.models</title>
<polygon fill="none" stroke="black" points="1314.53,-396 1164.28,-396 1164.28,-360 1314.53,-360 1314.53,-396"/>
<text xml:space="preserve" text-anchor="start" x="1172.28" y="-373.32" font-family="Times,serif" font-size="14.00">ds_vis.core.models</text>
</g>
<!-- ds_vis.core.models.base -->
<g id="node10" class="node">
<title>ds_vis.core.models.base</title>
<polygon fill="none" stroke="black" points="1193.28,-540 1005.53,-540 1005.53,-504 1193.28,-504 1193.28,-540"/>
<text xml:space="preserve" text-anchor="start" x="1013.53" y="-517.33" font-family="Times,serif" font-size="14.00">ds_vis.core.models.base</text>
</g>
<!-- ds_vis.core.models&#45;&gt;ds_vis.core.models.base -->
<g id="edge9" class="edge">
<title>ds_vis.core.models&#45;&gt;ds_vis.core.models.base</title>
<path fill="none" stroke="black" d="M1167.53,-396.5C1148.38,-404.41 1129.43,-415.77 1116.41,-432 1102.79,-448.97 1098.92,-473.58 1098.25,-492.62"/>
<polygon fill="black" stroke="black" points="1098.19,-502.42 1093.75,-492.39 1098.21,-498.64 1098.25,-492.42 1098.25,-492.42 1098.25,-492.42 1098.21,-498.64 1102.75,-492.45 1098.19,-502.42"/>
</g>
<!-- ds_vis.core.models.bst -->
<g id="node11" class="node">
<title>ds_vis.core.models.bst</title>
<polygon fill="none" stroke="black" points="1069.03,-468 891.78,-468 891.78,-432 1069.03,-432 1069.03,-468"/>
<text xml:space="preserve" text-anchor="start" x="899.78" y="-445.32" font-family="Times,serif" font-size="14.00">ds_vis.core.models.bst</text>
</g>
<!-- ds_vis.core.models&#45;&gt;ds_vis.core.models.bst -->
<g id="edge10" class="edge">
<title>ds_vis.core.models&#45;&gt;ds_vis.core.models.bst</title>
<path fill="none" stroke="black" d="M1174.72,-396.48C1138.42,-406.29 1092.98,-418.57 1055.17,-428.79"/>
<polygon fill="black" stroke="black" points="1045.89,-431.3 1054.37,-424.35 1049.54,-430.31 1055.55,-428.69 1055.55,-428.69 1055.55,-428.69 1049.54,-430.31 1056.72,-433.04 1045.89,-431.3"/>
</g>
<!-- ds_vis.core.models.gitgraph -->
<g id="node12" class="node">
<title>ds_vis.core.models.gitgraph</title>
<polygon fill="none" stroke="black" points="642.53,-468 426.28,-468 426.28,-432 642.53,-432 642.53,-468"/>
<text xml:space="preserve" text-anchor="start" x="434.28" y="-445.32" font-family="Times,serif" font-size="14.00">ds_vis.core.models.gitgraph</text>
</g>
<!-- ds_vis.core.models&#45;&gt;ds_vis.core.models.gitgraph -->
<g id="edge11" class="edge">
<title>ds_vis.core.models&#45;&gt;ds_vis.core.models.gitgraph</title>
<path fill="none" stroke="black" d="M1164.09,-384.47C1054.23,-392.74 843.37,-409.72 653.76,-431.76"/>
<polygon fill="black" stroke="black" points="643.95,-432.91 653.36,-427.27 647.71,-432.47 653.89,-431.74 653.89,-431.74 653.89,-431.74 647.71,-432.47 654.41,-436.21 643.95,-432.91"/>
</g>
<!-- ds_vis.core.models.huffman -->
<g id="node13" class="node">
<title>ds_vis.core.models.huffman</title>
<polygon fill="none" stroke="black" points="874.03,-468 660.78,-468 660.78,-432 874.03,-432 874.03,-468"/>
<text xml:space="preserve" text-anchor="start" x="668.78" y="-445.32" font-family="Times,serif" font-size="14.00">ds_vis.core.models.huffman</text>
</g>
<!-- ds_vis.core.models&#45;&gt;ds_vis.core.models.huffman -->
<g id="edge12" class="edge">
<title>ds_vis.core.models&#45;&gt;ds_vis.core.models.huffman</title>
<path fill="none" stroke="black" d="M1163.83,-390.21C1088.78,-401.34 972.63,-418.56 885.42,-431.5"/>
<polygon fill="black" stroke="black" points="875.6,-432.95 884.83,-427.04 879.34,-432.4 885.49,-431.49 885.49,-431.49 885.49,-431.49 879.34,-432.4 886.15,-435.94 875.6,-432.95"/>
</g>
<!-- ds_vis.core.models.list_model -->
<g id="node14" class="node">
<title>ds_vis.core.models.list_model</title>
<polygon fill="none" stroke="black" points="1353.16,-468 1125.66,-468 1125.66,-432 1353.16,-432 1353.16,-468"/>
<text xml:space="preserve" text-anchor="start" x="1133.66" y="-445.32" font-family="Times,serif" font-size="14.00">ds_vis.core.models.list_model</text>
</g>
<!-- ds_vis.core.models&#45;&gt;ds_vis.core.models.list_model -->
<g id="edge13" class="edge">
<title>ds_vis.core.models&#45;&gt;ds_vis.core.models.list_model</title>
<path fill="none" stroke="black" d="M1239.41,-396.3C1239.41,-403.68 1239.41,-412.48 1239.41,-420.75"/>
<polygon fill="black" stroke="black" points="1239.41,-430.68 1234.91,-420.68 1239.41,-426.9 1239.41,-420.68 1239.41,-420.68 1239.41,-420.68 1239.41,-426.9 1243.91,-420.68 1239.41,-430.68"/>
</g>
<!-- ds_vis.core.models.seqlist -->
<g id="node15" class="node">
<title>ds_vis.core.models.seqlist</title>
<polygon fill="none" stroke="black" points="1821.41,-468 1619.41,-468 1619.41,-432 1821.41,-432 1821.41,-468"/>
<text xml:space="preserve" text-anchor="start" x="1627.41" y="-445.32" font-family="Times,serif" font-size="14.00">ds_vis.core.models.seqlist</text>
</g>
<!-- ds_vis.core.models&#45;&gt;ds_vis.core.models.seqlist -->
<g id="edge14" class="edge">
<title>ds_vis.core.models&#45;&gt;ds_vis.core.models.seqlist</title>
<path fill="none" stroke="black" d="M1314.76,-389.51C1387.26,-399.68 1500.27,-415.68 1608.03,-431.66"/>
<polygon fill="black" stroke="black" points="1617.91,-433.12 1607.36,-436.1 1614.17,-432.57 1608.02,-431.65 1608.02,-431.65 1608.02,-431.65 1614.17,-432.57 1608.68,-427.2 1617.91,-433.12"/>
</g>
<!-- ds_vis.core.models.stack -->
<g id="node16" class="node">
<title>ds_vis.core.models.stack</title>
<polygon fill="none" stroke="black" points="1601.53,-468 1409.28,-468 1409.28,-432 1601.53,-432 1601.53,-468"/>
<text xml:space="preserve" text-anchor="start" x="1417.28" y="-445.32" font-family="Times,serif" font-size="14.00">ds_vis.core.models.stack</text>
</g>
<!-- ds_vis.core.models&#45;&gt;ds_vis.core.models.stack -->
<g id="edge15" class="edge">
<title>ds_vis.core.models&#45;&gt;ds_vis.core.models.stack</title>
<path fill="none" stroke="black" d="M1305.84,-396.48C1343.12,-406.29 1389.79,-418.57 1428.62,-428.79"/>
<polygon fill="black" stroke="black" points="1438.18,-431.31 1427.36,-433.12 1434.52,-430.35 1428.51,-428.76 1428.51,-428.76 1428.51,-428.76 1434.52,-430.35 1429.65,-424.41 1438.18,-431.31"/>
</g>
<!-- ds_vis.core.models.animation_helpers -->
<g id="node9" class="node">
<title>ds_vis.core.models.animation_helpers</title>
<polygon fill="none" stroke="black" points="332.41,-540 46.41,-540 46.41,-504 332.41,-504 332.41,-540"/>
<text xml:space="preserve" text-anchor="start" x="54.41" y="-517.33" font-family="Times,serif" font-size="14.00">ds_vis.core.models.animation_helpers</text>
</g>
<!-- ds_vis.core.models.animation_helpers&#45;&gt;ds_vis.core.ops -->
<g id="edge16" class="edge">
<title>ds_vis.core.models.animation_helpers&#45;&gt;ds_vis.core.ops</title>
<path fill="none" stroke="black" d="M332.71,-538.7C337.33,-539.15 341.9,-539.58 346.41,-540 571.76,-560.83 838.95,-579.62 965.27,-588.16"/>
<polygon fill="black" stroke="black" points="975.1,-588.82 964.82,-592.64 971.33,-588.57 965.13,-588.15 965.13,-588.15 965.13,-588.15 971.33,-588.57 965.43,-583.66 975.1,-588.82"/>
</g>
<!-- ds_vis.core.models.base&#45;&gt;ds_vis.core.ops -->
<g id="edge17" class="edge">
<title>ds_vis.core.models.base&#45;&gt;ds_vis.core.ops</title>
<path fill="none" stroke="black" d="M1084.33,-540.3C1077.16,-548.53 1068.46,-558.52 1060.56,-567.58"/>
<polygon fill="black" stroke="black" points="1054.11,-574.98 1057.29,-564.48 1056.6,-572.13 1060.68,-567.44 1060.68,-567.44 1060.68,-567.44 1056.6,-572.13 1064.07,-570.39 1054.11,-574.98"/>
</g>
<!-- ds_vis.core.models.bst&#45;&gt;ds_vis.core.exceptions -->
<g id="edge18" class="edge">
<title>ds_vis.core.models.bst&#45;&gt;ds_vis.core.exceptions</title>
<path fill="none" stroke="black" d="M1069.22,-462.78C1084.92,-464.67 1101.13,-466.49 1116.41,-468 1342.64,-490.3 1609.03,-507.23 1750.09,-515.47"/>
<polygon fill="black" stroke="black" points="1760.05,-516.05 1749.81,-519.96 1756.28,-515.83 1750.07,-515.47 1750.07,-515.47 1750.07,-515.47 1756.28,-515.83 1750.33,-510.97 1760.05,-516.05"/>
</g>
<!-- ds_vis.core.models.bst&#45;&gt;ds_vis.core.models.base -->
<g id="edge19" class="edge">
<title>ds_vis.core.models.bst&#45;&gt;ds_vis.core.models.base</title>
<path fill="none" stroke="black" d="M1010.13,-468.48C1025.43,-477.49 1044.29,-488.58 1060.71,-498.24"/>
<polygon fill="black" stroke="black" points="1069.01,-503.12 1058.11,-501.93 1065.75,-501.2 1060.39,-498.05 1060.39,-498.05 1060.39,-498.05 1065.75,-501.2 1062.67,-494.17 1069.01,-503.12"/>
</g>
<!-- ds_vis.core.models.bst&#45;&gt;ds_vis.core.ops -->
<g id="edge20" class="edge">
<title>ds_vis.core.models.bst&#45;&gt;ds_vis.core.ops</title>
<path fill="none" stroke="black" d="M981.04,-468.47C982.27,-486.97 985.88,-516.68 996.41,-540 1000.8,-549.74 1007.39,-559.26 1014.05,-567.48"/>
<polygon fill="black" stroke="black" points="1020.41,-574.92 1010.49,-570.24 1017.95,-572.04 1013.9,-567.32 1013.9,-567.32 1013.9,-567.32 1017.95,-572.04 1017.32,-564.39 1020.41,-574.92"/>
</g>
<!-- ds_vis.core.models.gitgraph&#45;&gt;ds_vis.core.exceptions -->
<g id="edge21" class="edge">
<title>ds_vis.core.models.gitgraph&#45;&gt;ds_vis.core.exceptions</title>
<path fill="none" stroke="black" d="M642.72,-467.13C645.65,-467.44 648.54,-467.73 651.41,-468 863.57,-488.06 1502.57,-509.93 1750.02,-517.89"/>
<polygon fill="black" stroke="black" points="1759.93,-518.21 1749.8,-522.38 1756.15,-518.08 1749.94,-517.88 1749.94,-517.88 1749.94,-517.88 1756.15,-518.08 1750.08,-513.39 1759.93,-518.21"/>
</g>
<!-- ds_vis.core.models.gitgraph&#45;&gt;ds_vis.core.models.base -->
<g id="edge22" class="edge">
<title>ds_vis.core.models.gitgraph&#45;&gt;ds_vis.core.models.base</title>
<path fill="none" stroke="black" d="M642.76,-466.85C645.67,-467.24 648.56,-467.62 651.41,-468 768.62,-483.45 903.37,-499.1 994.22,-509.35"/>
<polygon fill="black" stroke="black" points="1004.15,-510.47 993.7,-513.82 1000.39,-510.05 994.21,-509.35 994.21,-509.35 994.21,-509.35 1000.39,-510.05 994.71,-504.88 1004.15,-510.47"/>
</g>
<!-- ds_vis.core.models.gitgraph&#45;&gt;ds_vis.core.ops -->
<g id="edge23" class="edge">
<title>ds_vis.core.models.gitgraph&#45;&gt;ds_vis.core.ops</title>
<path fill="none" stroke="black" d="M596.46,-468.48C690.01,-494.84 866.75,-544.64 966.03,-572.61"/>
<polygon fill="black" stroke="black" points="975.39,-575.25 964.55,-576.87 971.75,-574.22 965.77,-572.53 965.77,-572.53 965.77,-572.53 971.75,-574.22 966.99,-568.2 975.39,-575.25"/>
</g>
<!-- ds_vis.core.models.huffman&#45;&gt;ds_vis.core.exceptions -->
<g id="edge24" class="edge">
<title>ds_vis.core.models.huffman&#45;&gt;ds_vis.core.exceptions</title>
<path fill="none" stroke="black" d="M874.49,-467.16C877.15,-467.46 879.8,-467.74 882.41,-468 1198.48,-499.96 1574.76,-513.61 1750.19,-518.57"/>
<polygon fill="black" stroke="black" points="1759.98,-518.85 1749.86,-523.07 1756.2,-518.74 1749.98,-518.57 1749.98,-518.57 1749.98,-518.57 1756.2,-518.74 1750.11,-514.07 1759.98,-518.85"/>
</g>
<!-- ds_vis.core.models.huffman&#45;&gt;ds_vis.core.models.base -->
<g id="edge25" class="edge">
<title>ds_vis.core.models.huffman&#45;&gt;ds_vis.core.models.base</title>
<path fill="none" stroke="black" d="M850.33,-468.48C897.56,-478.44 956.87,-490.95 1005.77,-501.26"/>
<polygon fill="black" stroke="black" points="1015.49,-503.31 1004.77,-505.65 1011.79,-502.53 1005.7,-501.24 1005.7,-501.24 1005.7,-501.24 1011.79,-502.53 1006.63,-496.84 1015.49,-503.31"/>
</g>
<!-- ds_vis.core.models.huffman&#45;&gt;ds_vis.core.ops -->
<g id="edge26" class="edge">
<title>ds_vis.core.models.huffman&#45;&gt;ds_vis.core.ops</title>
<path fill="none" stroke="black" d="M800.64,-468.41C849.73,-494.14 941.66,-542.31 995.7,-570.62"/>
<polygon fill="black" stroke="black" points="1004.25,-575.1 993.3,-574.45 1000.9,-573.35 995.39,-570.46 995.39,-570.46 995.39,-570.46 1000.9,-573.35 997.48,-566.48 1004.25,-575.1"/>
</g>
<!-- ds_vis.core.models.list_model&#45;&gt;ds_vis.core.exceptions -->
<g id="edge27" class="edge">
<title>ds_vis.core.models.list_model&#45;&gt;ds_vis.core.exceptions</title>
<path fill="none" stroke="black" d="M1353.43,-464.08C1467.61,-477.19 1641.55,-497.15 1750.2,-509.62"/>
<polygon fill="black" stroke="black" points="1759.94,-510.73 1749.5,-514.06 1756.19,-510.3 1750.01,-509.59 1750.01,-509.59 1750.01,-509.59 1756.19,-510.3 1750.52,-505.12 1759.94,-510.73"/>
</g>
<!-- ds_vis.core.models.list_model&#45;&gt;ds_vis.core.models.base -->
<g id="edge28" class="edge">
<title>ds_vis.core.models.list_model&#45;&gt;ds_vis.core.models.base</title>
<path fill="none" stroke="black" d="M1204.44,-468.48C1186.09,-477.66 1163.42,-488.99 1143.84,-498.78"/>
<polygon fill="black" stroke="black" points="1135.02,-503.19 1141.95,-494.7 1138.4,-501.5 1143.96,-498.72 1143.96,-498.72 1143.96,-498.72 1138.4,-501.5 1145.97,-502.75 1135.02,-503.19"/>
</g>
<!-- ds_vis.core.models.list_model&#45;&gt;ds_vis.core.ops -->
<g id="edge29" class="edge">
<title>ds_vis.core.models.list_model&#45;&gt;ds_vis.core.ops</title>
<path fill="none" stroke="black" d="M1236.69,-468.21C1232.66,-488.19 1223.2,-520.83 1202.41,-540 1177.61,-562.86 1142.85,-575.86 1111.72,-583.26"/>
<polygon fill="black" stroke="black" points="1102.07,-585.38 1110.87,-578.84 1105.76,-584.57 1111.84,-583.23 1111.84,-583.23 1111.84,-583.23 1105.76,-584.57 1112.81,-587.63 1102.07,-585.38"/>
</g>
<!-- ds_vis.core.models.seqlist&#45;&gt;ds_vis.core.exceptions -->
<g id="edge30" class="edge">
<title>ds_vis.core.models.seqlist&#45;&gt;ds_vis.core.exceptions</title>
<path fill="none" stroke="black" d="M1752.62,-468.48C1769.37,-477.57 1790.04,-488.78 1807.96,-498.51"/>
<polygon fill="black" stroke="black" points="1816.53,-503.16 1805.59,-502.34 1813.2,-501.35 1807.74,-498.39 1807.74,-498.39 1807.74,-498.39 1813.2,-501.35 1809.88,-494.43 1816.53,-503.16"/>
</g>
<!-- ds_vis.core.models.seqlist&#45;&gt;ds_vis.core.models.base -->
<g id="edge31" class="edge">
<title>ds_vis.core.models.seqlist&#45;&gt;ds_vis.core.models.base</title>
<path fill="none" stroke="black" d="M1619.14,-466.85C1616.2,-467.24 1613.28,-467.63 1610.41,-468 1470.44,-486.06 1308.27,-502.05 1204.82,-511.62"/>
<polygon fill="black" stroke="black" points="1194.96,-512.53 1204.51,-507.13 1198.73,-512.18 1204.92,-511.61 1204.92,-511.61 1204.92,-511.61 1198.73,-512.18 1205.34,-516.09 1194.96,-512.53"/>
</g>
<!-- ds_vis.core.models.seqlist&#45;&gt;ds_vis.core.ops -->
<g id="edge32" class="edge">
<title>ds_vis.core.models.seqlist&#45;&gt;ds_vis.core.ops</title>
<path fill="none" stroke="black" d="M1673.52,-468.5C1617.93,-488.59 1522.13,-521.2 1437.41,-540 1325.18,-564.91 1192.42,-579.69 1111.86,-587.07"/>
<polygon fill="black" stroke="black" points="1102.06,-587.96 1111.61,-582.58 1105.83,-587.62 1112.02,-587.06 1112.02,-587.06 1112.02,-587.06 1105.83,-587.62 1112.42,-591.54 1102.06,-587.96"/>
</g>
<!-- ds_vis.core.models.stack&#45;&gt;ds_vis.core.exceptions -->
<g id="edge33" class="edge">
<title>ds_vis.core.models.stack&#45;&gt;ds_vis.core.exceptions</title>
<path fill="none" stroke="black" d="M1591.32,-468.48C1640.36,-478.46 1701.98,-491 1752.71,-501.32"/>
<polygon fill="black" stroke="black" points="1762.49,-503.31 1751.8,-505.73 1758.79,-502.56 1752.7,-501.32 1752.7,-501.32 1752.7,-501.32 1758.79,-502.56 1753.59,-496.91 1762.49,-503.31"/>
</g>
<!-- ds_vis.core.models.stack&#45;&gt;ds_vis.core.models.base -->
<g id="edge34" class="edge">
<title>ds_vis.core.models.stack&#45;&gt;ds_vis.core.models.base</title>
<path fill="none" stroke="black" d="M1408.93,-467.63C1347.41,-478.24 1267.68,-491.99 1204.55,-502.87"/>
<polygon fill="black" stroke="black" points="1194.96,-504.52 1204.05,-498.39 1198.69,-503.88 1204.82,-502.83 1204.82,-502.83 1204.82,-502.83 1198.69,-503.88 1205.58,-507.26 1194.96,-504.52"/>
</g>
<!-- ds_vis.core.models.stack&#45;&gt;ds_vis.core.ops -->
<g id="edge35" class="edge">
<title>ds_vis.core.models.stack&#45;&gt;ds_vis.core.ops</title>
<path fill="none" stroke="black" d="M1489.8,-468.33C1470.03,-489.07 1433.87,-523.11 1395.41,-540 1303.32,-580.44 1186.37,-591.01 1111.93,-593.26"/>
<polygon fill="black" stroke="black" points="1102.03,-593.51 1111.91,-588.76 1105.81,-593.42 1112.02,-593.26 1112.02,-593.26 1112.02,-593.26 1105.81,-593.42 1112.14,-597.76 1102.03,-593.51"/>
</g>
<!-- ds_vis.core.ops.ops -->
<g id="node18" class="node">
<title>ds_vis.core.ops.ops</title>
<polygon fill="none" stroke="black" points="1115.03,-756 961.78,-756 961.78,-720 1115.03,-720 1115.03,-756"/>
<text xml:space="preserve" text-anchor="start" x="969.78" y="-733.33" font-family="Times,serif" font-size="14.00">ds_vis.core.ops.ops</text>
</g>
<!-- ds_vis.core.ops&#45;&gt;ds_vis.core.ops.ops -->
<g id="edge36" class="edge">
<title>ds_vis.core.ops&#45;&gt;ds_vis.core.ops.ops</title>
<path fill="none" stroke="black" d="M1020.24,-612.32C1011.52,-621.9 1001.99,-634.57 997.41,-648 992.23,-663.14 992.23,-668.86 997.41,-684 1000.74,-693.76 1006.68,-703.11 1013.02,-711.17"/>
<polygon fill="black" stroke="black" points="1019.45,-718.75 1009.55,-714.03 1017,-715.86 1012.98,-711.12 1012.98,-711.12 1012.98,-711.12 1017,-715.86 1016.41,-708.21 1019.45,-718.75"/>
</g>
<!-- ds_vis.core.ops.timeline -->
<g id="node19" class="node">
<title>ds_vis.core.ops.timeline</title>
<polygon fill="none" stroke="black" points="1192.91,-684 1005.91,-684 1005.91,-648 1192.91,-648 1192.91,-684"/>
<text xml:space="preserve" text-anchor="start" x="1013.91" y="-661.33" font-family="Times,serif" font-size="14.00">ds_vis.core.ops.timeline</text>
</g>
<!-- ds_vis.core.ops&#45;&gt;ds_vis.core.ops.timeline -->
<g id="edge37" class="edge">
<title>ds_vis.core.ops&#45;&gt;ds_vis.core.ops.timeline</title>
<path fill="none" stroke="black" d="M1053.48,-612.3C1060.65,-620.53 1069.36,-630.52 1077.25,-639.58"/>
<polygon fill="black" stroke="black" points="1083.7,-646.98 1073.74,-642.39 1081.22,-644.13 1077.13,-639.44 1077.13,-639.44 1077.13,-639.44 1081.22,-644.13 1080.52,-636.48 1083.7,-646.98"/>
</g>
<!-- ds_vis.core.ops.timeline&#45;&gt;ds_vis.core.ops.ops -->
<g id="edge38" class="edge">
<title>ds_vis.core.ops.timeline&#45;&gt;ds_vis.core.ops.ops</title>
<path fill="none" stroke="black" d="M1084.33,-684.3C1077.16,-692.53 1068.46,-702.52 1060.56,-711.58"/>
<polygon fill="black" stroke="black" points="1054.11,-718.98 1057.29,-708.48 1056.6,-716.13 1060.68,-711.44 1060.68,-711.44 1060.68,-711.44 1056.6,-716.13 1064.07,-714.39 1054.11,-718.98"/>
</g>
<!-- ds_vis.core.scene -->
<g id="node20" class="node">
<title>ds_vis.core.scene</title>
<polygon fill="none" stroke="black" points="2257.28,-180 2117.53,-180 2117.53,-144 2257.28,-144 2257.28,-180"/>
<text xml:space="preserve" text-anchor="start" x="2125.53" y="-157.32" font-family="Times,serif" font-size="14.00">ds_vis.core.scene</text>
</g>
<!-- ds_vis.core.scene.command -->
<g id="node21" class="node">
<title>ds_vis.core.scene.command</title>
<polygon fill="none" stroke="black" points="2205.03,-396 1991.78,-396 1991.78,-360 2205.03,-360 2205.03,-396"/>
<text xml:space="preserve" text-anchor="start" x="1999.78" y="-373.32" font-family="Times,serif" font-size="14.00">ds_vis.core.scene.command</text>
</g>
<!-- ds_vis.core.scene&#45;&gt;ds_vis.core.scene.command -->
<g id="edge39" class="edge">
<title>ds_vis.core.scene&#45;&gt;ds_vis.core.scene.command</title>
<path fill="none" stroke="black" d="M2228.5,-180.35C2243.21,-188.81 2258.17,-200.55 2266.41,-216 2273.93,-230.12 2273.59,-237.7 2266.41,-252 2242.26,-300.07 2189.9,-334.33 2150.01,-354.68"/>
<polygon fill="black" stroke="black" points="2141.26,-359.02 2148.22,-350.55 2144.65,-357.34 2150.22,-354.58 2150.22,-354.58 2150.22,-354.58 2144.65,-357.34 2152.22,-358.61 2141.26,-359.02"/>
</g>
<!-- ds_vis.core.scene.scene_graph -->
<g id="node23" class="node">
<title>ds_vis.core.scene.scene_graph</title>
<polygon fill="none" stroke="black" points="1650.16,-252 1416.66,-252 1416.66,-216 1650.16,-216 1650.16,-252"/>
<text xml:space="preserve" text-anchor="start" x="1424.66" y="-229.32" font-family="Times,serif" font-size="14.00">ds_vis.core.scene.scene_graph</text>
</g>
<!-- ds_vis.core.scene&#45;&gt;ds_vis.core.scene.scene_graph -->
<g id="edge40" class="edge">
<title>ds_vis.core.scene&#45;&gt;ds_vis.core.scene.scene_graph</title>
<path fill="none" stroke="black" d="M2117.28,-178.55C2114.28,-179.07 2111.32,-179.55 2108.41,-180 1955.77,-203.37 1778.65,-217.81 1661.76,-225.6"/>
<polygon fill="black" stroke="black" points="1651.86,-226.25 1661.54,-221.1 1655.63,-226 1661.84,-225.59 1661.84,-225.59 1661.84,-225.59 1655.63,-226 1662.13,-230.08 1651.86,-226.25"/>
</g>
<!-- ds_vis.core.scene.command_schema -->
<g id="node22" class="node">
<title>ds_vis.core.scene.command_schema</title>
<polygon fill="none" stroke="black" points="1821.41,-324 1547.41,-324 1547.41,-288 1821.41,-288 1821.41,-324"/>
<text xml:space="preserve" text-anchor="start" x="1555.41" y="-301.32" font-family="Times,serif" font-size="14.00">ds_vis.core.scene.command_schema</text>
</g>
<!-- ds_vis.core.scene.command_schema&#45;&gt;ds_vis.core.exceptions -->
<g id="edge41" class="edge">
<title>ds_vis.core.scene.command_schema&#45;&gt;ds_vis.core.exceptions</title>
<path fill="none" stroke="black" d="M1714.75,-324.45C1748.47,-345.5 1801.92,-384.11 1830.41,-432 1841.34,-450.38 1846.02,-474.2 1848.01,-492.58"/>
<polygon fill="black" stroke="black" points="1848.86,-502.54 1843.52,-492.96 1848.54,-498.77 1848.01,-492.57 1848.01,-492.57 1848.01,-492.57 1848.54,-498.77 1852.49,-492.19 1848.86,-502.54"/>
</g>
<!-- ds_vis.core.scene.command_schema&#45;&gt;ds_vis.core.models -->
<g id="edge42" class="edge">
<title>ds_vis.core.scene.command_schema&#45;&gt;ds_vis.core.models</title>
<path fill="none" stroke="black" d="M1573.26,-324.48C1496.78,-336.51 1396.64,-352.27 1326.05,-363.37"/>
<polygon fill="black" stroke="black" points="1316.19,-364.92 1325.37,-358.92 1319.93,-364.33 1326.07,-363.37 1326.07,-363.37 1326.07,-363.37 1319.93,-364.33 1326.77,-367.81 1316.19,-364.92"/>
</g>
<!-- ds_vis.core.scene.command_schema&#45;&gt;ds_vis.core.models.seqlist -->
<g id="edge43" class="edge">
<title>ds_vis.core.scene.command_schema&#45;&gt;ds_vis.core.models.seqlist</title>
<path fill="none" stroke="black" d="M1688.82,-324.41C1694.95,-348.6 1706.12,-392.64 1713.4,-421.35"/>
<polygon fill="black" stroke="black" points="1715.77,-430.71 1708.95,-422.12 1714.84,-427.04 1713.31,-421.01 1713.31,-421.01 1713.31,-421.01 1714.84,-427.04 1717.67,-419.91 1715.77,-430.71"/>
</g>
<!-- ds_vis.core.scene.command_schema&#45;&gt;ds_vis.core.models.stack -->
<g id="edge44" class="edge">
<title>ds_vis.core.scene.command_schema&#45;&gt;ds_vis.core.models.stack</title>
<path fill="none" stroke="black" d="M1662.46,-324.41C1630.7,-349.6 1571.81,-396.32 1535.87,-424.83"/>
<polygon fill="black" stroke="black" points="1528.21,-430.91 1533.25,-421.17 1531.17,-428.56 1536.04,-424.7 1536.04,-424.7 1536.04,-424.7 1531.17,-428.56 1538.84,-428.22 1528.21,-430.91"/>
</g>
<!-- ds_vis.core.scene.command_schema&#45;&gt;ds_vis.core.scene.command -->
<g id="edge45" class="edge">
<title>ds_vis.core.scene.command_schema&#45;&gt;ds_vis.core.scene.command</title>
<path fill="none" stroke="black" d="M1787.81,-324.48C1847.57,-334.59 1922.85,-347.32 1984.33,-357.71"/>
<polygon fill="black" stroke="black" points="1994.05,-359.35 1983.43,-362.12 1990.32,-358.72 1984.18,-357.69 1984.18,-357.69 1984.18,-357.69 1990.32,-358.72 1984.94,-353.25 1994.05,-359.35"/>
</g>
<!-- ds_vis.core.scene.scene_graph&#45;&gt;ds_vis.core.exceptions -->
<g id="edge46" class="edge">
<title>ds_vis.core.scene.scene_graph&#45;&gt;ds_vis.core.exceptions</title>
<path fill="none" stroke="black" d="M1650.48,-242.04C1722.44,-248.91 1805.49,-262.28 1830.41,-288 1883.87,-343.19 1868.65,-444.18 1857.09,-493.05"/>
<polygon fill="black" stroke="black" points="1854.71,-502.56 1852.77,-491.77 1855.63,-498.89 1857.14,-492.86 1857.14,-492.86 1857.14,-492.86 1855.63,-498.89 1861.5,-493.95 1854.71,-502.56"/>
</g>
<!-- ds_vis.core.scene.scene_graph&#45;&gt;ds_vis.core.layout -->
<g id="edge47" class="edge">
<title>ds_vis.core.scene.scene_graph&#45;&gt;ds_vis.core.layout</title>
<path fill="none" stroke="black" d="M1416.25,-236.08C1111.87,-239.38 316.64,-251.49 273.41,-288 256.15,-302.57 252.24,-328.62 252.15,-348.78"/>
<polygon fill="black" stroke="black" points="252.44,-358.63 247.65,-348.76 252.33,-354.85 252.15,-348.63 252.15,-348.63 252.15,-348.63 252.33,-354.85 256.65,-348.5 252.44,-358.63"/>
</g>
<!-- ds_vis.core.scene.scene_graph&#45;&gt;ds_vis.core.layout.git -->
<g id="edge48" class="edge">
<title>ds_vis.core.scene.scene_graph&#45;&gt;ds_vis.core.layout.git</title>
<path fill="none" stroke="black" d="M1416.46,-235.67C1220.58,-237.91 813.7,-247.39 461.5,-287.72"/>
<polygon fill="black" stroke="black" points="451.78,-288.84 461.19,-283.23 455.53,-288.41 461.71,-287.7 461.71,-287.7 461.71,-287.7 455.53,-288.41 462.23,-292.17 451.78,-288.84"/>
</g>
<!-- ds_vis.core.scene.scene_graph&#45;&gt;ds_vis.core.layout.simple -->
<g id="edge49" class="edge">
<title>ds_vis.core.scene.scene_graph&#45;&gt;ds_vis.core.layout.simple</title>
<path fill="none" stroke="black" d="M1416.33,-235.51C1189.09,-237.44 672.58,-246.47 240.41,-288 239.4,-288.1 238.39,-288.2 237.37,-288.3"/>
<polygon fill="black" stroke="black" points="227.57,-289.37 237.03,-283.81 231.33,-288.96 237.52,-288.28 237.52,-288.28 237.52,-288.28 231.33,-288.96 238,-292.76 227.57,-289.37"/>
</g>
<!-- ds_vis.core.scene.scene_graph&#45;&gt;ds_vis.core.layout.tree -->
<g id="edge50" class="edge">
<title>ds_vis.core.scene.scene_graph&#45;&gt;ds_vis.core.layout.tree</title>
<path fill="none" stroke="black" d="M1416.53,-243.37C1222.8,-257.25 838.49,-284.79 656.48,-297.83"/>
<polygon fill="black" stroke="black" points="646.53,-298.54 656.18,-293.34 650.3,-298.27 656.5,-297.83 656.5,-297.83 656.5,-297.83 650.3,-298.27 656.82,-302.32 646.53,-298.54"/>
</g>
<!-- ds_vis.core.scene.scene_graph&#45;&gt;ds_vis.core.models -->
<g id="edge51" class="edge">
<title>ds_vis.core.scene.scene_graph&#45;&gt;ds_vis.core.models</title>
<path fill="none" stroke="black" d="M1462.95,-252.45C1432.73,-261.21 1397.52,-273.14 1367.41,-288 1331.09,-305.92 1293.5,-333.29 1268.53,-352.95"/>
<polygon fill="black" stroke="black" points="1260.88,-359.05 1265.89,-349.3 1263.84,-356.69 1268.7,-352.82 1268.7,-352.82 1268.7,-352.82 1263.84,-356.69 1271.5,-356.33 1260.88,-359.05"/>
</g>
<!-- ds_vis.core.scene.scene_graph&#45;&gt;ds_vis.core.ops -->
<g id="edge52" class="edge">
<title>ds_vis.core.scene.scene_graph&#45;&gt;ds_vis.core.ops</title>
<path fill="none" stroke="black" d="M1491.47,-252.49C1446.48,-274.39 1381.41,-316.51 1381.41,-377 1381.41,-377 1381.41,-377 1381.41,-451 1381.41,-508.99 1211.94,-555.61 1111.24,-578.2"/>
<polygon fill="black" stroke="black" points="1101.71,-580.31 1110.5,-573.76 1105.4,-579.49 1111.47,-578.15 1111.47,-578.15 1111.47,-578.15 1105.4,-579.49 1112.45,-582.54 1101.71,-580.31"/>
</g>
<!-- ds_vis.core.scene.scene_graph&#45;&gt;ds_vis.core.scene.command -->
<g id="edge53" class="edge">
<title>ds_vis.core.scene.scene_graph&#45;&gt;ds_vis.core.scene.command</title>
<path fill="none" stroke="black" d="M1650.3,-247.9C1713.97,-256.39 1793.74,-269.42 1863.41,-288 1929.44,-305.61 2002.65,-335 2049.53,-355.15"/>
<polygon fill="black" stroke="black" points="2058.59,-359.07 2047.62,-359.22 2055.12,-357.57 2049.41,-355.1 2049.41,-355.1 2049.41,-355.1 2055.12,-357.57 2051.2,-350.97 2058.59,-359.07"/>
</g>
<!-- ds_vis.core.scene.scene_graph&#45;&gt;ds_vis.core.scene.command_schema -->
<g id="edge54" class="edge">
<title>ds_vis.core.scene.scene_graph&#45;&gt;ds_vis.core.scene.command_schema</title>
<path fill="none" stroke="black" d="M1571.12,-252.48C1591.01,-261.71 1615.62,-273.11 1636.82,-282.94"/>
<polygon fill="black" stroke="black" points="1645.81,-287.11 1634.84,-286.98 1642.37,-285.52 1636.73,-282.9 1636.73,-282.9 1636.73,-282.9 1642.37,-285.52 1638.63,-278.82 1645.81,-287.11"/>
</g>
<!-- ds_vis.dsl -->
<g id="node24" class="node">
<title>ds_vis.dsl</title>
<polygon fill="none" stroke="black" points="2177.91,-36 2092.91,-36 2092.91,0 2177.91,0 2177.91,-36"/>
<text xml:space="preserve" text-anchor="start" x="2100.91" y="-13.32" font-family="Times,serif" font-size="14.00">ds_vis.dsl</text>
</g>
<!-- ds_vis.dsl.cli -->
<g id="node25" class="node">
<title>ds_vis.dsl.cli</title>
<polygon fill="none" stroke="black" points="1940.41,-108 1834.41,-108 1834.41,-72 1940.41,-72 1940.41,-108"/>
<text xml:space="preserve" text-anchor="start" x="1842.41" y="-85.33" font-family="Times,serif" font-size="14.00">ds_vis.dsl.cli</text>
</g>
<!-- ds_vis.dsl.cli&#45;&gt;ds_vis.core.exceptions -->
<g id="edge55" class="edge">
<title>ds_vis.dsl.cli&#45;&gt;ds_vis.core.exceptions</title>
<path fill="none" stroke="black" d="M1889.86,-108.32C1896.95,-162.6 1914.74,-333.7 1878.41,-468 1875.98,-476.97 1871.76,-486.08 1867.28,-494.16"/>
<polygon fill="black" stroke="black" points="1862.2,-502.7 1863.44,-491.81 1864.13,-499.45 1867.31,-494.1 1867.31,-494.1 1867.31,-494.1 1864.13,-499.45 1871.18,-496.4 1862.2,-502.7"/>
</g>
<!-- ds_vis.dsl.cli&#45;&gt;ds_vis.core.scene.scene_graph -->
<g id="edge56" class="edge">
<title>ds_vis.dsl.cli&#45;&gt;ds_vis.core.scene.scene_graph</title>
<path fill="none" stroke="black" d="M1844,-108.41C1779.29,-134.37 1657.61,-183.18 1587.3,-211.38"/>
<polygon fill="black" stroke="black" points="1578.02,-215.1 1585.63,-207.2 1581.53,-213.7 1587.3,-211.38 1587.3,-211.38 1587.3,-211.38 1581.53,-213.7 1588.98,-215.56 1578.02,-215.1"/>
</g>
<!-- ds_vis.dsl.parser -->
<g id="node26" class="node">
<title>ds_vis.dsl.parser</title>
<polygon fill="none" stroke="black" points="2099.41,-180 1963.41,-180 1963.41,-144 2099.41,-144 2099.41,-180"/>
<text xml:space="preserve" text-anchor="start" x="1971.41" y="-157.32" font-family="Times,serif" font-size="14.00">ds_vis.dsl.parser</text>
</g>
<!-- ds_vis.dsl.cli&#45;&gt;ds_vis.dsl.parser -->
<g id="edge57" class="edge">
<title>ds_vis.dsl.cli&#45;&gt;ds_vis.dsl.parser</title>
<path fill="none" stroke="black" d="M1923.37,-108.48C1942.33,-117.7 1965.77,-129.1 1985.97,-138.92"/>
<polygon fill="black" stroke="black" points="1994.8,-143.21 1983.84,-142.88 1991.4,-141.55 1985.81,-138.83 1985.81,-138.83 1985.81,-138.83 1991.4,-141.55 1987.78,-134.79 1994.8,-143.21"/>
</g>
<!-- ds_vis.dsl.parser&#45;&gt;ds_vis.core.exceptions -->
<g id="edge58" class="edge">
<title>ds_vis.dsl.parser&#45;&gt;ds_vis.core.exceptions</title>
<path fill="none" stroke="black" d="M2026.94,-180.44C2011.16,-241.66 1957.94,-444.4 1939.41,-468 1929.76,-480.28 1916.42,-490.29 1902.97,-498.18"/>
<polygon fill="black" stroke="black" points="1894.27,-502.96 1900.87,-494.2 1897.58,-501.14 1903.03,-498.14 1903.03,-498.14 1903.03,-498.14 1897.58,-501.14 1905.2,-502.09 1894.27,-502.96"/>
</g>
<!-- ds_vis.dsl.parser&#45;&gt;ds_vis.core.scene.command -->
<g id="edge59" class="edge">
<title>ds_vis.dsl.parser&#45;&gt;ds_vis.core.scene.command</title>
<path fill="none" stroke="black" d="M2033.7,-180.29C2036.34,-198.4 2041.25,-227.54 2048.41,-252 2058.47,-286.39 2074.41,-324.42 2085.58,-349.4"/>
<polygon fill="black" stroke="black" points="2089.69,-358.47 2081.46,-351.21 2088.13,-355.02 2085.56,-349.36 2085.56,-349.36 2085.56,-349.36 2088.13,-355.02 2089.66,-347.5 2089.69,-358.47"/>
</g>
<!-- ds_vis.dsl.parser&#45;&gt;ds_vis.core.scene.scene_graph -->
<g id="edge79" class="edge">
<title>ds_vis.dsl.parser&#45;&gt;ds_vis.core.scene.scene_graph</title>
<path fill="none" stroke="black" stroke-dasharray="5,2" d="M1962.94,-172.62C1885.42,-183.52 1757.4,-201.52 1661.25,-215.03"/>
<polygon fill="black" stroke="black" points="1651.48,-216.4 1660.76,-210.55 1655.23,-215.88 1661.39,-215.01 1661.39,-215.01 1661.39,-215.01 1655.23,-215.88 1662.01,-219.47 1651.48,-216.4"/>
</g>
<!-- ds_vis.persistence.json_io -->
<g id="node30" class="node">
<title>ds_vis.persistence.json_io</title>
<polygon fill="none" stroke="black" points="2257.28,-252 2057.53,-252 2057.53,-216 2257.28,-216 2257.28,-252"/>
<text xml:space="preserve" text-anchor="start" x="2065.53" y="-229.32" font-family="Times,serif" font-size="14.00">ds_vis.persistence.json_io</text>
</g>
<!-- ds_vis.dsl.parser&#45;&gt;ds_vis.persistence.json_io -->
<g id="edge60" class="edge">
<title>ds_vis.dsl.parser&#45;&gt;ds_vis.persistence.json_io</title>
<path fill="none" stroke="black" d="M2062.88,-180.48C2079.24,-189.57 2099.42,-200.78 2116.93,-210.51"/>
<polygon fill="black" stroke="black" points="2125.27,-215.15 2114.34,-214.22 2121.97,-213.31 2116.53,-210.29 2116.53,-210.29 2116.53,-210.29 2121.97,-213.31 2118.72,-206.36 2125.27,-215.15"/>
</g>
<!-- ds_vis.llm -->
<g id="node27" class="node">
<title>ds_vis.llm</title>
<polygon fill="none" stroke="black" points="2074.66,-36 1988.16,-36 1988.16,0 2074.66,0 2074.66,-36"/>
<text xml:space="preserve" text-anchor="start" x="1996.16" y="-13.32" font-family="Times,serif" font-size="14.00">ds_vis.llm</text>
</g>
<!-- ds_vis.llm.adapter -->
<g id="node28" class="node">
<title>ds_vis.llm.adapter</title>
<polygon fill="none" stroke="black" points="2104.66,-108 1958.16,-108 1958.16,-72 2104.66,-72 2104.66,-108"/>
<text xml:space="preserve" text-anchor="start" x="1966.16" y="-85.33" font-family="Times,serif" font-size="14.00">ds_vis.llm.adapter</text>
</g>
<!-- ds_vis.llm&#45;&gt;ds_vis.llm.adapter -->
<g id="edge61" class="edge">
<title>ds_vis.llm&#45;&gt;ds_vis.llm.adapter</title>
<path fill="none" stroke="black" d="M2031.41,-36.3C2031.41,-43.68 2031.41,-52.48 2031.41,-60.75"/>
<polygon fill="black" stroke="black" points="2031.41,-70.68 2026.91,-60.68 2031.41,-66.9 2031.41,-60.68 2031.41,-60.68 2031.41,-60.68 2031.41,-66.9 2035.91,-60.68 2031.41,-70.68"/>
</g>
<!-- ds_vis.llm.adapter&#45;&gt;ds_vis.core.scene.command -->
<g id="edge62" class="edge">
<title>ds_vis.llm.adapter&#45;&gt;ds_vis.core.scene.command</title>
<path fill="none" stroke="black" d="M1991.73,-108.34C1977.26,-116.85 1962.49,-128.63 1954.41,-144 1946.96,-158.16 1949.52,-164.76 1954.41,-180 1977.11,-250.77 2036.32,-317.06 2071.34,-351.77"/>
<polygon fill="black" stroke="black" points="2078.4,-358.65 2068.09,-354.89 2075.69,-356.01 2071.24,-351.67 2071.24,-351.67 2071.24,-351.67 2075.69,-356.01 2074.38,-348.45 2078.4,-358.65"/>
</g>
<!-- ds_vis.llm.adapter&#45;&gt;ds_vis.dsl.parser -->
<g id="edge63" class="edge">
<title>ds_vis.llm.adapter&#45;&gt;ds_vis.dsl.parser</title>
<path fill="none" stroke="black" d="M2031.41,-108.3C2031.41,-115.68 2031.41,-124.48 2031.41,-132.75"/>
<polygon fill="black" stroke="black" points="2031.41,-142.68 2026.91,-132.68 2031.41,-138.9 2031.41,-132.68 2031.41,-132.68 2031.41,-132.68 2031.41,-138.9 2035.91,-132.68 2031.41,-142.68"/>
</g>
<!-- ds_vis.persistence -->
<g id="node29" class="node">
<title>ds_vis.persistence</title>
<polygon fill="none" stroke="black" points="2342.66,-36 2196.16,-36 2196.16,0 2342.66,0 2342.66,-36"/>
<text xml:space="preserve" text-anchor="start" x="2204.16" y="-13.32" font-family="Times,serif" font-size="14.00">ds_vis.persistence</text>
</g>
<!-- ds_vis.persistence.json_io&#45;&gt;ds_vis.core.exceptions -->
<g id="edge64" class="edge">
<title>ds_vis.persistence.json_io&#45;&gt;ds_vis.core.exceptions</title>
<path fill="none" stroke="black" d="M2172.75,-252.29C2197.79,-282.72 2242.02,-347.23 2214.41,-396 2183.76,-450.12 2152.24,-445.12 2094.41,-468 2047.95,-486.38 1993.89,-498.93 1948.39,-507.19"/>
<polygon fill="black" stroke="black" points="1938.82,-508.88 1947.89,-502.71 1942.55,-508.22 1948.67,-507.14 1948.67,-507.14 1948.67,-507.14 1942.55,-508.22 1949.45,-511.57 1938.82,-508.88"/>
</g>
<!-- ds_vis.persistence.json_io&#45;&gt;ds_vis.core.scene.command -->
<g id="edge65" class="edge">
<title>ds_vis.persistence.json_io&#45;&gt;ds_vis.core.scene.command</title>
<path fill="none" stroke="black" d="M2150.17,-252.41C2140.08,-276.71 2121.66,-321.03 2109.74,-349.73"/>
<polygon fill="black" stroke="black" points="2105.98,-358.76 2105.66,-347.8 2107.43,-355.27 2109.82,-349.53 2109.82,-349.53 2109.82,-349.53 2107.43,-355.27 2113.98,-351.26 2105.98,-358.76"/>
</g>
<!-- ds_vis.persistence.json_io&#45;&gt;ds_vis.core.scene.command_schema -->
<g id="edge66" class="edge">
<title>ds_vis.persistence.json_io&#45;&gt;ds_vis.core.scene.command_schema</title>
<path fill="none" stroke="black" d="M2057.09,-249.85C1986,-260.37 1890,-274.57 1813.23,-285.93"/>
<polygon fill="black" stroke="black" points="1803.74,-287.34 1812.97,-281.42 1807.48,-286.79 1813.63,-285.88 1813.63,-285.88 1813.63,-285.88 1807.48,-286.79 1814.29,-290.33 1803.74,-287.34"/>
</g>
<!-- ds_vis.renderers -->
<g id="node31" class="node">
<title>ds_vis.renderers</title>
<polygon fill="none" stroke="black" points="2437.66,-396 2303.16,-396 2303.16,-360 2437.66,-360 2437.66,-396"/>
<text xml:space="preserve" text-anchor="start" x="2311.16" y="-373.32" font-family="Times,serif" font-size="14.00">ds_vis.renderers</text>
</g>
<!-- ds_vis.renderers.base -->
<g id="node32" class="node">
<title>ds_vis.renderers.base</title>
<polygon fill="none" stroke="black" points="2395.41,-540 2223.41,-540 2223.41,-504 2395.41,-504 2395.41,-540"/>
<text xml:space="preserve" text-anchor="start" x="2231.41" y="-517.33" font-family="Times,serif" font-size="14.00">ds_vis.renderers.base</text>
</g>
<!-- ds_vis.renderers&#45;&gt;ds_vis.renderers.base -->
<g id="edge67" class="edge">
<title>ds_vis.renderers&#45;&gt;ds_vis.renderers.base</title>
<path fill="none" stroke="black" d="M2353.37,-396.24C2344.66,-405.98 2334.61,-418.83 2328.41,-432 2319.4,-451.11 2314.62,-474.54 2312.11,-492.56"/>
<polygon fill="black" stroke="black" points="2310.91,-502.31 2307.66,-491.84 2311.37,-498.56 2312.13,-492.39 2312.13,-492.39 2312.13,-492.39 2311.37,-498.56 2316.6,-492.93 2310.91,-502.31"/>
</g>
<!-- ds_vis.renderers.pyside6.renderer -->
<g id="node34" class="node">
<title>ds_vis.renderers.pyside6.renderer</title>
<polygon fill="none" stroke="black" points="2599.41,-468 2337.41,-468 2337.41,-432 2599.41,-432 2599.41,-468"/>
<text xml:space="preserve" text-anchor="start" x="2345.41" y="-445.32" font-family="Times,serif" font-size="14.00">ds_vis.renderers.pyside6.renderer</text>
</g>
<!-- ds_vis.renderers&#45;&gt;ds_vis.renderers.pyside6.renderer -->
<g id="edge68" class="edge">
<title>ds_vis.renderers&#45;&gt;ds_vis.renderers.pyside6.renderer</title>
<path fill="none" stroke="black" d="M2394.88,-396.48C2407.14,-405.24 2422.14,-415.96 2435.4,-425.42"/>
<polygon fill="black" stroke="black" points="2443.25,-431.03 2432.5,-428.88 2440.17,-428.83 2435.11,-425.22 2435.11,-425.22 2435.11,-425.22 2440.17,-428.83 2437.73,-421.56 2443.25,-431.03"/>
</g>
<!-- ds_vis.renderers.base&#45;&gt;ds_vis.core.ops -->
<g id="edge69" class="edge">
<title>ds_vis.renderers.base&#45;&gt;ds_vis.core.ops</title>
<path fill="none" stroke="black" d="M2223.04,-527.76C1986.62,-540.78 1331.85,-576.84 1111.7,-588.96"/>
<polygon fill="black" stroke="black" points="1101.83,-589.51 1111.57,-584.46 1105.61,-589.3 1111.82,-588.96 1111.82,-588.96 1111.82,-588.96 1105.61,-589.3 1112.06,-593.45 1101.83,-589.51"/>
</g>
<!-- ds_vis.renderers.pyside6 -->
<g id="node33" class="node">
<title>ds_vis.renderers.pyside6</title>
<polygon fill="none" stroke="black" points="2555.66,-36 2361.16,-36 2361.16,0 2555.66,0 2555.66,-36"/>
<text xml:space="preserve" text-anchor="start" x="2369.16" y="-13.32" font-family="Times,serif" font-size="14.00">ds_vis.renderers.pyside6</text>
</g>
<!-- ds_vis.renderers.pyside6.renderer&#45;&gt;ds_vis.core.ops -->
<g id="edge70" class="edge">
<title>ds_vis.renderers.pyside6.renderer&#45;&gt;ds_vis.core.ops</title>
<path fill="none" stroke="black" d="M2461.57,-468.45C2452.22,-489.66 2433.24,-524.51 2404.41,-540 2347.15,-570.76 1387.42,-587.69 1111.84,-591.93"/>
<polygon fill="black" stroke="black" points="1102,-592.08 1111.93,-587.43 1105.78,-592.02 1112,-591.93 1112,-591.93 1112,-591.93 1105.78,-592.02 1112.07,-596.43 1102,-592.08"/>
</g>
<!-- ds_vis.renderers.pyside6.renderer&#45;&gt;ds_vis.renderers.base -->
<g id="edge71" class="edge">
<title>ds_vis.renderers.pyside6.renderer&#45;&gt;ds_vis.renderers.base</title>
<path fill="none" stroke="black" d="M2428.69,-468.48C2407.56,-477.79 2381.36,-489.32 2358.91,-499.21"/>
<polygon fill="black" stroke="black" points="2350,-503.13 2357.34,-494.98 2353.46,-501.6 2359.15,-499.1 2359.15,-499.1 2359.15,-499.1 2353.46,-501.6 2360.97,-503.22 2350,-503.13"/>
</g>
<!-- ds_vis.ui -->
<g id="node35" class="node">
<title>ds_vis.ui</title>
<polygon fill="none" stroke="black" points="2651.16,-36 2573.66,-36 2573.66,0 2651.16,0 2651.16,-36"/>
<text xml:space="preserve" text-anchor="start" x="2581.66" y="-13.32" font-family="Times,serif" font-size="14.00">ds_vis.ui</text>
</g>
<!-- ds_vis.ui.main_window -->
<g id="node36" class="node">
<title>ds_vis.ui.main_window</title>
<polygon fill="none" stroke="black" points="2412.78,-108 2234.03,-108 2234.03,-72 2412.78,-72 2412.78,-108"/>
<text xml:space="preserve" text-anchor="start" x="2242.03" y="-85.33" font-family="Times,serif" font-size="14.00">ds_vis.ui.main_window</text>
</g>
<!-- ds_vis.ui.main_window&#45;&gt;ds_vis.core.exceptions -->
<g id="edge72" class="edge">
<title>ds_vis.ui.main_window&#45;&gt;ds_vis.core.exceptions</title>
<path fill="none" stroke="black" d="M2325.84,-108.14C2327.19,-118.5 2328.73,-131.98 2329.41,-144 2332.16,-192.74 2327.56,-206.68 2309.41,-252 2265.37,-361.93 2259.73,-415.87 2153.41,-468 2089.53,-499.31 2010.14,-512.4 1948.51,-517.75"/>
<polygon fill="black" stroke="black" points="1938.82,-518.53 1948.42,-513.24 1942.59,-518.23 1948.78,-517.73 1948.78,-517.73 1948.78,-517.73 1942.59,-518.23 1949.15,-522.21 1938.82,-518.53"/>
</g>
<!-- ds_vis.ui.main_window&#45;&gt;ds_vis.core.ops -->
<g id="edge73" class="edge">
<title>ds_vis.ui.main_window&#45;&gt;ds_vis.core.ops</title>
<path fill="none" stroke="black" d="M2412.97,-95.82C2502.64,-106.06 2627.41,-137.47 2627.41,-233 2627.41,-233 2627.41,-233 2627.41,-451 2627.41,-503.22 2833.59,-452.36 2436.41,-540 2306.93,-568.57 1381.18,-586.96 1111.77,-591.75"/>
<polygon fill="black" stroke="black" points="1101.79,-591.93 1111.71,-587.25 1105.58,-591.86 1111.79,-591.75 1111.79,-591.75 1111.79,-591.75 1105.58,-591.86 1111.87,-596.25 1101.79,-591.93"/>
</g>
<!-- ds_vis.ui.main_window&#45;&gt;ds_vis.core.scene -->
<g id="edge74" class="edge">
<title>ds_vis.ui.main_window&#45;&gt;ds_vis.core.scene</title>
<path fill="none" stroke="black" d="M2289.44,-108.48C2271.7,-117.61 2249.8,-128.89 2230.84,-138.65"/>
<polygon fill="black" stroke="black" points="2222.02,-143.18 2228.86,-134.6 2225.39,-141.45 2230.92,-138.61 2230.92,-138.61 2230.92,-138.61 2225.39,-141.45 2232.97,-142.61 2222.02,-143.18"/>
</g>
<!-- ds_vis.ui.main_window&#45;&gt;ds_vis.core.scene.command -->
<g id="edge75" class="edge">
<title>ds_vis.ui.main_window&#45;&gt;ds_vis.core.scene.command</title>
<path fill="none" stroke="black" d="M2322.55,-108.45C2319.39,-152.49 2304.56,-268.54 2235.41,-324 2218.55,-337.52 2197.84,-347.9 2177.68,-355.73"/>
<polygon fill="black" stroke="black" points="2168.35,-359.17 2176.18,-351.49 2171.9,-357.86 2177.74,-355.71 2177.74,-355.71 2177.74,-355.71 2171.9,-357.86 2179.29,-359.93 2168.35,-359.17"/>
</g>
<!-- ds_vis.ui.main_window&#45;&gt;ds_vis.dsl.parser -->
<g id="edge76" class="edge">
<title>ds_vis.ui.main_window&#45;&gt;ds_vis.dsl.parser</title>
<path fill="none" stroke="black" d="M2250.47,-108.48C2207.96,-118.67 2154.31,-131.54 2110.75,-141.98"/>
<polygon fill="black" stroke="black" points="2101.08,-144.3 2109.76,-137.59 2104.76,-143.41 2110.81,-141.96 2110.81,-141.96 2110.81,-141.96 2104.76,-143.41 2111.86,-146.34 2101.08,-144.3"/>
</g>
<!-- ds_vis.ui.main_window&#45;&gt;ds_vis.persistence.json_io -->
<g id="edge77" class="edge">
<title>ds_vis.ui.main_window&#45;&gt;ds_vis.persistence.json_io</title>
<path fill="none" stroke="black" d="M2315.83,-108.41C2306.58,-127.97 2289.3,-159.64 2266.41,-180 2252.14,-192.68 2234.31,-203.03 2217.22,-211.11"/>
<polygon fill="black" stroke="black" points="2208.38,-215.1 2215.64,-206.88 2211.83,-213.54 2217.5,-210.98 2217.5,-210.98 2217.5,-210.98 2211.83,-213.54 2219.35,-215.08 2208.38,-215.1"/>
</g>
<!-- ds_vis.ui.main_window&#45;&gt;ds_vis.renderers.pyside6.renderer -->
<g id="edge78" class="edge">
<title>ds_vis.ui.main_window&#45;&gt;ds_vis.renderers.pyside6.renderer</title>
<path fill="none" stroke="black" d="M2361.99,-108.49C2404.65,-130.78 2467.41,-173.66 2467.41,-233 2467.41,-233 2467.41,-233 2467.41,-307 2467.41,-346.26 2467.79,-391.63 2468.09,-420.31"/>
<polygon fill="black" stroke="black" points="2468.19,-430.29 2463.59,-420.34 2468.15,-426.51 2468.08,-420.29 2468.08,-420.29 2468.08,-420.29 2468.15,-426.51 2472.58,-420.25 2468.19,-430.29"/>
</g>
</g>
</svg>
