<?xml version="1.0" encoding="UTF-8" standalone="no"?>
<!DOCTYPE svg PUBLIC "-//W3C//DTD SVG 1.1//EN"
 "http://www.w3.org/Graphics/SVG/1.1/DTD/svg11.dtd">
<!-- Generated by graphviz version 14.1.0 (20251207.0913)
 -->
<!-- Title: G Pages: 1 -->
<svg width="751pt" height="1274pt"
 viewBox="0.00 0.00 751.00 1274.00" xmlns="http://www.w3.org/2000/svg" xmlns:xlink="http://www.w3.org/1999/xlink">
<g id="graph0" class="graph" transform="scale(1 1) rotate(0) translate(4 1269.82)">
<title>G</title><style>.edge>path:hover{stroke-width:8}</style>
<polygon fill="white" stroke="none" points="-4,4 -4,-1269.82 746.51,-1269.82 746.51,4 -4,4"/>
<!-- ds_vis_core -->
<g id="node1" class="node">
<title>ds_vis_core</title><style>.edge>path:hover{stroke-width:8}</style>
<ellipse fill="#06f9f9" stroke="black" cx="366.16" cy="-782.41" rx="43.29" ry="18"/>
<text xml:space="preserve" text-anchor="middle" x="366.16" y="-779.29" font-family="Helvetica,sans-Serif" font-size="10.00" fill="#000000">ds_vis.core</text>
</g>
<!-- ds_vis_renderers_base -->
<g id="node18" class="node">
<title>ds_vis_renderers_base</title><style>.edge>path:hover{stroke-width:8}</style>
<ellipse fill="#2fbcbc" stroke="black" cx="514.16" cy="-543.53" rx="46.32" ry="32.7"/>
<text xml:space="preserve" text-anchor="middle" x="514.16" y="-553.16" font-family="Helvetica,sans-Serif" font-size="10.00" fill="#000000">ds_vis.</text>
<text xml:space="preserve" text-anchor="middle" x="514.16" y="-540.41" font-family="Helvetica,sans-Serif" font-size="10.00" fill="#000000">renderers.</text>
<text xml:space="preserve" text-anchor="middle" x="514.16" y="-527.66" font-family="Helvetica,sans-Serif" font-size="10.00" fill="#000000">base</text>
</g>
<!-- ds_vis_core&#45;&gt;ds_vis_renderers_base -->
<g id="edge1" class="edge">
<title>ds_vis_core&#45;&gt;ds_vis_renderers_base</title><style>.edge>path:hover{stroke-width:8}</style>
<path fill="none" stroke="black" d="M440.16,-661.97C452.95,-633.89 471.46,-604.52 486.77,-582.17"/>
<polygon fill="#06f9f9" stroke="black" points="489.63,-584.19 492.46,-573.99 483.88,-580.2 489.63,-584.19"/>
</g>
<!-- ds_vis_renderers_pyside6_renderer -->
<g id="node20" class="node">
<title>ds_vis_renderers_pyside6_renderer</title><style>.edge>path:hover{stroke-width:8}</style>
<polygon fill="blue" stroke="black" points="510.91,-370.81 445.41,-370.81 445.41,-311.81 510.91,-311.81 510.91,-370.81"/>
<text xml:space="preserve" text-anchor="middle" x="478.16" y="-357.31" font-family="Helvetica,sans-Serif" font-size="10.00" fill="white">ds_vis.</text>
<text xml:space="preserve" text-anchor="middle" x="478.16" y="-344.56" font-family="Helvetica,sans-Serif" font-size="10.00" fill="white">renderers.</text>
<text xml:space="preserve" text-anchor="middle" x="478.16" y="-331.81" font-family="Helvetica,sans-Serif" font-size="10.00" fill="white">pyside6.</text>
<text xml:space="preserve" text-anchor="middle" x="478.16" y="-319.06" font-family="Helvetica,sans-Serif" font-size="10.00" fill="white">renderer</text>
</g>
<!-- ds_vis_core&#45;&gt;ds_vis_renderers_pyside6_renderer -->
<g id="edge2" class="edge">
<title>ds_vis_core&#45;&gt;ds_vis_renderers_pyside6_renderer</title><style>.edge>path:hover{stroke-width:8}</style>
<path fill="none" stroke="black" d="M440.16,-435.31C437.32,-416.61 443.71,-397.05 452.02,-380.73"/>
<polygon fill="#06f9f9" stroke="black" points="454.88,-382.79 456.65,-372.35 448.75,-379.41 454.88,-382.79"/>
</g>
<!-- ds_vis_ui_main_window -->
<g id="node21" class="node">
<title>ds_vis_ui_main_window</title><style>.edge>path:hover{stroke-width:8}</style>
<ellipse fill="#2e6b6b" stroke="black" cx="522.16" cy="-32.7" rx="59.04" ry="32.7"/>
<text xml:space="preserve" text-anchor="middle" x="522.16" y="-42.33" font-family="Helvetica,sans-Serif" font-size="10.00" fill="#ffffff">ds_vis.</text>
<text xml:space="preserve" text-anchor="middle" x="522.16" y="-29.58" font-family="Helvetica,sans-Serif" font-size="10.00" fill="#ffffff">ui.</text>
<text xml:space="preserve" text-anchor="middle" x="522.16" y="-16.83" font-family="Helvetica,sans-Serif" font-size="10.00" fill="#ffffff">main_window</text>
</g>
<!-- ds_vis_core&#45;&gt;ds_vis_ui_main_window -->
<g id="edge3" class="edge">
<title>ds_vis_core&#45;&gt;ds_vis_ui_main_window</title><style>.edge>path:hover{stroke-width:8}</style>
<path fill="none" stroke="black" d="M378.72,-764.73C394.84,-742.67 422.77,-702.13 440.16,-663.97"/>
<path fill="none" stroke="black" d="M440.16,-661.97C460.86,-616.54 447.65,-486.67 440.16,-437.31"/>
<path fill="none" stroke="black" d="M440.16,-435.31C421.78,-341.82 334.07,-338.97 343.16,-244.11"/>
</g>
<!-- ds_vis_core_exceptions -->
<g id="node2" class="node">
<title>ds_vis_core_exceptions</title><style>.edge>path:hover{stroke-width:8}</style>
<ellipse fill="#22e7e7" stroke="black" cx="178.16" cy="-892.83" rx="48.97" ry="32.7"/>
<text xml:space="preserve" text-anchor="middle" x="178.16" y="-902.46" font-family="Helvetica,sans-Serif" font-size="10.00" fill="#000000">ds_vis.</text>
<text xml:space="preserve" text-anchor="middle" x="178.16" y="-889.71" font-family="Helvetica,sans-Serif" font-size="10.00" fill="#000000">core.</text>
<text xml:space="preserve" text-anchor="middle" x="178.16" y="-876.96" font-family="Helvetica,sans-Serif" font-size="10.00" fill="#000000">exceptions</text>
</g>
<!-- ds_vis_core_exceptions&#45;&gt;ds_vis_core -->
<g id="edge4" class="edge">
<title>ds_vis_core_exceptions&#45;&gt;ds_vis_core</title><style>.edge>path:hover{stroke-width:8}</style>
<path fill="none" stroke="black" d="M214.85,-870.67C248.75,-851.12 298.72,-822.31 331.83,-803.21"/>
<polygon fill="#22e7e7" stroke="black" points="333.31,-806.4 340.22,-798.37 329.81,-800.33 333.31,-806.4"/>
</g>
<!-- ds_vis_core_models_list_model -->
<g id="node9" class="node">
<title>ds_vis_core_models_list_model</title><style>.edge>path:hover{stroke-width:8}</style>
<polygon fill="blue" stroke="black" points="223.66,-692.47 156.66,-692.47 156.66,-633.47 223.66,-633.47 223.66,-692.47"/>
<text xml:space="preserve" text-anchor="middle" x="190.16" y="-678.97" font-family="Helvetica,sans-Serif" font-size="10.00" fill="white">ds_vis.</text>
<text xml:space="preserve" text-anchor="middle" x="190.16" y="-666.22" font-family="Helvetica,sans-Serif" font-size="10.00" fill="white">core.</text>
<text xml:space="preserve" text-anchor="middle" x="190.16" y="-653.47" font-family="Helvetica,sans-Serif" font-size="10.00" fill="white">models.</text>
<text xml:space="preserve" text-anchor="middle" x="190.16" y="-640.72" font-family="Helvetica,sans-Serif" font-size="10.00" fill="white">list_model</text>
</g>
<!-- ds_vis_core_exceptions&#45;&gt;ds_vis_core_models_list_model -->
<g id="edge5" class="edge">
<title>ds_vis_core_exceptions&#45;&gt;ds_vis_core_models_list_model</title><style>.edge>path:hover{stroke-width:8}</style>
<path fill="none" stroke="black" d="M123.16,-781.41C120.39,-752.17 136.34,-723.46 153.36,-701.74"/>
<polygon fill="#22e7e7" stroke="black" points="156.04,-703.99 159.71,-694.05 150.65,-699.54 156.04,-703.99"/>
</g>
<!-- ds_vis_core_scene_command_schema -->
<g id="node15" class="node">
<title>ds_vis_core_scene_command_schema</title><style>.edge>path:hover{stroke-width:8}</style>
<polygon fill="blue" stroke="black" points="187.28,-465.81 79.03,-465.81 79.03,-406.81 187.28,-406.81 187.28,-465.81"/>
<text xml:space="preserve" text-anchor="middle" x="133.16" y="-452.31" font-family="Helvetica,sans-Serif" font-size="10.00" fill="white">ds_vis.</text>
<text xml:space="preserve" text-anchor="middle" x="133.16" y="-439.56" font-family="Helvetica,sans-Serif" font-size="10.00" fill="white">core.</text>
<text xml:space="preserve" text-anchor="middle" x="133.16" y="-426.81" font-family="Helvetica,sans-Serif" font-size="10.00" fill="white">scene.</text>
<text xml:space="preserve" text-anchor="middle" x="133.16" y="-414.06" font-family="Helvetica,sans-Serif" font-size="10.00" fill="white">command_schema</text>
</g>
<!-- ds_vis_core_exceptions&#45;&gt;ds_vis_core_scene_command_schema -->
<g id="edge6" class="edge">
<title>ds_vis_core_exceptions&#45;&gt;ds_vis_core_scene_command_schema</title><style>.edge>path:hover{stroke-width:8}</style>
<path fill="none" stroke="black" d="M123.16,-542.53C120.12,-521.07 122.01,-497.01 124.94,-477.31"/>
<polygon fill="#22e7e7" stroke="black" points="128.39,-477.91 126.56,-467.47 121.48,-476.77 128.39,-477.91"/>
</g>
<!-- ds_vis_core_scene_scene_graph -->
<g id="node16" class="node">
<title>ds_vis_core_scene_scene_graph</title><style>.edge>path:hover{stroke-width:8}</style>
<polygon fill="blue" stroke="black" points="276.91,-370.81 199.41,-370.81 199.41,-311.81 276.91,-311.81 276.91,-370.81"/>
<text xml:space="preserve" text-anchor="middle" x="238.16" y="-357.31" font-family="Helvetica,sans-Serif" font-size="10.00" fill="white">ds_vis.</text>
<text xml:space="preserve" text-anchor="middle" x="238.16" y="-344.56" font-family="Helvetica,sans-Serif" font-size="10.00" fill="white">core.</text>
<text xml:space="preserve" text-anchor="middle" x="238.16" y="-331.81" font-family="Helvetica,sans-Serif" font-size="10.00" fill="white">scene.</text>
<text xml:space="preserve" text-anchor="middle" x="238.16" y="-319.06" font-family="Helvetica,sans-Serif" font-size="10.00" fill="white">scene_graph</text>
</g>
<!-- ds_vis_core_exceptions&#45;&gt;ds_vis_core_scene_scene_graph -->
<g id="edge7" class="edge">
<title>ds_vis_core_exceptions&#45;&gt;ds_vis_core_scene_scene_graph</title><style>.edge>path:hover{stroke-width:8}</style>
<path fill="none" stroke="black" d="M156.23,-863.34C142.13,-842.5 125.94,-812.83 123.16,-783.41"/>
<path fill="none" stroke="black" d="M123.16,-781.41C113.24,-676.6 137.93,-648.77 123.16,-544.53"/>
<path fill="none" stroke="black" d="M123.16,-542.53C114.85,-486.48 29.7,-489.76 51.16,-437.31"/>
</g>
<!-- ds_vis_core_layout -->
<g id="node3" class="node">
<title>ds_vis_core_layout</title><style>.edge>path:hover{stroke-width:8}</style>
<ellipse fill="#3ab0b0" stroke="black" cx="339.16" cy="-662.97" rx="35.18" ry="32.7"/>
<text xml:space="preserve" text-anchor="middle" x="339.16" y="-672.6" font-family="Helvetica,sans-Serif" font-size="10.00" fill="#000000">ds_vis.</text>
<text xml:space="preserve" text-anchor="middle" x="339.16" y="-659.85" font-family="Helvetica,sans-Serif" font-size="10.00" fill="#000000">core.</text>
<text xml:space="preserve" text-anchor="middle" x="339.16" y="-647.1" font-family="Helvetica,sans-Serif" font-size="10.00" fill="#000000">layout</text>
</g>
<!-- ds_vis_core_layout&#45;&gt;ds_vis_core_scene_scene_graph -->
<g id="edge8" class="edge">
<title>ds_vis_core_layout&#45;&gt;ds_vis_core_scene_scene_graph</title><style>.edge>path:hover{stroke-width:8}</style>
<path fill="none" stroke="black" d="M339.88,-629.95C339.76,-597.1 337.19,-544.85 324.16,-501.81 310.84,-457.8 284.69,-412.04 264.7,-380.89"/>
<polygon fill="#3ab0b0" stroke="black" points="267.68,-379.04 259.28,-372.57 261.81,-382.86 267.68,-379.04"/>
</g>
<!-- ds_vis_core_layout_simple -->
<g id="node4" class="node">
<title>ds_vis_core_layout_simple</title><style>.edge>path:hover{stroke-width:8}</style>
<ellipse fill="#3ab0b0" stroke="black" cx="51.16" cy="-662.97" rx="35.18" ry="41.72"/>
<text xml:space="preserve" text-anchor="middle" x="51.16" y="-678.97" font-family="Helvetica,sans-Serif" font-size="10.00" fill="#000000">ds_vis.</text>
<text xml:space="preserve" text-anchor="middle" x="51.16" y="-666.22" font-family="Helvetica,sans-Serif" font-size="10.00" fill="#000000">core.</text>
<text xml:space="preserve" text-anchor="middle" x="51.16" y="-653.47" font-family="Helvetica,sans-Serif" font-size="10.00" fill="#000000">layout.</text>
<text xml:space="preserve" text-anchor="middle" x="51.16" y="-640.72" font-family="Helvetica,sans-Serif" font-size="10.00" fill="#000000">simple</text>
</g>
<!-- ds_vis_core_layout_simple&#45;&gt;ds_vis_core_scene_scene_graph -->
<g id="edge9" class="edge">
<title>ds_vis_core_layout_simple&#45;&gt;ds_vis_core_scene_scene_graph</title><style>.edge>path:hover{stroke-width:8}</style>
<path fill="none" stroke="black" d="M48.59,-621.04C47.81,-598.4 47.88,-569.81 51.16,-544.53"/>
</g>
<!-- ds_vis_core_models -->
<g id="node5" class="node">
<title>ds_vis_core_models</title><style>.edge>path:hover{stroke-width:8}</style>
<polygon fill="blue" stroke="black" points="315.16,-566.66 261.16,-566.66 261.16,-520.41 315.16,-520.41 315.16,-566.66"/>
<text xml:space="preserve" text-anchor="middle" x="288.16" y="-553.16" font-family="Helvetica,sans-Serif" font-size="10.00" fill="white">ds_vis.</text>
<text xml:space="preserve" text-anchor="middle" x="288.16" y="-540.41" font-family="Helvetica,sans-Serif" font-size="10.00" fill="white">core.</text>
<text xml:space="preserve" text-anchor="middle" x="288.16" y="-527.66" font-family="Helvetica,sans-Serif" font-size="10.00" fill="white">models</text>
</g>
<!-- ds_vis_core_models&#45;&gt;ds_vis_core_scene_scene_graph -->
<g id="edge10" class="edge">
<title>ds_vis_core_models&#45;&gt;ds_vis_core_scene_scene_graph</title><style>.edge>path:hover{stroke-width:8}</style>
<path fill="none" stroke="black" d="M270.71,-520.17C256.54,-499.79 238.81,-468.25 238.16,-437.31"/>
</g>
<!-- ds_vis_core_models_base -->
<g id="node6" class="node">
<title>ds_vis_core_models_base</title><style>.edge>path:hover{stroke-width:8}</style>
<ellipse fill="#2fbcbc" stroke="black" cx="228.16" cy="-782.41" rx="38.89" ry="41.72"/>
<text xml:space="preserve" text-anchor="middle" x="228.16" y="-798.41" font-family="Helvetica,sans-Serif" font-size="10.00" fill="#000000">ds_vis.</text>
<text xml:space="preserve" text-anchor="middle" x="228.16" y="-785.66" font-family="Helvetica,sans-Serif" font-size="10.00" fill="#000000">core.</text>
<text xml:space="preserve" text-anchor="middle" x="228.16" y="-772.91" font-family="Helvetica,sans-Serif" font-size="10.00" fill="#000000">models.</text>
<text xml:space="preserve" text-anchor="middle" x="228.16" y="-760.16" font-family="Helvetica,sans-Serif" font-size="10.00" fill="#000000">base</text>
</g>
<!-- ds_vis_core_models_base&#45;&gt;ds_vis_core_models -->
<g id="edge11" class="edge">
<title>ds_vis_core_models_base&#45;&gt;ds_vis_core_models</title><style>.edge>path:hover{stroke-width:8}</style>
<path fill="none" stroke="black" d="M238.2,-741.76C249.81,-695.92 268.73,-621.25 279.65,-578.14"/>
<polygon fill="#2fbcbc" stroke="black" points="283,-579.14 282.07,-568.59 276.22,-577.42 283,-579.14"/>
</g>
<!-- ds_vis_core_models_base&#45;&gt;ds_vis_core_models_list_model -->
<g id="edge12" class="edge">
<title>ds_vis_core_models_base&#45;&gt;ds_vis_core_models_list_model</title><style>.edge>path:hover{stroke-width:8}</style>
<path fill="none" stroke="black" d="M215.61,-742.63C211.53,-730.02 207,-716.02 202.91,-703.37"/>
<polygon fill="#2fbcbc" stroke="black" points="206.32,-702.54 199.91,-694.11 199.66,-704.7 206.32,-702.54"/>
</g>
<!-- ds_vis_core_models_bst -->
<g id="node7" class="node">
<title>ds_vis_core_models_bst</title><style>.edge>path:hover{stroke-width:8}</style>
<ellipse fill="#46a4a4" stroke="black" cx="466.16" cy="-782.41" rx="38.89" ry="41.72"/>
<text xml:space="preserve" text-anchor="middle" x="466.16" y="-798.41" font-family="Helvetica,sans-Serif" font-size="10.00" fill="#000000">ds_vis.</text>
<text xml:space="preserve" text-anchor="middle" x="466.16" y="-785.66" font-family="Helvetica,sans-Serif" font-size="10.00" fill="#000000">core.</text>
<text xml:space="preserve" text-anchor="middle" x="466.16" y="-772.91" font-family="Helvetica,sans-Serif" font-size="10.00" fill="#000000">models.</text>
<text xml:space="preserve" text-anchor="middle" x="466.16" y="-760.16" font-family="Helvetica,sans-Serif" font-size="10.00" fill="#000000">bst</text>
</g>
<!-- ds_vis_core_models_gitgraph -->
<g id="node8" class="node">
<title>ds_vis_core_models_gitgraph</title><style>.edge>path:hover{stroke-width:8}</style>
<ellipse fill="#46a4a4" stroke="black" cx="563.16" cy="-782.41" rx="39.95" ry="41.72"/>
<text xml:space="preserve" text-anchor="middle" x="563.16" y="-798.41" font-family="Helvetica,sans-Serif" font-size="10.00" fill="#000000">ds_vis.</text>
<text xml:space="preserve" text-anchor="middle" x="563.16" y="-785.66" font-family="Helvetica,sans-Serif" font-size="10.00" fill="#000000">core.</text>
<text xml:space="preserve" text-anchor="middle" x="563.16" y="-772.91" font-family="Helvetica,sans-Serif" font-size="10.00" fill="#000000">models.</text>
<text xml:space="preserve" text-anchor="middle" x="563.16" y="-760.16" font-family="Helvetica,sans-Serif" font-size="10.00" fill="#000000">gitgraph</text>
</g>
<!-- ds_vis_core_models_list_model&#45;&gt;ds_vis_core_models -->
<g id="edge13" class="edge">
<title>ds_vis_core_models_list_model&#45;&gt;ds_vis_core_models</title><style>.edge>path:hover{stroke-width:8}</style>
<path fill="none" stroke="black" d="M214.13,-633.24C228.74,-615.74 247.41,-593.37 262.34,-575.47"/>
<polygon fill="blue" stroke="black" points="264.65,-578.17 268.37,-568.25 259.27,-573.69 264.65,-578.17"/>
</g>
<!-- ds_vis_core_ops -->
<g id="node10" class="node">
<title>ds_vis_core_ops</title><style>.edge>path:hover{stroke-width:8}</style>
<ellipse fill="#06efef" stroke="black" cx="168.16" cy="-994.24" rx="35.18" ry="32.7"/>
<text xml:space="preserve" text-anchor="middle" x="168.16" y="-1003.87" font-family="Helvetica,sans-Serif" font-size="10.00" fill="#000000">ds_vis.</text>
<text xml:space="preserve" text-anchor="middle" x="168.16" y="-991.12" font-family="Helvetica,sans-Serif" font-size="10.00" fill="#000000">core.</text>
<text xml:space="preserve" text-anchor="middle" x="168.16" y="-978.37" font-family="Helvetica,sans-Serif" font-size="10.00" fill="#000000">ops</text>
</g>
<!-- ds_vis_core_ops&#45;&gt;ds_vis_core_layout -->
<g id="edge14" class="edge">
<title>ds_vis_core_ops&#45;&gt;ds_vis_core_layout</title><style>.edge>path:hover{stroke-width:8}</style>
<path fill="none" stroke="black" d="M295.16,-891.83C321.95,-871.14 306.77,-773.73 314.16,-740.69 316.8,-728.88 320.51,-716.31 324.26,-704.83"/>
<polygon fill="#06efef" stroke="black" points="327.47,-706.24 327.35,-695.65 320.84,-704.01 327.47,-706.24"/>
</g>
<!-- ds_vis_core_ops&#45;&gt;ds_vis_core_layout_simple -->
<g id="edge15" class="edge">
<title>ds_vis_core_ops&#45;&gt;ds_vis_core_layout_simple</title><style>.edge>path:hover{stroke-width:8}</style>
<path fill="none" stroke="black" d="M51.16,-781.41C48.41,-760.18 47.91,-736.62 48.29,-716.2"/>
<polygon fill="#06efef" stroke="black" points="51.78,-716.5 48.55,-706.41 44.78,-716.32 51.78,-716.5"/>
</g>
<!-- ds_vis_core_ops&#45;&gt;ds_vis_core_models_base -->
<g id="edge16" class="edge">
<title>ds_vis_core_ops&#45;&gt;ds_vis_core_models_base</title><style>.edge>path:hover{stroke-width:8}</style>
<path fill="none" stroke="black" d="M295.16,-891.83C320.78,-871.92 295.07,-839.25 268.42,-814.97"/>
<polygon fill="#06efef" stroke="black" points="270.77,-812.37 260.94,-808.4 266.15,-817.63 270.77,-812.37"/>
</g>
<!-- ds_vis_core_ops&#45;&gt;ds_vis_core_models_bst -->
<g id="edge17" class="edge">
<title>ds_vis_core_ops&#45;&gt;ds_vis_core_models_bst</title><style>.edge>path:hover{stroke-width:8}</style>
<path fill="none" stroke="black" d="M295.16,-891.83C344.43,-853.54 366.78,-859.54 418.16,-824.13 421.36,-821.92 424.6,-819.55 427.8,-817.08"/>
<polygon fill="#06efef" stroke="black" points="429.86,-819.92 435.5,-810.95 425.5,-814.45 429.86,-819.92"/>
</g>
<!-- ds_vis_core_ops&#45;&gt;ds_vis_core_models_gitgraph -->
<g id="edge18" class="edge">
<title>ds_vis_core_ops&#45;&gt;ds_vis_core_models_gitgraph</title><style>.edge>path:hover{stroke-width:8}</style>
<path fill="none" stroke="black" d="M295.16,-891.83C375.6,-829.32 424.59,-872.67 514.16,-824.13 517.62,-822.26 521.06,-820.12 524.43,-817.82"/>
<polygon fill="#06efef" stroke="black" points="526.46,-820.67 532.44,-811.93 522.31,-815.03 526.46,-820.67"/>
</g>
<!-- ds_vis_core_ops&#45;&gt;ds_vis_core_models_list_model -->
<g id="edge19" class="edge">
<title>ds_vis_core_ops&#45;&gt;ds_vis_core_models_list_model</title><style>.edge>path:hover{stroke-width:8}</style>
<path fill="none" stroke="black" d="M194.88,-972.24C220.55,-952.09 260.45,-920.81 295.16,-893.83"/>
<path fill="none" stroke="black" d="M295.16,-891.83C341.99,-855.44 209.6,-875.62 180.16,-824.13 159.17,-787.41 166.59,-737.91 176.11,-703.7"/>
<polygon fill="#06efef" stroke="black" points="179.45,-704.76 178.95,-694.18 172.74,-702.76 179.45,-704.76"/>
</g>
<!-- ds_vis_core_ops&#45;&gt;ds_vis_core_scene_scene_graph -->
<g id="edge20" class="edge">
<title>ds_vis_core_ops&#45;&gt;ds_vis_core_scene_scene_graph</title><style>.edge>path:hover{stroke-width:8}</style>
<path fill="none" stroke="black" d="M145.9,-968.43C114.73,-931.35 60.81,-857.86 51.16,-783.41"/>
<path fill="none" stroke="black" d="M51.16,-781.41C39.01,-744.03 17.28,-742.67 7.16,-704.69 -2.39,-668.86 -2.39,-657.09 7.16,-621.25 17.28,-583.27 46.11,-583.52 51.16,-544.53"/>
<path fill="none" stroke="black" d="M51.16,-542.53C55.75,-496 33.45,-480.6 51.16,-437.31"/>
<path fill="none" stroke="black" d="M51.16,-435.31C73.09,-381.72 140.43,-358.8 187.99,-349.14"/>
<polygon fill="#06efef" stroke="black" points="188.35,-352.64 197.53,-347.35 187.05,-345.76 188.35,-352.64"/>
</g>
<!-- ds_vis_core_ops&#45;&gt;ds_vis_renderers_base -->
<g id="edge21" class="edge">
<title>ds_vis_core_ops&#45;&gt;ds_vis_renderers_base</title><style>.edge>path:hover{stroke-width:8}</style>
<path fill="none" stroke="black" d="M295.16,-891.83C409.52,-804.22 521.55,-936.14 612.16,-824.13 657.43,-768.17 611.01,-732.23 588.16,-663.97"/>
<path fill="none" stroke="black" d="M588.16,-661.97C579.38,-632.24 560.74,-602.74 544.37,-580.74"/>
<polygon fill="#06efef" stroke="black" points="547.3,-578.82 538.45,-573 541.74,-583.07 547.3,-578.82"/>
</g>
<!-- ds_vis_core_ops&#45;&gt;ds_vis_renderers_pyside6_renderer -->
<g id="edge22" class="edge">
<title>ds_vis_core_ops&#45;&gt;ds_vis_renderers_pyside6_renderer</title><style>.edge>path:hover{stroke-width:8}</style>
<path fill="none" stroke="black" d="M588.16,-661.97C567.86,-593.23 591.59,-569.9 569.16,-501.81 554.51,-457.36 526.74,-411.44 505.71,-380.35"/>
<polygon fill="#06efef" stroke="black" points="508.82,-378.7 500.28,-372.44 503.05,-382.67 508.82,-378.7"/>
</g>
<!-- ds_vis_core_ops&#45;&gt;ds_vis_ui_main_window -->
<g id="edge23" class="edge">
<title>ds_vis_core_ops&#45;&gt;ds_vis_ui_main_window</title><style>.edge>path:hover{stroke-width:8}</style>
<path fill="none" stroke="black" d="M295.16,-891.83C448.14,-774.12 598.76,-970.87 724.16,-824.13 795.14,-741.07 636.93,-451.05 626.16,-342.31"/>
</g>
<!-- ds_vis_core_ops_ops -->
<g id="node11" class="node">
<title>ds_vis_core_ops_ops</title><style>.edge>path:hover{stroke-width:8}</style>
<ellipse fill="#3bcece" stroke="black" cx="168.16" cy="-1224.1" rx="35.18" ry="41.72"/>
<text xml:space="preserve" text-anchor="middle" x="168.16" y="-1240.1" font-family="Helvetica,sans-Serif" font-size="10.00" fill="#000000">ds_vis.</text>
<text xml:space="preserve" text-anchor="middle" x="168.16" y="-1227.35" font-family="Helvetica,sans-Serif" font-size="10.00" fill="#000000">core.</text>
<text xml:space="preserve" text-anchor="middle" x="168.16" y="-1214.6" font-family="Helvetica,sans-Serif" font-size="10.00" fill="#000000">ops.</text>
<text xml:space="preserve" text-anchor="middle" x="168.16" y="-1201.85" font-family="Helvetica,sans-Serif" font-size="10.00" fill="#000000">ops</text>
</g>
<!-- ds_vis_core_ops_ops&#45;&gt;ds_vis_core_ops -->
<g id="edge24" class="edge">
<title>ds_vis_core_ops_ops&#45;&gt;ds_vis_core_ops</title><style>.edge>path:hover{stroke-width:8}</style>
<path fill="none" stroke="black" d="M158.9,-1183.5C156.54,-1171.63 154.34,-1158.54 153.16,-1146.38 149.59,-1109.47 149.13,-1099.81 153.16,-1062.95 154.07,-1054.64 155.59,-1045.85 157.32,-1037.46"/>
<polygon fill="#3bcece" stroke="black" points="160.71,-1038.35 159.45,-1027.83 153.87,-1036.84 160.71,-1038.35"/>
</g>
<!-- ds_vis_core_ops_timeline -->
<g id="node12" class="node">
<title>ds_vis_core_ops_timeline</title><style>.edge>path:hover{stroke-width:8}</style>
<ellipse fill="#40bfc0" stroke="black" cx="202.16" cy="-1104.66" rx="39.95" ry="41.72"/>
<text xml:space="preserve" text-anchor="middle" x="202.16" y="-1120.66" font-family="Helvetica,sans-Serif" font-size="10.00" fill="#000000">ds_vis.</text>
<text xml:space="preserve" text-anchor="middle" x="202.16" y="-1107.91" font-family="Helvetica,sans-Serif" font-size="10.00" fill="#000000">core.</text>
<text xml:space="preserve" text-anchor="middle" x="202.16" y="-1095.16" font-family="Helvetica,sans-Serif" font-size="10.00" fill="#000000">ops.</text>
<text xml:space="preserve" text-anchor="middle" x="202.16" y="-1082.41" font-family="Helvetica,sans-Serif" font-size="10.00" fill="#000000">timeline</text>
</g>
<!-- ds_vis_core_ops_ops&#45;&gt;ds_vis_core_ops_timeline -->
<g id="edge25" class="edge">
<title>ds_vis_core_ops_ops&#45;&gt;ds_vis_core_ops_timeline</title><style>.edge>path:hover{stroke-width:8}</style>
<path fill="none" stroke="black" d="M179.39,-1184.32C182.03,-1175.2 184.88,-1165.35 187.64,-1155.8"/>
<polygon fill="#3bcece" stroke="black" points="190.99,-1156.84 190.41,-1146.26 184.26,-1154.89 190.99,-1156.84"/>
</g>
<!-- ds_vis_core_ops_timeline&#45;&gt;ds_vis_core_ops -->
<g id="edge26" class="edge">
<title>ds_vis_core_ops_timeline&#45;&gt;ds_vis_core_ops</title><style>.edge>path:hover{stroke-width:8}</style>
<path fill="none" stroke="black" d="M189.89,-1064.52C187.07,-1055.55 184.07,-1045.98 181.23,-1036.91"/>
<polygon fill="#40bfc0" stroke="black" points="184.64,-1036.1 178.31,-1027.61 177.96,-1038.2 184.64,-1036.1"/>
</g>
<!-- ds_vis_core_scene -->
<g id="node13" class="node">
<title>ds_vis_core_scene</title><style>.edge>path:hover{stroke-width:8}</style>
<polygon fill="blue" stroke="black" points="315.16,-266.24 261.16,-266.24 261.16,-219.99 315.16,-219.99 315.16,-266.24"/>
<text xml:space="preserve" text-anchor="middle" x="288.16" y="-252.74" font-family="Helvetica,sans-Serif" font-size="10.00" fill="white">ds_vis.</text>
<text xml:space="preserve" text-anchor="middle" x="288.16" y="-239.99" font-family="Helvetica,sans-Serif" font-size="10.00" fill="white">core.</text>
<text xml:space="preserve" text-anchor="middle" x="288.16" y="-227.24" font-family="Helvetica,sans-Serif" font-size="10.00" fill="white">scene</text>
</g>
<!-- ds_vis_core_scene&#45;&gt;ds_vis_ui_main_window -->
<g id="edge27" class="edge">
<title>ds_vis_core_scene&#45;&gt;ds_vis_ui_main_window</title><style>.edge>path:hover{stroke-width:8}</style>
<path fill="none" stroke="black" d="M299.22,-219.71C309,-201.45 324.58,-175.77 343.16,-157.41"/>
<path fill="none" stroke="black" d="M343.16,-155.41C372.66,-126.24 513.31,-142.94 522.16,-102.41"/>
<path fill="none" stroke="black" d="M522.16,-101.41C523.86,-93.6 524.66,-85.17 524.92,-76.99"/>
<polygon fill="blue" stroke="black" points="528.42,-77.22 524.95,-67.21 521.42,-77.2 528.42,-77.22"/>
</g>
<!-- ds_vis_core_scene_command -->
<g id="node14" class="node">
<title>ds_vis_core_scene_command</title><style>.edge>path:hover{stroke-width:8}</style>
<ellipse fill="#22e7e7" stroke="black" cx="197.16" cy="-543.53" rx="45.79" ry="41.72"/>
<text xml:space="preserve" text-anchor="middle" x="197.16" y="-559.53" font-family="Helvetica,sans-Serif" font-size="10.00" fill="#000000">ds_vis.</text>
<text xml:space="preserve" text-anchor="middle" x="197.16" y="-546.78" font-family="Helvetica,sans-Serif" font-size="10.00" fill="#000000">core.</text>
<text xml:space="preserve" text-anchor="middle" x="197.16" y="-534.03" font-family="Helvetica,sans-Serif" font-size="10.00" fill="#000000">scene.</text>
<text xml:space="preserve" text-anchor="middle" x="197.16" y="-521.28" font-family="Helvetica,sans-Serif" font-size="10.00" fill="#000000">command</text>
</g>
<!-- ds_vis_core_scene_command&#45;&gt;ds_vis_core_scene -->
<g id="edge28" class="edge">
<title>ds_vis_core_scene_command&#45;&gt;ds_vis_core_scene</title><style>.edge>path:hover{stroke-width:8}</style>
<path fill="none" stroke="black" d="M225.97,-510.64C256.76,-473.31 301.65,-408.18 305.16,-342.31"/>
<path fill="none" stroke="black" d="M305.16,-340.31C309.45,-319.54 305.49,-296.11 300.32,-277.57"/>
<polygon fill="#22e7e7" stroke="black" points="303.72,-276.72 297.45,-268.18 297.03,-278.76 303.72,-276.72"/>
</g>
<!-- ds_vis_core_scene_command&#45;&gt;ds_vis_core_scene_command_schema -->
<g id="edge29" class="edge">
<title>ds_vis_core_scene_command&#45;&gt;ds_vis_core_scene_command_schema</title><style>.edge>path:hover{stroke-width:8}</style>
<path fill="none" stroke="black" d="M175.31,-506.62C169.28,-496.71 162.72,-485.91 156.6,-475.86"/>
<polygon fill="#22e7e7" stroke="black" points="159.65,-474.13 151.46,-467.4 153.67,-477.76 159.65,-474.13"/>
</g>
<!-- ds_vis_core_scene_command&#45;&gt;ds_vis_core_scene_scene_graph -->
<g id="edge30" class="edge">
<title>ds_vis_core_scene_command&#45;&gt;ds_vis_core_scene_scene_graph</title><style>.edge>path:hover{stroke-width:8}</style>
<path fill="none" stroke="black" d="M219.03,-506.84C229.07,-487.07 238.67,-461.62 238.16,-437.31"/>
<path fill="none" stroke="black" d="M238.16,-435.31C237.8,-418.04 237.74,-398.95 237.79,-382.59"/>
<polygon fill="#22e7e7" stroke="black" points="241.29,-382.75 237.84,-372.74 234.29,-382.72 241.29,-382.75"/>
</g>
<!-- ds_vis_core_scene_command&#45;&gt;ds_vis_ui_main_window -->
<g id="edge31" class="edge">
<title>ds_vis_core_scene_command&#45;&gt;ds_vis_ui_main_window</title><style>.edge>path:hover{stroke-width:8}</style>
<path fill="none" stroke="black" d="M305.16,-340.31C314.46,-295.29 338.77,-289.87 343.16,-244.11"/>
<path fill="none" stroke="black" d="M343.16,-242.11C346.75,-204.64 316.39,-183.87 343.16,-157.41"/>
</g>
<!-- ds_vis_core_scene_command_schema&#45;&gt;ds_vis_core_scene_scene_graph -->
<g id="edge32" class="edge">
<title>ds_vis_core_scene_command_schema&#45;&gt;ds_vis_core_scene_scene_graph</title><style>.edge>path:hover{stroke-width:8}</style>
<path fill="none" stroke="black" d="M165.81,-406.4C175.68,-397.65 186.66,-387.93 197.02,-378.76"/>
<polygon fill="blue" stroke="black" points="199.23,-381.47 204.4,-372.22 194.59,-376.23 199.23,-381.47"/>
</g>
<!-- ds_vis_core_scene_scene_graph&#45;&gt;ds_vis_core_scene -->
<g id="edge33" class="edge">
<title>ds_vis_core_scene_scene_graph&#45;&gt;ds_vis_core_scene</title><style>.edge>path:hover{stroke-width:8}</style>
<path fill="none" stroke="black" d="M253.16,-311.45C258.89,-300.43 265.45,-287.8 271.34,-276.48"/>
<polygon fill="blue" stroke="black" points="274.3,-278.36 275.81,-267.88 268.09,-275.14 274.3,-278.36"/>
</g>
<!-- ds_vis_renderers -->
<g id="node17" class="node">
<title>ds_vis_renderers</title><style>.edge>path:hover{stroke-width:8}</style>
<polygon fill="blue" stroke="black" points="553.41,-174.41 490.91,-174.41 490.91,-138.41 553.41,-138.41 553.41,-174.41"/>
<text xml:space="preserve" text-anchor="middle" x="522.16" y="-159.66" font-family="Helvetica,sans-Serif" font-size="10.00" fill="white">ds_vis.</text>
<text xml:space="preserve" text-anchor="middle" x="522.16" y="-146.91" font-family="Helvetica,sans-Serif" font-size="10.00" fill="white">renderers</text>
</g>
<!-- ds_vis_renderers&#45;&gt;ds_vis_ui_main_window -->
<g id="edge34" class="edge">
<title>ds_vis_renderers&#45;&gt;ds_vis_ui_main_window</title><style>.edge>path:hover{stroke-width:8}</style>
<path fill="none" stroke="black" d="M520.3,-138.02C519.65,-127.58 519.61,-114.09 522.16,-102.41"/>
</g>
<!-- ds_vis_renderers_base&#45;&gt;ds_vis_renderers -->
<g id="edge35" class="edge">
<title>ds_vis_renderers_base&#45;&gt;ds_vis_renderers</title><style>.edge>path:hover{stroke-width:8}</style>
<path fill="none" stroke="black" d="M503.25,-511.29C496,-490.4 486.35,-462.26 478.16,-437.31"/>
<path fill="none" stroke="black" d="M478.16,-435.31C467.49,-402.81 448.31,-402.79 436.16,-370.81 415.94,-317.58 400.89,-298.68 417.16,-244.11"/>
<path fill="none" stroke="black" d="M417.16,-242.11C425.71,-211.37 454.9,-189.36 480.33,-175.5"/>
<polygon fill="#2fbcbc" stroke="black" points="481.94,-178.61 489.22,-170.92 478.73,-172.38 481.94,-178.61"/>
</g>
<!-- ds_vis_renderers_base&#45;&gt;ds_vis_renderers_pyside6_renderer -->
<g id="edge36" class="edge">
<title>ds_vis_renderers_base&#45;&gt;ds_vis_renderers_pyside6_renderer</title><style>.edge>path:hover{stroke-width:8}</style>
<path fill="none" stroke="black" d="M478.16,-435.31C472.63,-418.49 471.84,-399.01 472.75,-382.24"/>
<polygon fill="#2fbcbc" stroke="black" points="476.21,-382.87 473.49,-372.63 469.23,-382.34 476.21,-382.87"/>
</g>
<!-- ds_vis_renderers_pyside6 -->
<g id="node19" class="node">
<title>ds_vis_renderers_pyside6</title><style>.edge>path:hover{stroke-width:8}</style>
<ellipse fill="#3bcece" stroke="black" cx="522.16" cy="-243.11" rx="46.32" ry="32.7"/>
<text xml:space="preserve" text-anchor="middle" x="522.16" y="-252.74" font-family="Helvetica,sans-Serif" font-size="10.00" fill="#000000">ds_vis.</text>
<text xml:space="preserve" text-anchor="middle" x="522.16" y="-239.99" font-family="Helvetica,sans-Serif" font-size="10.00" fill="#000000">renderers.</text>
<text xml:space="preserve" text-anchor="middle" x="522.16" y="-227.24" font-family="Helvetica,sans-Serif" font-size="10.00" fill="#000000">pyside6</text>
</g>
<!-- ds_vis_renderers_pyside6&#45;&gt;ds_vis_renderers -->
<g id="edge37" class="edge">
<title>ds_vis_renderers_pyside6&#45;&gt;ds_vis_renderers</title><style>.edge>path:hover{stroke-width:8}</style>
<path fill="none" stroke="black" d="M522.16,-210.09C522.16,-202.22 522.16,-193.84 522.16,-186.14"/>
<polygon fill="#3bcece" stroke="black" points="525.66,-186.27 522.16,-176.27 518.66,-186.27 525.66,-186.27"/>
</g>
<!-- ds_vis_renderers_pyside6&#45;&gt;ds_vis_ui_main_window -->
<g id="edge38" class="edge">
<title>ds_vis_renderers_pyside6&#45;&gt;ds_vis_ui_main_window</title><style>.edge>path:hover{stroke-width:8}</style>
<path fill="none" stroke="black" d="M564.12,-228.53C597.02,-215.11 635.77,-191.59 626.16,-157.41"/>
<path fill="none" stroke="black" d="M626.16,-155.41C612.13,-105.46 511.09,-153.09 522.16,-102.41"/>
</g>
<!-- ds_vis_renderers_pyside6_renderer&#45;&gt;ds_vis_renderers -->
<g id="edge39" class="edge">
<title>ds_vis_renderers_pyside6_renderer&#45;&gt;ds_vis_renderers</title><style>.edge>path:hover{stroke-width:8}</style>
<path fill="none" stroke="black" d="M445.05,-313.3C426.91,-295.05 409.53,-269.7 417.16,-244.11"/>
</g>
<!-- ds_vis_renderers_pyside6_renderer&#45;&gt;ds_vis_ui_main_window -->
<g id="edge40" class="edge">
<title>ds_vis_renderers_pyside6_renderer&#45;&gt;ds_vis_ui_main_window</title><style>.edge>path:hover{stroke-width:8}</style>
<path fill="none" stroke="black" d="M511.11,-331.87C549.44,-319.88 609.58,-293.66 626.16,-244.11"/>
<path fill="none" stroke="black" d="M626.16,-242.11C638.1,-206.41 636.34,-193.65 626.16,-157.41"/>
</g>
<!-- PySide6 -->
<g id="node22" class="node">
<title>PySide6</title><style>.edge>path:hover{stroke-width:8}</style>
<polygon fill="#cc3333" stroke="black" points="714.66,-800.41 711.66,-804.41 690.66,-804.41 687.66,-800.41 659.66,-800.41 659.66,-764.41 714.66,-764.41 714.66,-800.41"/>
<text xml:space="preserve" text-anchor="middle" x="687.16" y="-779.29" font-family="Helvetica,sans-Serif" font-size="10.00" fill="#ffffff">PySide6</text>
</g>
<!-- PySide6&#45;&gt;ds_vis_renderers_pyside6_renderer -->
<g id="edge41" class="edge">
<title>PySide6&#45;&gt;ds_vis_renderers_pyside6_renderer</title><style>.edge>path:hover{stroke-width:8}</style>
<path fill="none" stroke="black" d="M686,-764.11C682.15,-712.9 667.65,-558.1 626.16,-437.31"/>
<path fill="none" stroke="black" d="M626.16,-435.31C605.83,-394.13 557.82,-369.14 521.95,-355.59"/>
<polygon fill="#cc3333" stroke="black" points="523.27,-352.34 512.68,-352.25 520.91,-358.93 523.27,-352.34"/>
</g>
<!-- PySide6&#45;&gt;ds_vis_ui_main_window -->
<g id="edge42" class="edge">
<title>PySide6&#45;&gt;ds_vis_ui_main_window</title><style>.edge>path:hover{stroke-width:8}</style>
<path fill="none" stroke="black" d="M626.16,-435.31C607.87,-398.25 630.23,-383.45 626.16,-342.31"/>
<path fill="none" stroke="black" d="M626.16,-340.31C621.95,-297.77 612.59,-284.66 626.16,-244.11"/>
</g>
</g>
</svg>
