<?xml version="1.0" encoding="UTF-8" standalone="no"?>
<!DOCTYPE svg PUBLIC "-//W3C//DTD SVG 1.1//EN"
 "http://www.w3.org/Graphics/SVG/1.1/DTD/svg11.dtd">
<!-- Generated by graphviz version 14.1.0 (20251207.0913)
 -->
<!-- Title: G Pages: 1 -->
<svg width="680pt" height="1131pt"
 viewBox="0.00 0.00 680.00 1131.00" xmlns="http://www.w3.org/2000/svg" xmlns:xlink="http://www.w3.org/1999/xlink">
<g id="graph0" class="graph" transform="scale(1 1) rotate(0) translate(4 1127.26)">
<title>G</title><style>.edge>path:hover{stroke-width:8}</style>
<polygon fill="white" stroke="none" points="-4,4 -4,-1127.26 675.9,-1127.26 675.9,4 -4,4"/>
<!-- ds_vis_core -->
<g id="node1" class="node">
<title>ds_vis_core</title><style>.edge>path:hover{stroke-width:8}</style>
<ellipse fill="#06f9f9" stroke="black" cx="491.4" cy="-851.68" rx="43.29" ry="18"/>
<text xml:space="preserve" text-anchor="middle" x="491.4" y="-848.56" font-family="Helvetica,sans-Serif" font-size="10.00" fill="#000000">ds_vis.core</text>
</g>
<!-- ds_vis_renderers_base -->
<g id="node16" class="node">
<title>ds_vis_renderers_base</title><style>.edge>path:hover{stroke-width:8}</style>
<ellipse fill="#2fbcbc" stroke="black" cx="532.4" cy="-639.85" rx="46.32" ry="32.7"/>
<text xml:space="preserve" text-anchor="middle" x="532.4" y="-649.47" font-family="Helvetica,sans-Serif" font-size="10.00" fill="#000000">ds_vis.</text>
<text xml:space="preserve" text-anchor="middle" x="532.4" y="-636.72" font-family="Helvetica,sans-Serif" font-size="10.00" fill="#000000">renderers.</text>
<text xml:space="preserve" text-anchor="middle" x="532.4" y="-623.97" font-family="Helvetica,sans-Serif" font-size="10.00" fill="#000000">base</text>
</g>
<!-- ds_vis_core&#45;&gt;ds_vis_renderers_base -->
<g id="edge1" class="edge">
<title>ds_vis_core&#45;&gt;ds_vis_renderers_base</title><style>.edge>path:hover{stroke-width:8}</style>
<path fill="none" stroke="black" d="M520.38,-837.87C550.6,-822.47 595.11,-793.33 606.4,-751.27"/>
<path fill="none" stroke="black" d="M606.4,-749.27C614.28,-719.93 593.89,-691.75 572.54,-671.47"/>
<polygon fill="#06f9f9" stroke="black" points="574.94,-668.93 565.17,-664.85 570.26,-674.14 574.94,-668.93"/>
</g>
<!-- ds_vis_renderers_pyside6_renderer -->
<g id="node18" class="node">
<title>ds_vis_renderers_pyside6_renderer</title><style>.edge>path:hover{stroke-width:8}</style>
<polygon fill="blue" stroke="black" points="616.15,-430.47 550.65,-430.47 550.65,-371.47 616.15,-371.47 616.15,-430.47"/>
<text xml:space="preserve" text-anchor="middle" x="583.4" y="-416.97" font-family="Helvetica,sans-Serif" font-size="10.00" fill="white">ds_vis.</text>
<text xml:space="preserve" text-anchor="middle" x="583.4" y="-404.22" font-family="Helvetica,sans-Serif" font-size="10.00" fill="white">renderers.</text>
<text xml:space="preserve" text-anchor="middle" x="583.4" y="-391.47" font-family="Helvetica,sans-Serif" font-size="10.00" fill="white">pyside6.</text>
<text xml:space="preserve" text-anchor="middle" x="583.4" y="-378.72" font-family="Helvetica,sans-Serif" font-size="10.00" fill="white">renderer</text>
</g>
<!-- ds_vis_core&#45;&gt;ds_vis_renderers_pyside6_renderer -->
<g id="edge2" class="edge">
<title>ds_vis_core&#45;&gt;ds_vis_renderers_pyside6_renderer</title><style>.edge>path:hover{stroke-width:8}</style>
<path fill="none" stroke="black" d="M606.4,-749.27C618.9,-702.73 602.61,-688.89 606.4,-640.85"/>
<path fill="none" stroke="black" d="M606.4,-638.85C610.52,-586.82 601.78,-573.4 606.4,-521.41"/>
</g>
<!-- ds_vis_ui_main_window -->
<g id="node19" class="node">
<title>ds_vis_ui_main_window</title><style>.edge>path:hover{stroke-width:8}</style>
<ellipse fill="#2e6b6b" stroke="black" cx="514.4" cy="-32.7" rx="59.04" ry="32.7"/>
<text xml:space="preserve" text-anchor="middle" x="514.4" y="-42.33" font-family="Helvetica,sans-Serif" font-size="10.00" fill="#ffffff">ds_vis.</text>
<text xml:space="preserve" text-anchor="middle" x="514.4" y="-29.58" font-family="Helvetica,sans-Serif" font-size="10.00" fill="#ffffff">ui.</text>
<text xml:space="preserve" text-anchor="middle" x="514.4" y="-16.83" font-family="Helvetica,sans-Serif" font-size="10.00" fill="#ffffff">main_window</text>
</g>
<!-- ds_vis_core&#45;&gt;ds_vis_ui_main_window -->
<g id="edge3" class="edge">
<title>ds_vis_core&#45;&gt;ds_vis_ui_main_window</title><style>.edge>path:hover{stroke-width:8}</style>
<path fill="none" stroke="black" d="M606.4,-638.85C610.73,-584.16 640.08,-576.1 644.4,-521.41"/>
<path fill="none" stroke="black" d="M644.4,-519.41C656.82,-362.35 636.43,-316.5 573.4,-172.11"/>
</g>
<!-- ds_vis_core_exceptions -->
<g id="node2" class="node">
<title>ds_vis_core_exceptions</title><style>.edge>path:hover{stroke-width:8}</style>
<ellipse fill="#3bcece" stroke="black" cx="456.4" cy="-962.1" rx="48.97" ry="32.7"/>
<text xml:space="preserve" text-anchor="middle" x="456.4" y="-971.73" font-family="Helvetica,sans-Serif" font-size="10.00" fill="#000000">ds_vis.</text>
<text xml:space="preserve" text-anchor="middle" x="456.4" y="-958.98" font-family="Helvetica,sans-Serif" font-size="10.00" fill="#000000">core.</text>
<text xml:space="preserve" text-anchor="middle" x="456.4" y="-946.23" font-family="Helvetica,sans-Serif" font-size="10.00" fill="#000000">exceptions</text>
</g>
<!-- ds_vis_core_exceptions&#45;&gt;ds_vis_core -->
<g id="edge4" class="edge">
<title>ds_vis_core_exceptions&#45;&gt;ds_vis_core</title><style>.edge>path:hover{stroke-width:8}</style>
<path fill="none" stroke="black" d="M466.53,-929.74C471.55,-914.19 477.56,-895.57 482.41,-880.53"/>
<polygon fill="#3bcece" stroke="black" points="485.66,-881.87 485.4,-871.28 479,-879.72 485.66,-881.87"/>
</g>
<!-- ds_vis_core_scene_scene_graph -->
<g id="node14" class="node">
<title>ds_vis_core_scene_scene_graph</title><style>.edge>path:hover{stroke-width:8}</style>
<ellipse fill="#2e8a8a" stroke="black" cx="291.4" cy="-281.53" rx="54.8" ry="41.72"/>
<text xml:space="preserve" text-anchor="middle" x="291.4" y="-297.53" font-family="Helvetica,sans-Serif" font-size="10.00" fill="#ffffff">ds_vis.</text>
<text xml:space="preserve" text-anchor="middle" x="291.4" y="-284.78" font-family="Helvetica,sans-Serif" font-size="10.00" fill="#ffffff">core.</text>
<text xml:space="preserve" text-anchor="middle" x="291.4" y="-272.03" font-family="Helvetica,sans-Serif" font-size="10.00" fill="#ffffff">scene.</text>
<text xml:space="preserve" text-anchor="middle" x="291.4" y="-259.28" font-family="Helvetica,sans-Serif" font-size="10.00" fill="#ffffff">scene_graph</text>
</g>
<!-- ds_vis_core_exceptions&#45;&gt;ds_vis_core_scene_scene_graph -->
<g id="edge5" class="edge">
<title>ds_vis_core_exceptions&#45;&gt;ds_vis_core_scene_scene_graph</title><style>.edge>path:hover{stroke-width:8}</style>
<path fill="none" stroke="black" d="M448.76,-929.5C445.59,-915.7 442.04,-899.3 439.4,-884.38 417.06,-758 460.13,-712.24 401.4,-598.13 378.56,-553.75 340.28,-566.74 319.4,-521.41"/>
</g>
<!-- ds_vis_core_layout -->
<g id="node3" class="node">
<title>ds_vis_core_layout</title><style>.edge>path:hover{stroke-width:8}</style>
<ellipse fill="#3ab0b0" stroke="black" cx="63.4" cy="-750.27" rx="35.18" ry="32.7"/>
<text xml:space="preserve" text-anchor="middle" x="63.4" y="-759.9" font-family="Helvetica,sans-Serif" font-size="10.00" fill="#000000">ds_vis.</text>
<text xml:space="preserve" text-anchor="middle" x="63.4" y="-747.15" font-family="Helvetica,sans-Serif" font-size="10.00" fill="#000000">core.</text>
<text xml:space="preserve" text-anchor="middle" x="63.4" y="-734.4" font-family="Helvetica,sans-Serif" font-size="10.00" fill="#000000">layout</text>
</g>
<!-- ds_vis_core_layout&#45;&gt;ds_vis_core_scene_scene_graph -->
<g id="edge6" class="edge">
<title>ds_vis_core_layout&#45;&gt;ds_vis_core_scene_scene_graph</title><style>.edge>path:hover{stroke-width:8}</style>
<path fill="none" stroke="black" d="M47.52,-721.01C20.74,-669.25 -26.19,-557.33 19.4,-478.69 53.82,-419.32 119.99,-461.91 153.4,-401.97"/>
<path fill="none" stroke="black" d="M153.4,-399.97C173.03,-363.95 208.46,-334.16 238.51,-313.59"/>
<polygon fill="#3ab0b0" stroke="black" points="240.4,-316.54 246.79,-308.08 236.53,-310.71 240.4,-316.54"/>
</g>
<!-- ds_vis_core_layout_simple -->
<g id="node4" class="node">
<title>ds_vis_core_layout_simple</title><style>.edge>path:hover{stroke-width:8}</style>
<ellipse fill="#3ab0b0" stroke="black" cx="63.4" cy="-520.41" rx="35.18" ry="41.72"/>
<text xml:space="preserve" text-anchor="middle" x="63.4" y="-536.41" font-family="Helvetica,sans-Serif" font-size="10.00" fill="#000000">ds_vis.</text>
<text xml:space="preserve" text-anchor="middle" x="63.4" y="-523.66" font-family="Helvetica,sans-Serif" font-size="10.00" fill="#000000">core.</text>
<text xml:space="preserve" text-anchor="middle" x="63.4" y="-510.91" font-family="Helvetica,sans-Serif" font-size="10.00" fill="#000000">layout.</text>
<text xml:space="preserve" text-anchor="middle" x="63.4" y="-498.16" font-family="Helvetica,sans-Serif" font-size="10.00" fill="#000000">simple</text>
</g>
<!-- ds_vis_core_layout_simple&#45;&gt;ds_vis_core_scene_scene_graph -->
<g id="edge7" class="edge">
<title>ds_vis_core_layout_simple&#45;&gt;ds_vis_core_scene_scene_graph</title><style>.edge>path:hover{stroke-width:8}</style>
<path fill="none" stroke="black" d="M88.86,-491.14C108.44,-468.32 135.14,-434.73 153.4,-401.97"/>
</g>
<!-- ds_vis_core_models -->
<g id="node5" class="node">
<title>ds_vis_core_models</title><style>.edge>path:hover{stroke-width:8}</style>
<ellipse fill="#2db4b4" stroke="black" cx="153.4" cy="-520.41" rx="36.77" ry="32.7"/>
<text xml:space="preserve" text-anchor="middle" x="153.4" y="-530.04" font-family="Helvetica,sans-Serif" font-size="10.00" fill="#000000">ds_vis.</text>
<text xml:space="preserve" text-anchor="middle" x="153.4" y="-517.29" font-family="Helvetica,sans-Serif" font-size="10.00" fill="#000000">core.</text>
<text xml:space="preserve" text-anchor="middle" x="153.4" y="-504.54" font-family="Helvetica,sans-Serif" font-size="10.00" fill="#000000">models</text>
</g>
<!-- ds_vis_core_models&#45;&gt;ds_vis_core_scene_scene_graph -->
<g id="edge8" class="edge">
<title>ds_vis_core_models&#45;&gt;ds_vis_core_scene_scene_graph</title><style>.edge>path:hover{stroke-width:8}</style>
<path fill="none" stroke="black" d="M145.51,-488.16C140.99,-463.22 138.76,-428.24 153.4,-401.97"/>
</g>
<!-- ds_vis_core_models_bst -->
<g id="node6" class="node">
<title>ds_vis_core_models_bst</title><style>.edge>path:hover{stroke-width:8}</style>
<ellipse fill="#46a4a4" stroke="black" cx="255.4" cy="-639.85" rx="38.89" ry="41.72"/>
<text xml:space="preserve" text-anchor="middle" x="255.4" y="-655.85" font-family="Helvetica,sans-Serif" font-size="10.00" fill="#000000">ds_vis.</text>
<text xml:space="preserve" text-anchor="middle" x="255.4" y="-643.1" font-family="Helvetica,sans-Serif" font-size="10.00" fill="#000000">core.</text>
<text xml:space="preserve" text-anchor="middle" x="255.4" y="-630.35" font-family="Helvetica,sans-Serif" font-size="10.00" fill="#000000">models.</text>
<text xml:space="preserve" text-anchor="middle" x="255.4" y="-617.6" font-family="Helvetica,sans-Serif" font-size="10.00" fill="#000000">bst</text>
</g>
<!-- ds_vis_core_models_gitgraph -->
<g id="node7" class="node">
<title>ds_vis_core_models_gitgraph</title><style>.edge>path:hover{stroke-width:8}</style>
<ellipse fill="#46a4a4" stroke="black" cx="352.4" cy="-639.85" rx="39.95" ry="41.72"/>
<text xml:space="preserve" text-anchor="middle" x="352.4" y="-655.85" font-family="Helvetica,sans-Serif" font-size="10.00" fill="#000000">ds_vis.</text>
<text xml:space="preserve" text-anchor="middle" x="352.4" y="-643.1" font-family="Helvetica,sans-Serif" font-size="10.00" fill="#000000">core.</text>
<text xml:space="preserve" text-anchor="middle" x="352.4" y="-630.35" font-family="Helvetica,sans-Serif" font-size="10.00" fill="#000000">models.</text>
<text xml:space="preserve" text-anchor="middle" x="352.4" y="-617.6" font-family="Helvetica,sans-Serif" font-size="10.00" fill="#000000">gitgraph</text>
</g>
<!-- ds_vis_core_models_list_model -->
<g id="node8" class="node">
<title>ds_vis_core_models_list_model</title><style>.edge>path:hover{stroke-width:8}</style>
<ellipse fill="#3ab0b0" stroke="black" cx="113.4" cy="-639.85" rx="47.38" ry="41.72"/>
<text xml:space="preserve" text-anchor="middle" x="113.4" y="-655.85" font-family="Helvetica,sans-Serif" font-size="10.00" fill="#000000">ds_vis.</text>
<text xml:space="preserve" text-anchor="middle" x="113.4" y="-643.1" font-family="Helvetica,sans-Serif" font-size="10.00" fill="#000000">core.</text>
<text xml:space="preserve" text-anchor="middle" x="113.4" y="-630.35" font-family="Helvetica,sans-Serif" font-size="10.00" fill="#000000">models.</text>
<text xml:space="preserve" text-anchor="middle" x="113.4" y="-617.6" font-family="Helvetica,sans-Serif" font-size="10.00" fill="#000000">list_model</text>
</g>
<!-- ds_vis_core_models_list_model&#45;&gt;ds_vis_core_models -->
<g id="edge9" class="edge">
<title>ds_vis_core_models_list_model&#45;&gt;ds_vis_core_models</title><style>.edge>path:hover{stroke-width:8}</style>
<path fill="none" stroke="black" d="M126.83,-599.42C130.87,-587.58 135.3,-574.57 139.37,-562.62"/>
<polygon fill="#3ab0b0" stroke="black" points="142.58,-564.04 142.49,-553.45 135.96,-561.78 142.58,-564.04"/>
</g>
<!-- ds_vis_core_ops -->
<g id="node9" class="node">
<title>ds_vis_core_ops</title><style>.edge>path:hover{stroke-width:8}</style>
<ellipse fill="#06efef" stroke="black" cx="188.4" cy="-851.68" rx="35.18" ry="32.7"/>
<text xml:space="preserve" text-anchor="middle" x="188.4" y="-861.31" font-family="Helvetica,sans-Serif" font-size="10.00" fill="#000000">ds_vis.</text>
<text xml:space="preserve" text-anchor="middle" x="188.4" y="-848.56" font-family="Helvetica,sans-Serif" font-size="10.00" fill="#000000">core.</text>
<text xml:space="preserve" text-anchor="middle" x="188.4" y="-835.81" font-family="Helvetica,sans-Serif" font-size="10.00" fill="#000000">ops</text>
</g>
<!-- ds_vis_core_ops&#45;&gt;ds_vis_core_layout -->
<g id="edge10" class="edge">
<title>ds_vis_core_ops&#45;&gt;ds_vis_core_layout</title><style>.edge>path:hover{stroke-width:8}</style>
<path fill="none" stroke="black" d="M161.89,-829.6C143.5,-814.97 118.79,-795.32 98.73,-779.36"/>
<polygon fill="#06efef" stroke="black" points="101.06,-776.75 91.06,-773.27 96.71,-782.23 101.06,-776.75"/>
</g>
<!-- ds_vis_core_ops&#45;&gt;ds_vis_core_layout_simple -->
<g id="edge11" class="edge">
<title>ds_vis_core_ops&#45;&gt;ds_vis_core_layout_simple</title><style>.edge>path:hover{stroke-width:8}</style>
<path fill="none" stroke="black" d="M185.26,-819.03C184.08,-799.34 183.94,-773.61 188.4,-751.27"/>
<path fill="none" stroke="black" d="M188.4,-749.27C201.25,-685.01 91.49,-737.55 57.4,-681.57 37.32,-648.58 40.78,-604.28 48.16,-570.63"/>
<polygon fill="#06efef" stroke="black" points="51.51,-571.67 50.43,-561.13 44.7,-570.04 51.51,-571.67"/>
</g>
<!-- ds_vis_core_ops&#45;&gt;ds_vis_core_models_bst -->
<g id="edge12" class="edge">
<title>ds_vis_core_ops&#45;&gt;ds_vis_core_models_bst</title><style>.edge>path:hover{stroke-width:8}</style>
<path fill="none" stroke="black" d="M188.4,-749.27C193.47,-723.91 207.88,-699.11 222.04,-679.64"/>
<polygon fill="#06efef" stroke="black" points="224.78,-681.83 228.02,-671.74 219.19,-677.6 224.78,-681.83"/>
</g>
<!-- ds_vis_core_ops&#45;&gt;ds_vis_core_models_gitgraph -->
<g id="edge13" class="edge">
<title>ds_vis_core_ops&#45;&gt;ds_vis_core_models_gitgraph</title><style>.edge>path:hover{stroke-width:8}</style>
<path fill="none" stroke="black" d="M188.4,-749.27C200.03,-691.11 254.88,-715.68 303.4,-681.57 306.58,-679.34 309.8,-676.96 313,-674.5"/>
<polygon fill="#06efef" stroke="black" points="315.03,-677.36 320.71,-668.42 310.69,-671.87 315.03,-677.36"/>
</g>
<!-- ds_vis_core_ops&#45;&gt;ds_vis_core_models_list_model -->
<g id="edge14" class="edge">
<title>ds_vis_core_ops&#45;&gt;ds_vis_core_models_list_model</title><style>.edge>path:hover{stroke-width:8}</style>
<path fill="none" stroke="black" d="M188.4,-749.27C193.97,-721.46 176.57,-695.17 157.13,-675.44"/>
<polygon fill="#06efef" stroke="black" points="159.77,-673.12 150.13,-668.72 154.93,-678.17 159.77,-673.12"/>
</g>
<!-- ds_vis_core_ops&#45;&gt;ds_vis_core_scene_scene_graph -->
<g id="edge15" class="edge">
<title>ds_vis_core_ops&#45;&gt;ds_vis_core_scene_scene_graph</title><style>.edge>path:hover{stroke-width:8}</style>
<path fill="none" stroke="black" d="M188.4,-749.27C201.36,-682.82 172.15,-655.93 207.4,-598.13 238.82,-546.62 343.51,-576.72 319.4,-521.41"/>
<path fill="none" stroke="black" d="M319.4,-519.41C281.6,-437.32 110.16,-481.33 153.4,-401.97"/>
</g>
<!-- ds_vis_core_ops&#45;&gt;ds_vis_renderers_base -->
<g id="edge16" class="edge">
<title>ds_vis_core_ops&#45;&gt;ds_vis_renderers_base</title><style>.edge>path:hover{stroke-width:8}</style>
<path fill="none" stroke="black" d="M218.19,-833.72C270.3,-803.88 381.14,-739.64 472.4,-681.57 478.33,-677.8 484.52,-673.74 490.58,-669.69"/>
<polygon fill="#06efef" stroke="black" points="492.34,-672.73 498.68,-664.24 488.43,-666.92 492.34,-672.73"/>
</g>
<!-- ds_vis_core_ops&#45;&gt;ds_vis_renderers_pyside6_renderer -->
<g id="edge17" class="edge">
<title>ds_vis_core_ops&#45;&gt;ds_vis_renderers_pyside6_renderer</title><style>.edge>path:hover{stroke-width:8}</style>
<path fill="none" stroke="black" d="M188.4,-749.27C208.6,-652.01 317.77,-735.16 401.4,-681.57 443.64,-654.51 438.53,-629.84 477.4,-598.13 529.09,-555.96 600.5,-587.86 606.4,-521.41"/>
<path fill="none" stroke="black" d="M606.4,-519.41C609.18,-493.25 603.59,-464.24 597.22,-441.6"/>
<polygon fill="#06efef" stroke="black" points="600.62,-440.74 594.4,-432.17 593.91,-442.75 600.62,-440.74"/>
</g>
<!-- ds_vis_core_ops_ops -->
<g id="node10" class="node">
<title>ds_vis_core_ops_ops</title><style>.edge>path:hover{stroke-width:8}</style>
<ellipse fill="#3bcece" stroke="black" cx="188.4" cy="-1081.54" rx="35.18" ry="41.72"/>
<text xml:space="preserve" text-anchor="middle" x="188.4" y="-1097.54" font-family="Helvetica,sans-Serif" font-size="10.00" fill="#000000">ds_vis.</text>
<text xml:space="preserve" text-anchor="middle" x="188.4" y="-1084.79" font-family="Helvetica,sans-Serif" font-size="10.00" fill="#000000">core.</text>
<text xml:space="preserve" text-anchor="middle" x="188.4" y="-1072.04" font-family="Helvetica,sans-Serif" font-size="10.00" fill="#000000">ops.</text>
<text xml:space="preserve" text-anchor="middle" x="188.4" y="-1059.29" font-family="Helvetica,sans-Serif" font-size="10.00" fill="#000000">ops</text>
</g>
<!-- ds_vis_core_ops_ops&#45;&gt;ds_vis_core_ops -->
<g id="edge18" class="edge">
<title>ds_vis_core_ops_ops&#45;&gt;ds_vis_core_ops</title><style>.edge>path:hover{stroke-width:8}</style>
<path fill="none" stroke="black" d="M179.15,-1040.94C176.78,-1029.07 174.58,-1015.98 173.4,-1003.82 169.83,-966.91 169.37,-957.25 173.4,-920.38 174.31,-912.07 175.83,-903.29 177.56,-894.9"/>
<polygon fill="#3bcece" stroke="black" points="180.95,-895.79 179.69,-885.27 174.12,-894.28 180.95,-895.79"/>
</g>
<!-- ds_vis_core_ops_timeline -->
<g id="node11" class="node">
<title>ds_vis_core_ops_timeline</title><style>.edge>path:hover{stroke-width:8}</style>
<ellipse fill="#40bfc0" stroke="black" cx="222.4" cy="-962.1" rx="39.95" ry="41.72"/>
<text xml:space="preserve" text-anchor="middle" x="222.4" y="-978.1" font-family="Helvetica,sans-Serif" font-size="10.00" fill="#000000">ds_vis.</text>
<text xml:space="preserve" text-anchor="middle" x="222.4" y="-965.35" font-family="Helvetica,sans-Serif" font-size="10.00" fill="#000000">core.</text>
<text xml:space="preserve" text-anchor="middle" x="222.4" y="-952.6" font-family="Helvetica,sans-Serif" font-size="10.00" fill="#000000">ops.</text>
<text xml:space="preserve" text-anchor="middle" x="222.4" y="-939.85" font-family="Helvetica,sans-Serif" font-size="10.00" fill="#000000">timeline</text>
</g>
<!-- ds_vis_core_ops_ops&#45;&gt;ds_vis_core_ops_timeline -->
<g id="edge19" class="edge">
<title>ds_vis_core_ops_ops&#45;&gt;ds_vis_core_ops_timeline</title><style>.edge>path:hover{stroke-width:8}</style>
<path fill="none" stroke="black" d="M199.63,-1041.76C202.27,-1032.64 205.12,-1022.79 207.89,-1013.24"/>
<polygon fill="#3bcece" stroke="black" points="211.23,-1014.28 210.65,-1003.7 204.51,-1012.33 211.23,-1014.28"/>
</g>
<!-- ds_vis_core_ops_timeline&#45;&gt;ds_vis_core_ops -->
<g id="edge20" class="edge">
<title>ds_vis_core_ops_timeline&#45;&gt;ds_vis_core_ops</title><style>.edge>path:hover{stroke-width:8}</style>
<path fill="none" stroke="black" d="M210.13,-921.96C207.32,-912.99 204.32,-903.42 201.47,-894.35"/>
<polygon fill="#40bfc0" stroke="black" points="204.89,-893.54 198.55,-885.05 198.21,-895.64 204.89,-893.54"/>
</g>
<!-- ds_vis_core_scene -->
<g id="node12" class="node">
<title>ds_vis_core_scene</title><style>.edge>path:hover{stroke-width:8}</style>
<ellipse fill="#3db8b8" stroke="black" cx="374.4" cy="-171.11" rx="35.18" ry="32.7"/>
<text xml:space="preserve" text-anchor="middle" x="374.4" y="-180.74" font-family="Helvetica,sans-Serif" font-size="10.00" fill="#000000">ds_vis.</text>
<text xml:space="preserve" text-anchor="middle" x="374.4" y="-167.99" font-family="Helvetica,sans-Serif" font-size="10.00" fill="#000000">core.</text>
<text xml:space="preserve" text-anchor="middle" x="374.4" y="-155.24" font-family="Helvetica,sans-Serif" font-size="10.00" fill="#000000">scene</text>
</g>
<!-- ds_vis_core_scene&#45;&gt;ds_vis_ui_main_window -->
<g id="edge21" class="edge">
<title>ds_vis_core_scene&#45;&gt;ds_vis_ui_main_window</title><style>.edge>path:hover{stroke-width:8}</style>
<path fill="none" stroke="black" d="M404.43,-153.77C413.95,-148.72 424.56,-143.22 434.4,-138.41 469.44,-121.29 504.98,-140.24 514.4,-102.41"/>
<path fill="none" stroke="black" d="M514.4,-101.41C516.33,-93.66 517.24,-85.25 517.53,-77.08"/>
<polygon fill="#3db8b8" stroke="black" points="521.03,-77.31 517.56,-67.29 514.03,-77.28 521.03,-77.31"/>
</g>
<!-- ds_vis_core_scene_command -->
<g id="node13" class="node">
<title>ds_vis_core_scene_command</title><style>.edge>path:hover{stroke-width:8}</style>
<ellipse fill="#2fdbdb" stroke="black" cx="333.4" cy="-400.97" rx="45.79" ry="41.72"/>
<text xml:space="preserve" text-anchor="middle" x="333.4" y="-416.97" font-family="Helvetica,sans-Serif" font-size="10.00" fill="#000000">ds_vis.</text>
<text xml:space="preserve" text-anchor="middle" x="333.4" y="-404.22" font-family="Helvetica,sans-Serif" font-size="10.00" fill="#000000">core.</text>
<text xml:space="preserve" text-anchor="middle" x="333.4" y="-391.47" font-family="Helvetica,sans-Serif" font-size="10.00" fill="#000000">scene.</text>
<text xml:space="preserve" text-anchor="middle" x="333.4" y="-378.72" font-family="Helvetica,sans-Serif" font-size="10.00" fill="#000000">command</text>
</g>
<!-- ds_vis_core_scene_command&#45;&gt;ds_vis_core_scene -->
<g id="edge22" class="edge">
<title>ds_vis_core_scene_command&#45;&gt;ds_vis_core_scene</title><style>.edge>path:hover{stroke-width:8}</style>
<path fill="none" stroke="black" d="M347.24,-360.89C355.28,-338.07 365.53,-308.71 374.4,-282.53"/>
<path fill="none" stroke="black" d="M374.4,-280.53C381.43,-259.82 382.08,-235.57 380.69,-215.27"/>
<polygon fill="#2fdbdb" stroke="black" points="384.18,-214.98 379.8,-205.33 377.21,-215.6 384.18,-214.98"/>
</g>
<!-- ds_vis_core_scene_command&#45;&gt;ds_vis_core_scene_scene_graph -->
<g id="edge23" class="edge">
<title>ds_vis_core_scene_command&#45;&gt;ds_vis_core_scene_scene_graph</title><style>.edge>path:hover{stroke-width:8}</style>
<path fill="none" stroke="black" d="M319.42,-360.87C316.23,-351.95 312.79,-342.34 309.46,-333.02"/>
<polygon fill="#2fdbdb" stroke="black" points="312.79,-331.93 306.12,-323.7 306.2,-334.29 312.79,-331.93"/>
</g>
<!-- ds_vis_core_scene_command&#45;&gt;ds_vis_ui_main_window -->
<g id="edge24" class="edge">
<title>ds_vis_core_scene_command&#45;&gt;ds_vis_ui_main_window</title><style>.edge>path:hover{stroke-width:8}</style>
<path fill="none" stroke="black" d="M374.4,-280.53C380.82,-261.62 382.81,-256.74 393.4,-239.81 413.98,-206.96 428.39,-205.31 448.4,-172.11"/>
<path fill="none" stroke="black" d="M448.4,-170.11C457.81,-154.5 461.82,-151.59 474.4,-138.41 490.92,-121.11 508.62,-125.62 514.4,-102.41"/>
</g>
<!-- ds_vis_core_scene_scene_graph&#45;&gt;ds_vis_core_scene -->
<g id="edge25" class="edge">
<title>ds_vis_core_scene_scene_graph&#45;&gt;ds_vis_core_scene</title><style>.edge>path:hover{stroke-width:8}</style>
<path fill="none" stroke="black" d="M318.58,-245.03C327.85,-232.93 338.2,-219.4 347.45,-207.32"/>
<polygon fill="#2e8a8a" stroke="black" points="350.06,-209.67 353.36,-199.61 344.5,-205.42 350.06,-209.67"/>
</g>
<!-- ds_vis_renderers -->
<g id="node15" class="node">
<title>ds_vis_renderers</title><style>.edge>path:hover{stroke-width:8}</style>
<polygon fill="blue" stroke="black" points="545.65,-189.11 483.15,-189.11 483.15,-153.11 545.65,-153.11 545.65,-189.11"/>
<text xml:space="preserve" text-anchor="middle" x="514.4" y="-174.36" font-family="Helvetica,sans-Serif" font-size="10.00" fill="white">ds_vis.</text>
<text xml:space="preserve" text-anchor="middle" x="514.4" y="-161.61" font-family="Helvetica,sans-Serif" font-size="10.00" fill="white">renderers</text>
</g>
<!-- ds_vis_renderers&#45;&gt;ds_vis_ui_main_window -->
<g id="edge26" class="edge">
<title>ds_vis_renderers&#45;&gt;ds_vis_ui_main_window</title><style>.edge>path:hover{stroke-width:8}</style>
<path fill="none" stroke="black" d="M512.13,-152.86C510.85,-139.01 510.23,-119.17 514.4,-102.41"/>
</g>
<!-- ds_vis_renderers_base&#45;&gt;ds_vis_renderers -->
<g id="edge27" class="edge">
<title>ds_vis_renderers_base&#45;&gt;ds_vis_renderers</title><style>.edge>path:hover{stroke-width:8}</style>
<path fill="none" stroke="black" d="M531.17,-606.77C527.83,-520.18 518.67,-282.72 515.5,-200.55"/>
<polygon fill="#2fbcbc" stroke="black" points="519,-200.53 515.12,-190.67 512.01,-200.8 519,-200.53"/>
</g>
<!-- ds_vis_renderers_base&#45;&gt;ds_vis_renderers_pyside6_renderer -->
<g id="edge28" class="edge">
<title>ds_vis_renderers_base&#45;&gt;ds_vis_renderers_pyside6_renderer</title><style>.edge>path:hover{stroke-width:8}</style>
<path fill="none" stroke="black" d="M559.12,-612.75C579.01,-590.64 603.24,-556.94 606.4,-521.41"/>
</g>
<!-- ds_vis_renderers_pyside6 -->
<g id="node17" class="node">
<title>ds_vis_renderers_pyside6</title><style>.edge>path:hover{stroke-width:8}</style>
<ellipse fill="#3bcece" stroke="black" cx="448.4" cy="-281.53" rx="46.32" ry="32.7"/>
<text xml:space="preserve" text-anchor="middle" x="448.4" y="-291.16" font-family="Helvetica,sans-Serif" font-size="10.00" fill="#000000">ds_vis.</text>
<text xml:space="preserve" text-anchor="middle" x="448.4" y="-278.41" font-family="Helvetica,sans-Serif" font-size="10.00" fill="#000000">renderers.</text>
<text xml:space="preserve" text-anchor="middle" x="448.4" y="-265.66" font-family="Helvetica,sans-Serif" font-size="10.00" fill="#000000">pyside6</text>
</g>
<!-- ds_vis_renderers_pyside6&#45;&gt;ds_vis_renderers -->
<g id="edge29" class="edge">
<title>ds_vis_renderers_pyside6&#45;&gt;ds_vis_renderers</title><style>.edge>path:hover{stroke-width:8}</style>
<path fill="none" stroke="black" d="M466.44,-250.91C476.27,-234.76 488.35,-214.91 497.93,-199.18"/>
<polygon fill="#3bcece" stroke="black" points="500.81,-201.17 503.02,-190.81 494.83,-197.53 500.81,-201.17"/>
</g>
<!-- ds_vis_renderers_pyside6&#45;&gt;ds_vis_ui_main_window -->
<g id="edge30" class="edge">
<title>ds_vis_renderers_pyside6&#45;&gt;ds_vis_ui_main_window</title><style>.edge>path:hover{stroke-width:8}</style>
<path fill="none" stroke="black" d="M440.28,-249.28C436.14,-226.29 434.51,-195.16 448.4,-172.11"/>
</g>
<!-- ds_vis_renderers_pyside6_renderer&#45;&gt;ds_vis_renderers -->
<g id="edge31" class="edge">
<title>ds_vis_renderers_pyside6_renderer&#45;&gt;ds_vis_renderers</title><style>.edge>path:hover{stroke-width:8}</style>
<path fill="none" stroke="black" d="M580.1,-371.41C577.2,-347.57 572.63,-312.74 567.4,-282.53"/>
<path fill="none" stroke="black" d="M567.4,-280.53C562.24,-250.73 546.05,-220.06 532.9,-198.98"/>
<polygon fill="blue" stroke="black" points="535.94,-197.22 527.58,-190.72 530.05,-201.02 535.94,-197.22"/>
</g>
<!-- ds_vis_renderers_pyside6_renderer&#45;&gt;ds_vis_ui_main_window -->
<g id="edge32" class="edge">
<title>ds_vis_renderers_pyside6_renderer&#45;&gt;ds_vis_ui_main_window</title><style>.edge>path:hover{stroke-width:8}</style>
<path fill="none" stroke="black" d="M567.4,-280.53C559.17,-232.98 592.71,-216.34 573.4,-172.11"/>
<path fill="none" stroke="black" d="M573.4,-170.11C566.83,-155.06 564.85,-151.09 554.4,-138.41 539.2,-119.94 508.62,-125.62 514.4,-102.41"/>
</g>
<!-- PySide6 -->
<g id="node20" class="node">
<title>PySide6</title><style>.edge>path:hover{stroke-width:8}</style>
<polygon fill="#cc3333" stroke="black" points="671.9,-869.68 668.9,-873.68 647.9,-873.68 644.9,-869.68 616.9,-869.68 616.9,-833.68 671.9,-833.68 671.9,-869.68"/>
<text xml:space="preserve" text-anchor="middle" x="644.4" y="-848.56" font-family="Helvetica,sans-Serif" font-size="10.00" fill="#ffffff">PySide6</text>
</g>
<!-- PySide6&#45;&gt;ds_vis_renderers_pyside6_renderer -->
<g id="edge33" class="edge">
<title>PySide6&#45;&gt;ds_vis_renderers_pyside6_renderer</title><style>.edge>path:hover{stroke-width:8}</style>
<path fill="none" stroke="black" d="M645.33,-833.23C647.04,-797.21 650.03,-712.03 644.4,-640.85"/>
<path fill="none" stroke="black" d="M644.4,-638.85C639.34,-584.23 601.54,-576.05 606.4,-521.41"/>
</g>
<!-- PySide6&#45;&gt;ds_vis_ui_main_window -->
<g id="edge34" class="edge">
<title>PySide6&#45;&gt;ds_vis_ui_main_window</title><style>.edge>path:hover{stroke-width:8}</style>
<path fill="none" stroke="black" d="M644.4,-638.85C639.58,-586.88 640.23,-573.44 644.4,-521.41"/>
</g>
</g>
</svg>
